<?xml version="1.0" standalone="no"?>
<!DOCTYPE svg PUBLIC "-//W3C//DTD SVG 20010904//EN"
 "http://www.w3.org/TR/2001/REC-SVG-20010904/DTD/svg10.dtd">
<svg version="1.0" xmlns="http://www.w3.org/2000/svg"
 width="694.000000pt" height="694.000000pt" viewBox="0 0 694.000000 694.000000"
 preserveAspectRatio="xMidYMid meet">
<metadata>
Created by potrace 1.14, written by Peter Selinger 2001-2017
</metadata>
<g transform="translate(0.000000,694.000000) scale(0.100000,-0.100000)"
fill="#000000" stroke="none">
<path d="M3812 5090 c-214 -24 -423 -110 -609 -249 -125 -93 -351 -322 -559
-566 -303 -356 -429 -471 -597 -550 -175 -83 -384 -96 -580 -35 -175 55 -318
193 -394 382 -48 118 -64 224 -71 485 -8 272 -10 279 -88 318 -33 16 -61 19
-189 19 -142 1 -154 -1 -200 -24 -73 -38 -93 -83 -107 -245 -17 -213 13 -462
82 -677 126 -388 449 -757 772 -885 39 -15 103 -44 142 -63 95 -47 118 -81
156 -236 55 -225 134 -412 238 -566 68 -101 101 -141 190 -232 261 -268 602
-394 965 -358 257 27 456 107 684 279 136 101 241 207 513 518 265 303 361
398 489 483 268 179 564 199 810 55 78 -46 203 -166 258 -248 136 -203 195
-406 207 -714 7 -165 19 -203 76 -236 32 -18 52 -20 210 -20 210 0 238 9 280
91 23 44 25 62 28 198 8 332 -48 598 -183 871 -81 162 -171 289 -302 426 -127
132 -247 218 -428 308 -77 39 -147 76 -155 83 -44 37 -71 93 -115 238 -103
339 -239 568 -472 791 -191 183 -408 299 -644 344 -100 19 -308 27 -407 15z
m363 -706 c191 -51 367 -204 480 -417 103 -193 83 -260 -110 -363 -256 -136
-445 -305 -779 -699 -346 -406 -491 -529 -706 -597 -65 -20 -95 -23 -220 -22
-137 0 -150 2 -239 33 -125 42 -196 87 -273 170 -73 79 -130 186 -159 298 -23
92 -24 142 -3 191 23 56 57 86 182 159 226 134 372 270 718 668 278 321 403
434 564 515 84 41 157 67 228 80 67 13 246 4 317 -16z"/>
</g>
</svg>
