<svg width="24" height="24" viewBox="0 0 24 24" fill="none" xmlns="http://www.w3.org/2000/svg">
<rect width="24" height="24"/>
<path fill-rule="evenodd" clip-rule="evenodd" d="M12 22.5C17.799 22.5 22.5 17.799 22.5 12C22.5 6.20101 17.799 1.5 12 1.5C6.20101 1.5 1.5 6.20101 1.5 12C1.5 17.799 6.20101 22.5 12 22.5ZM12 24C18.6274 24 24 18.6274 24 12C24 5.37258 18.6274 0 12 0C5.37258 0 0 5.37258 0 12C0 18.6274 5.37258 24 12 24ZM9.75 5.53473C7.07559 6.46535 5.15625 9.00854 5.15625 12C5.15625 15.7797 8.2203 18.8438 12 18.8438C15.7797 18.8438 18.8438 15.7797 18.8438 12C18.8438 8.9737 16.8794 6.40617 14.1562 5.50287V7.10915C16.0335 7.938 17.3438 9.816 17.3438 12C17.3438 14.9513 14.9513 17.3438 12 17.3438C9.04873 17.3438 6.65625 14.9513 6.65625 12C6.65625 9.85254 7.92298 8.00093 9.75 7.15163V5.53473ZM11.25 4.125V11.1562H12.75V4.125H11.25Z" fill="#06847B"/>
</svg>
