<svg width="481" height="530" viewBox="0 0 481 530" fill="none" xmlns="http://www.w3.org/2000/svg">
<path d="M30.0469 292.455L238.122 194.67V1L30.0469 98.7853V292.455Z" fill="white" stroke="#33345A" stroke-miterlimit="10" stroke-linecap="round" stroke-linejoin="round"/>
<path d="M140.4 180.228L116.586 173.344L116.582 144.724L140.391 113.724L164.875 120.755L164.878 149.369L140.4 180.228Z" fill="white" stroke="#FE6D76" stroke-width="0.796258"/>
<path d="M140.349 151.339V179.668V151.339Z" fill="white"/>
<path d="M140.349 151.339V179.668" stroke="#FE6D76" stroke-width="0.796258"/>
<path d="M304.352 389.262L1 526.946V327.278L304.352 189.594V389.262Z" stroke="#FE6D76" stroke-width="2"/>
<path d="M339.656 222.526L201.562 291.017V91.3853L339.656 22.8938V222.526Z" stroke="#FE6D76" stroke-width="2"/>
<path d="M277.183 126.025L280.187 124.943V132.876L277.183 133.958V126.025Z" fill="#33345A"/>
<path d="M60.8452 485.506V224.174L392.863 58.0891V319.422L60.8452 485.506Z" fill="white" stroke="#33345A" stroke-width="0.668213" stroke-miterlimit="10" stroke-linecap="round" stroke-linejoin="round"/>
<path d="M340.297 329.252L410.317 362.294L480 329.252L410.317 296.211L340.297 329.252Z" fill="#F1F6F6" stroke="#33345A" stroke-width="0.804356" stroke-miterlimit="10" stroke-linecap="round" stroke-linejoin="round"/>
<path d="M340.281 395.018V329.252L410.301 362.294V428.059L340.281 395.018Z" fill="#F1F6F6" stroke="#33345A" stroke-width="0.804356" stroke-miterlimit="10" stroke-linecap="round" stroke-linejoin="round"/>
<path d="M479.98 395.018L410.297 428.059V362.294L479.98 329.252V395.018Z" fill="#F1F6F6" stroke="#33345A" stroke-width="0.804356" stroke-miterlimit="10" stroke-linecap="round" stroke-linejoin="round"/>
<path d="M370.339 244.624L417.019 266.651L463.474 244.624L417.019 222.596L370.339 244.624Z" fill="#F1F6F6" stroke="#33345A" stroke-width="0.804356" stroke-miterlimit="10" stroke-linecap="round" stroke-linejoin="round"/>
<path d="M370.328 288.467V244.624L417.008 266.651V310.495L370.328 288.467Z" fill="#F1F6F6" stroke="#33345A" stroke-width="0.804356" stroke-miterlimit="10" stroke-linecap="round" stroke-linejoin="round"/>
<path d="M463.461 288.467L417.006 310.495V266.651L463.461 244.624V288.467Z" fill="#F1F6F6" stroke="#33345A" stroke-width="0.804356" stroke-miterlimit="10" stroke-linecap="round" stroke-linejoin="round"/>
<path opacity="0.3" d="M238.502 307.881L238.277 307.434L238.502 307.881ZM270.774 251.626L271.274 251.626V251.626L270.774 251.626ZM220.94 310.193L220.503 309.95L220.202 310.492L220.795 310.672L220.94 310.193ZM264.766 231.371L265.153 231.054L264.687 230.486L264.329 231.128L264.766 231.371ZM215.566 307.493L215.268 307.895L215.726 308.234L216.003 307.736L215.566 307.493ZM260.147 227.313L260.584 227.556L260.817 227.137L260.408 226.887L260.147 227.313ZM206.22 284.045L206.72 284.045L206.22 284.045ZM238.492 227.79L238.717 228.237L238.492 227.79ZM238.502 313.558L238.278 313.111L238.502 313.558ZM276.426 248.788L275.926 248.788L276.426 248.788ZM217.461 316.45L217.316 316.929L217.461 316.45ZM200.568 286.883L201.068 286.883L200.568 286.883ZM236.248 308.371C235.993 308.478 235.874 308.771 235.981 309.026C236.088 309.28 236.381 309.4 236.636 309.292L236.248 308.371ZM232.265 310.757C232.533 310.69 232.697 310.419 232.63 310.151C232.564 309.883 232.292 309.72 232.024 309.787L232.265 310.757ZM227.64 310.459C227.364 310.474 227.153 310.71 227.168 310.986C227.183 311.262 227.419 311.473 227.695 311.458L227.64 310.459ZM223.062 311.205C223.334 311.252 223.593 311.069 223.639 310.797C223.686 310.525 223.503 310.266 223.231 310.219L223.062 311.205ZM222.594 308.247C222.729 308.005 222.642 307.701 222.4 307.567C222.159 307.432 221.855 307.519 221.72 307.761L222.594 308.247ZM224.155 303.382C224.021 303.623 224.108 303.927 224.349 304.062C224.591 304.196 224.895 304.109 225.029 303.868L224.155 303.382ZM227.464 299.489C227.598 299.247 227.511 298.943 227.27 298.809C227.029 298.674 226.724 298.761 226.59 299.003L227.464 299.489ZM229.025 294.624C228.891 294.865 228.978 295.169 229.219 295.304C229.46 295.438 229.765 295.351 229.899 295.11L229.025 294.624ZM232.334 290.731C232.468 290.489 232.381 290.185 232.14 290.051C231.898 289.916 231.594 290.003 231.46 290.245L232.334 290.731ZM233.894 285.866C233.76 286.107 233.847 286.411 234.088 286.546C234.33 286.68 234.634 286.593 234.768 286.352L233.894 285.866ZM237.203 281.973C237.337 281.731 237.251 281.427 237.009 281.293C236.768 281.158 236.463 281.245 236.329 281.487L237.203 281.973ZM238.764 277.108C238.63 277.349 238.717 277.653 238.958 277.788C239.199 277.922 239.504 277.835 239.638 277.594L238.764 277.108ZM242.073 273.215C242.207 272.973 242.12 272.669 241.879 272.535C241.637 272.4 241.333 272.487 241.199 272.729L242.073 273.215ZM243.634 268.35C243.499 268.591 243.586 268.895 243.828 269.03C244.069 269.164 244.373 269.077 244.508 268.836L243.634 268.35ZM246.942 264.456C247.077 264.215 246.99 263.911 246.748 263.777C246.507 263.642 246.203 263.729 246.068 263.971L246.942 264.456ZM248.503 259.592C248.369 259.833 248.456 260.137 248.697 260.272C248.939 260.406 249.243 260.319 249.377 260.077L248.503 259.592ZM251.812 255.698C251.946 255.457 251.859 255.153 251.618 255.019C251.377 254.884 251.072 254.971 250.938 255.213L251.812 255.698ZM253.373 250.834C253.239 251.075 253.326 251.379 253.567 251.513C253.808 251.648 254.113 251.561 254.247 251.319L253.373 250.834ZM256.682 246.94C256.816 246.699 256.729 246.395 256.488 246.26C256.246 246.126 255.942 246.213 255.808 246.455L256.682 246.94ZM258.242 242.076C258.108 242.317 258.195 242.621 258.436 242.755C258.678 242.89 258.982 242.803 259.116 242.561L258.242 242.076ZM261.551 238.182C261.685 237.941 261.599 237.637 261.357 237.502C261.116 237.368 260.811 237.455 260.677 237.697L261.551 238.182ZM263.112 233.317C262.978 233.559 263.065 233.863 263.306 233.997C263.547 234.132 263.852 234.045 263.986 233.803L263.112 233.317ZM265.913 233.822C266.06 234.056 266.369 234.126 266.603 233.979C266.836 233.832 266.907 233.523 266.76 233.29L265.913 233.822ZM269.147 238.223C269.053 237.964 268.766 237.83 268.506 237.924C268.247 238.019 268.113 238.306 268.207 238.565L269.147 238.223ZM269.584 243.68C269.634 243.951 269.895 244.13 270.167 244.08C270.438 244.029 270.617 243.768 270.567 243.497L269.584 243.68ZM271.201 248.906C271.186 248.63 270.95 248.419 270.675 248.434C270.399 248.449 270.188 248.685 270.203 248.961L271.201 248.906ZM270.22 254.021C270.207 254.297 270.421 254.531 270.697 254.543C270.973 254.556 271.206 254.342 271.219 254.067L270.22 254.021ZM270.789 258.926C270.825 258.653 270.632 258.402 270.358 258.366C270.084 258.33 269.833 258.523 269.797 258.797L270.789 258.926ZM268.987 263.526C268.93 263.796 269.103 264.062 269.373 264.119C269.643 264.176 269.909 264.003 269.966 263.733L268.987 263.526ZM268.784 268.461C268.86 268.196 268.707 267.919 268.442 267.842C268.177 267.766 267.899 267.919 267.823 268.184L268.784 268.461ZM266.332 272.75C266.238 273.01 266.371 273.297 266.631 273.391C266.89 273.486 267.177 273.352 267.272 273.093L266.332 272.75ZM265.454 277.611C265.565 277.359 265.45 277.063 265.198 276.952C264.945 276.841 264.65 276.955 264.539 277.208L265.454 277.611ZM262.459 281.54C262.331 281.785 262.427 282.087 262.672 282.215C262.916 282.342 263.218 282.247 263.346 282.002L262.459 281.54ZM260.961 286.248C261.104 286.012 261.028 285.705 260.792 285.562C260.556 285.419 260.248 285.495 260.105 285.731L260.961 286.248ZM257.486 289.759C257.328 289.986 257.383 290.298 257.61 290.456C257.836 290.614 258.148 290.558 258.306 290.332L257.486 289.759ZM255.384 294.229C255.557 294.014 255.523 293.699 255.308 293.526C255.093 293.352 254.778 293.386 254.605 293.601L255.384 294.229ZM251.458 297.227C251.27 297.429 251.28 297.745 251.482 297.934C251.683 298.123 252 298.112 252.188 297.911L251.458 297.227ZM248.713 301.336C248.918 301.151 248.933 300.835 248.748 300.63C248.562 300.425 248.246 300.41 248.042 300.595L248.713 301.336ZM244.351 303.643C244.13 303.809 244.084 304.122 244.25 304.343C244.415 304.564 244.728 304.61 244.949 304.444L244.351 303.643ZM240.876 307.158C241.114 307.018 241.194 306.712 241.054 306.474C240.915 306.236 240.608 306.156 240.37 306.295L240.876 307.158ZM214.239 305.729C214.039 305.539 213.722 305.548 213.533 305.749C213.343 305.95 213.352 306.266 213.552 306.456L214.239 305.729ZM210.671 303.05C210.826 303.278 211.137 303.338 211.365 303.183C211.594 303.028 211.653 302.717 211.498 302.488L210.671 303.05ZM209.445 298.75C209.334 298.497 209.039 298.382 208.786 298.493C208.533 298.605 208.418 298.9 208.53 299.152L209.445 298.75ZM207.063 294.97C207.136 295.237 207.41 295.394 207.677 295.322C207.943 295.249 208.101 294.974 208.028 294.708L207.063 294.97ZM207.164 290.497C207.124 290.224 206.87 290.035 206.597 290.074C206.324 290.114 206.134 290.368 206.174 290.641L207.164 290.497ZM205.767 286.248C205.779 286.524 206.013 286.738 206.289 286.726C206.565 286.714 206.778 286.48 206.766 286.204L205.767 286.248ZM206.774 281.65C206.786 281.374 206.573 281.14 206.297 281.128C206.021 281.115 205.787 281.329 205.775 281.605L206.774 281.65ZM206.205 276.745C206.169 277.018 206.362 277.269 206.636 277.305C206.91 277.341 207.161 277.148 207.196 276.874L206.205 276.745ZM208.007 272.145C208.064 271.875 207.891 271.61 207.621 271.552C207.351 271.495 207.085 271.668 207.028 271.938L208.007 272.145ZM208.21 267.21C208.134 267.475 208.287 267.752 208.552 267.829C208.817 267.905 209.094 267.752 209.171 267.487L208.21 267.21ZM210.662 262.921C210.756 262.661 210.622 262.374 210.363 262.28C210.104 262.185 209.817 262.319 209.722 262.578L210.662 262.921ZM211.54 258.06C211.429 258.313 211.543 258.608 211.796 258.719C212.049 258.831 212.344 258.716 212.455 258.463L211.54 258.06ZM214.535 254.131C214.663 253.886 214.567 253.584 214.322 253.456C214.077 253.329 213.775 253.424 213.648 253.669L214.535 254.131ZM216.033 249.423C215.89 249.659 215.966 249.966 216.202 250.109C216.438 250.252 216.746 250.177 216.889 249.94L216.033 249.423ZM219.508 245.912C219.666 245.685 219.611 245.374 219.384 245.215C219.158 245.057 218.846 245.113 218.688 245.339L219.508 245.912ZM221.61 241.443C221.437 241.658 221.471 241.972 221.686 242.146C221.901 242.319 222.216 242.285 222.389 242.07L221.61 241.443ZM225.536 238.444C225.724 238.242 225.714 237.926 225.512 237.737C225.311 237.548 224.994 237.559 224.806 237.76L225.536 238.444ZM228.281 234.335C228.076 234.52 228.061 234.836 228.246 235.041C228.432 235.246 228.748 235.261 228.952 235.076L228.281 234.335ZM232.643 232.028C232.864 231.862 232.91 231.549 232.744 231.328C232.579 231.107 232.266 231.062 232.044 231.227L232.643 232.028ZM236.118 228.513C235.88 228.653 235.8 228.959 235.94 229.197C236.079 229.435 236.385 229.515 236.624 229.376L236.118 228.513ZM241.259 227.09C241.515 226.987 241.64 226.696 241.537 226.44C241.434 226.184 241.143 226.059 240.887 226.162L241.259 227.09ZM246.41 224.554C246.138 224.603 245.957 224.863 246.006 225.135C246.055 225.406 246.315 225.587 246.587 225.538L246.41 224.554ZM252.096 225.243C252.371 225.265 252.612 225.06 252.634 224.785C252.656 224.509 252.451 224.268 252.176 224.246L252.096 225.243ZM257.814 225.572C257.558 225.467 257.266 225.59 257.162 225.846C257.058 226.101 257.18 226.393 257.436 226.498L257.814 225.572ZM258.472 229.297C258.337 229.538 258.424 229.843 258.666 229.977C258.907 230.111 259.211 230.024 259.346 229.783L258.472 229.297ZM256.869 234.237C257.003 233.996 256.916 233.692 256.675 233.558C256.434 233.423 256.129 233.51 255.995 233.752L256.869 234.237ZM253.518 238.206C253.384 238.447 253.471 238.752 253.712 238.886C253.954 239.02 254.258 238.933 254.392 238.692L253.518 238.206ZM251.915 243.146C252.05 242.905 251.963 242.601 251.721 242.466C251.48 242.332 251.176 242.419 251.041 242.66L251.915 243.146ZM248.565 247.115C248.431 247.356 248.517 247.661 248.759 247.795C249 247.929 249.304 247.842 249.439 247.601L248.565 247.115ZM246.962 252.055C247.096 251.814 247.009 251.509 246.768 251.375C246.527 251.241 246.222 251.328 246.088 251.569L246.962 252.055ZM243.611 256.024C243.477 256.265 243.564 256.57 243.805 256.704C244.047 256.838 244.351 256.751 244.485 256.51L243.611 256.024ZM242.008 260.964C242.143 260.723 242.056 260.418 241.814 260.284C241.573 260.15 241.269 260.237 241.134 260.478L242.008 260.964ZM238.658 264.933C238.524 265.174 238.61 265.478 238.852 265.613C239.093 265.747 239.397 265.66 239.532 265.419L238.658 264.933ZM237.055 269.873C237.189 269.632 237.102 269.327 236.861 269.193C236.62 269.059 236.315 269.146 236.181 269.387L237.055 269.873ZM233.704 273.842C233.57 274.083 233.657 274.387 233.898 274.522C234.14 274.656 234.444 274.569 234.578 274.327L233.704 273.842ZM232.101 278.782C232.236 278.541 232.149 278.236 231.907 278.102C231.666 277.968 231.362 278.055 231.227 278.296L232.101 278.782ZM228.751 282.75C228.617 282.992 228.703 283.296 228.945 283.43C229.186 283.565 229.491 283.478 229.625 283.236L228.751 282.75ZM227.148 287.691C227.282 287.449 227.195 287.145 226.954 287.011C226.713 286.877 226.408 286.964 226.274 287.205L227.148 287.691ZM223.797 291.659C223.663 291.901 223.75 292.205 223.991 292.339C224.233 292.473 224.537 292.387 224.671 292.145L223.797 291.659ZM222.194 296.6C222.329 296.358 222.242 296.054 222 295.92C221.759 295.786 221.455 295.872 221.32 296.114L222.194 296.6ZM218.844 300.568C218.71 300.81 218.796 301.114 219.038 301.248C219.279 301.382 219.584 301.296 219.718 301.054L218.844 300.568ZM217.241 305.509C217.375 305.267 217.288 304.963 217.047 304.829C216.806 304.694 216.501 304.781 216.367 305.023L217.241 305.509ZM235.838 314.242C235.584 314.35 235.466 314.644 235.574 314.898C235.682 315.152 235.975 315.271 236.229 315.163L235.838 314.242ZM231.015 316.944C231.283 316.875 231.444 316.603 231.375 316.335C231.307 316.068 231.034 315.906 230.767 315.975L231.015 316.944ZM225.498 316.83C225.222 316.847 225.013 317.085 225.03 317.36C225.048 317.636 225.285 317.845 225.561 317.828L225.498 316.83ZM220.025 317.562C220.297 317.607 220.555 317.423 220.601 317.151C220.646 316.879 220.462 316.621 220.19 316.575L220.025 317.562ZM215.513 315.208C215.26 315.099 214.966 315.216 214.856 315.47C214.747 315.723 214.864 316.017 215.118 316.126L215.513 315.208ZM211.063 313.807C211.286 313.97 211.598 313.922 211.762 313.699C211.925 313.476 211.877 313.163 211.654 313L211.063 313.807ZM208.366 309.996C208.183 309.79 207.867 309.771 207.66 309.954C207.454 310.137 207.435 310.453 207.618 310.66L208.366 309.996ZM204.875 306.898C205.016 307.135 205.323 307.212 205.56 307.071C205.797 306.929 205.875 306.622 205.733 306.385L204.875 306.898ZM203.752 302.361C203.649 302.104 203.358 301.98 203.102 302.082C202.846 302.185 202.721 302.476 202.823 302.732L203.752 302.361ZM201.4 298.326C201.468 298.594 201.74 298.756 202.008 298.688C202.275 298.62 202.437 298.348 202.37 298.08L201.4 298.326ZM201.514 293.65C201.476 293.377 201.224 293.185 200.95 293.223C200.677 293.261 200.485 293.513 200.523 293.787L201.514 293.65ZM200.116 289.192C200.128 289.468 200.361 289.682 200.637 289.67C200.913 289.659 201.127 289.425 201.116 289.15L200.116 289.192ZM201.12 284.455C201.131 284.179 200.917 283.946 200.641 283.934C200.365 283.923 200.132 284.137 200.121 284.413L201.12 284.455ZM200.526 279.491C200.493 279.765 200.688 280.014 200.962 280.047C201.236 280.08 201.485 279.885 201.519 279.611L200.526 279.491ZM202.28 274.807C202.333 274.536 202.156 274.273 201.885 274.22C201.614 274.168 201.351 274.345 201.298 274.616L202.28 274.807ZM202.403 269.808C202.333 270.075 202.492 270.348 202.759 270.419C203.026 270.489 203.299 270.33 203.37 270.063L202.403 269.808ZM204.761 265.397C204.848 265.135 204.707 264.852 204.444 264.765C204.182 264.678 203.899 264.82 203.812 265.082L204.761 265.397ZM205.504 260.452C205.401 260.708 205.526 260.999 205.783 261.102C206.039 261.204 206.33 261.079 206.433 260.822L205.504 260.452ZM208.367 256.351C208.483 256.101 208.375 255.803 208.125 255.687C207.875 255.57 207.577 255.678 207.46 255.928L208.367 256.351ZM209.67 251.522C209.539 251.766 209.631 252.069 209.874 252.2C210.117 252.33 210.42 252.239 210.551 251.996L209.67 251.522ZM212.977 247.77C213.121 247.535 213.047 247.227 212.812 247.083C212.576 246.938 212.268 247.012 212.124 247.248L212.977 247.77ZM214.818 243.119C214.66 243.346 214.716 243.658 214.943 243.815C215.17 243.973 215.482 243.917 215.639 243.69L214.818 243.119ZM218.535 239.773C218.706 239.556 218.669 239.242 218.452 239.071C218.235 238.9 217.92 238.938 217.749 239.155L218.535 239.773ZM220.92 235.377C220.736 235.583 220.754 235.899 220.959 236.083C221.165 236.267 221.481 236.25 221.665 236.044L220.92 235.377ZM225.032 232.531C225.23 232.338 225.234 232.021 225.042 231.824C224.849 231.626 224.532 231.621 224.334 231.814L225.032 232.531ZM227.997 228.503C227.785 228.68 227.757 228.995 227.934 229.207C228.112 229.419 228.427 229.447 228.639 229.269L227.997 228.503ZM232.488 226.307C232.714 226.149 232.768 225.837 232.61 225.611C232.451 225.385 232.139 225.331 231.913 225.49L232.488 226.307ZM236.086 222.835C235.846 222.972 235.762 223.277 235.899 223.517C236.035 223.757 236.341 223.841 236.581 223.704L236.086 222.835ZM240.895 221.541C241.148 221.431 241.264 221.137 241.155 220.883C241.045 220.63 240.75 220.513 240.497 220.623L240.895 221.541ZM245.132 218.957C244.866 219.032 244.712 219.309 244.788 219.574C244.863 219.84 245.14 219.994 245.406 219.918L245.132 218.957ZM250.08 218.97C250.354 218.938 250.55 218.689 250.518 218.415C250.485 218.141 250.237 217.945 249.963 217.977L250.08 218.97ZM254.907 217.86C254.632 217.839 254.392 218.046 254.371 218.321C254.35 218.596 254.556 218.836 254.832 218.857L254.907 217.86ZM259.488 219.73C259.752 219.812 260.032 219.664 260.114 219.4C260.195 219.136 260.047 218.856 259.783 218.775L259.488 219.73ZM264.321 220.796C264.084 220.654 263.777 220.731 263.635 220.968C263.493 221.205 263.57 221.512 263.807 221.654L264.321 220.796ZM267.551 224.546C267.749 224.739 268.065 224.735 268.258 224.537C268.451 224.34 268.447 224.023 268.25 223.83L267.551 224.546ZM271.408 227.648C271.254 227.419 270.944 227.357 270.714 227.511C270.485 227.664 270.423 227.975 270.576 228.204L271.408 227.648ZM272.855 232.387C272.966 232.64 273.261 232.755 273.514 232.644C273.766 232.533 273.881 232.238 273.77 231.985L272.855 232.387ZM275.405 236.63C275.332 236.364 275.057 236.207 274.791 236.28C274.524 236.353 274.368 236.628 274.441 236.895L275.405 236.63ZM275.419 241.59C275.459 241.864 275.713 242.052 275.986 242.012C276.26 241.972 276.448 241.718 276.408 241.444L275.419 241.59ZM276.871 246.335C276.859 246.059 276.625 245.846 276.349 245.858C276.073 245.871 275.86 246.104 275.872 246.38L276.871 246.335ZM275.874 251.216C275.862 251.492 276.077 251.725 276.353 251.737C276.628 251.749 276.862 251.534 276.873 251.258L275.874 251.216ZM276.468 256.18C276.501 255.906 276.306 255.657 276.032 255.624C275.758 255.591 275.508 255.786 275.475 256.06L276.468 256.18ZM274.714 260.864C274.661 261.135 274.838 261.398 275.109 261.451C275.38 261.503 275.643 261.326 275.696 261.055L274.714 260.864ZM274.591 265.863C274.661 265.596 274.502 265.323 274.235 265.252C273.968 265.182 273.695 265.341 273.624 265.608L274.591 265.863ZM272.232 270.274C272.145 270.536 272.287 270.819 272.549 270.906C272.812 270.993 273.095 270.851 273.182 270.589L272.232 270.274ZM271.49 275.219C271.592 274.963 271.467 274.672 271.211 274.569C270.954 274.467 270.664 274.592 270.561 274.849L271.49 275.219ZM268.627 279.32C268.51 279.57 268.619 279.868 268.869 279.985C269.119 280.101 269.417 279.993 269.533 279.743L268.627 279.32ZM267.324 284.149C267.455 283.905 267.363 283.602 267.12 283.472C266.877 283.341 266.574 283.432 266.443 283.675L267.324 284.149ZM264.017 287.901C263.873 288.137 263.947 288.444 264.182 288.589C264.418 288.733 264.726 288.659 264.87 288.423L264.017 287.901ZM262.176 292.552C262.334 292.325 262.277 292.013 262.051 291.856C261.824 291.698 261.512 291.755 261.355 291.981L262.176 292.552ZM258.459 295.898C258.288 296.115 258.325 296.429 258.542 296.6C258.759 296.771 259.074 296.733 259.244 296.516L258.459 295.898ZM256.073 300.294C256.258 300.088 256.24 299.772 256.034 299.588C255.829 299.404 255.513 299.421 255.328 299.627L256.073 300.294ZM251.962 303.14C251.764 303.333 251.76 303.65 251.952 303.848C252.145 304.045 252.462 304.05 252.659 303.857L251.962 303.14ZM248.997 307.168C249.209 306.991 249.237 306.676 249.06 306.464C248.882 306.252 248.567 306.224 248.355 306.402L248.997 307.168ZM244.506 309.364C244.28 309.523 244.225 309.834 244.384 310.06C244.543 310.286 244.855 310.34 245.081 310.182L244.506 309.364ZM240.908 312.836C241.148 312.699 241.232 312.394 241.095 312.154C240.958 311.914 240.653 311.83 240.413 311.967L240.908 312.836ZM238.277 307.434C237.597 307.775 236.921 308.087 236.248 308.371L236.636 309.292C237.33 309 238.027 308.679 238.726 308.328L238.277 307.434ZM232.024 309.787C230.528 310.158 229.063 310.381 227.64 310.459L227.695 311.458C229.184 311.376 230.712 311.143 232.265 310.757L232.024 309.787ZM223.231 310.219C222.499 310.094 221.783 309.926 221.085 309.715L220.795 310.672C221.534 310.895 222.29 311.073 223.062 311.205L223.231 310.219ZM221.377 310.436L222.594 308.247L221.72 307.761L220.503 309.95L221.377 310.436ZM225.029 303.868L227.464 299.489L226.59 299.003L224.155 303.382L225.029 303.868ZM229.899 295.11L232.334 290.731L231.46 290.245L229.025 294.624L229.899 295.11ZM234.768 286.352L237.203 281.973L236.329 281.487L233.894 285.866L234.768 286.352ZM239.638 277.594L242.073 273.215L241.199 272.729L238.764 277.108L239.638 277.594ZM244.508 268.836L246.942 264.456L246.068 263.971L243.634 268.35L244.508 268.836ZM249.377 260.077L251.812 255.698L250.938 255.213L248.503 259.592L249.377 260.077ZM254.247 251.319L256.682 246.94L255.808 246.455L253.373 250.834L254.247 251.319ZM259.116 242.561L261.551 238.182L260.677 237.697L258.242 242.076L259.116 242.561ZM263.986 233.803L265.203 231.614L264.329 231.128L263.112 233.317L263.986 233.803ZM264.38 231.688C264.923 232.35 265.435 233.061 265.913 233.822L266.76 233.29C266.26 232.495 265.724 231.749 265.153 231.054L264.38 231.688ZM268.207 238.565C268.779 240.136 269.242 241.842 269.584 243.68L270.567 243.497C270.216 241.609 269.739 239.85 269.147 238.223L268.207 238.565ZM270.203 248.961C270.25 249.827 270.274 250.715 270.274 251.626L271.274 251.626C271.274 250.698 271.25 249.791 271.201 248.906L270.203 248.961ZM270.274 251.626C270.274 252.423 270.256 253.221 270.22 254.021L271.219 254.067C271.256 253.252 271.274 252.438 271.274 251.626L270.274 251.626ZM269.797 258.797C269.591 260.376 269.319 261.954 268.987 263.526L269.966 263.733C270.303 262.137 270.579 260.533 270.789 258.926L269.797 258.797ZM267.823 268.184C267.38 269.72 266.881 271.244 266.332 272.75L267.272 273.093C267.829 271.566 268.334 270.02 268.784 268.461L267.823 268.184ZM264.539 277.208C263.89 278.677 263.196 280.123 262.459 281.54L263.346 282.002C264.093 280.566 264.797 279.1 265.454 277.611L264.539 277.208ZM260.105 285.731C259.27 287.112 258.396 288.457 257.486 289.759L258.306 290.332C259.228 289.011 260.115 287.648 260.961 286.248L260.105 285.731ZM254.605 293.601C253.587 294.865 252.536 296.076 251.458 297.227L252.188 297.911C253.284 296.74 254.351 295.511 255.384 294.229L254.605 293.601ZM248.042 300.595C246.834 301.69 245.601 302.708 244.351 303.643L244.949 304.444C246.227 303.489 247.483 302.451 248.713 301.336L248.042 300.595ZM240.37 306.295C239.675 306.702 238.977 307.082 238.277 307.434L238.726 308.328C239.446 307.966 240.163 307.576 240.876 307.158L240.37 306.295ZM215.863 307.091C215.301 306.675 214.759 306.221 214.239 305.729L213.552 306.456C214.101 306.974 214.674 307.454 215.268 307.895L215.863 307.091ZM211.498 302.488C210.732 301.359 210.044 300.113 209.445 298.75L208.53 299.152C209.152 300.567 209.868 301.868 210.671 303.05L211.498 302.488ZM208.028 294.708C207.669 293.385 207.378 291.981 207.164 290.497L206.174 290.641C206.394 292.162 206.692 293.606 207.063 294.97L208.028 294.708ZM206.766 286.204C206.735 285.499 206.72 284.779 206.72 284.045L205.72 284.045C205.72 284.794 205.736 285.528 205.767 286.248L206.766 286.204ZM206.72 284.045C206.719 283.248 206.738 282.45 206.774 281.65L205.775 281.605C205.738 282.419 205.719 283.233 205.72 284.045L206.72 284.045ZM207.196 276.874C207.403 275.295 207.675 273.717 208.007 272.145L207.028 271.938C206.691 273.535 206.415 275.139 206.205 276.745L207.196 276.874ZM209.171 267.487C209.614 265.951 210.113 264.427 210.662 262.921L209.722 262.578C209.165 264.105 208.66 265.651 208.21 267.21L209.171 267.487ZM212.455 258.463C213.103 256.994 213.798 255.548 214.535 254.131L213.648 253.669C212.901 255.105 212.197 256.571 211.54 258.06L212.455 258.463ZM216.889 249.94C217.724 248.559 218.598 247.214 219.508 245.912L218.688 245.339C217.766 246.66 216.879 248.023 216.033 249.423L216.889 249.94ZM222.389 242.07C223.407 240.806 224.458 239.595 225.536 238.444L224.806 237.76C223.71 238.931 222.643 240.16 221.61 241.443L222.389 242.07ZM228.952 235.076C230.16 233.981 231.392 232.963 232.643 232.028L232.044 231.227C230.767 232.182 229.511 233.22 228.281 234.335L228.952 235.076ZM236.624 229.376C237.318 228.969 238.016 228.589 238.717 228.237L238.268 227.344C237.548 227.705 236.831 228.095 236.118 228.513L236.624 229.376ZM238.717 228.237C239.569 227.809 240.417 227.427 241.259 227.09L240.887 226.162C240.018 226.509 239.145 226.903 238.268 227.344L238.717 228.237ZM246.587 225.538C248.49 225.197 250.334 225.102 252.096 225.243L252.176 224.246C250.322 224.097 248.392 224.199 246.41 224.554L246.587 225.538ZM257.436 226.498C258.284 226.844 259.102 227.258 259.886 227.739L260.408 226.887C259.578 226.378 258.712 225.939 257.814 225.572L257.436 226.498ZM259.71 227.07L258.472 229.297L259.346 229.783L260.584 227.556L259.71 227.07ZM255.995 233.752L253.518 238.206L254.392 238.692L256.869 234.237L255.995 233.752ZM251.041 242.66L248.565 247.115L249.439 247.601L251.915 243.146L251.041 242.66ZM246.088 251.569L243.611 256.024L244.485 256.51L246.962 252.055L246.088 251.569ZM241.134 260.478L238.658 264.933L239.532 265.419L242.008 260.964L241.134 260.478ZM236.181 269.387L233.704 273.842L234.578 274.327L237.055 269.873L236.181 269.387ZM231.227 278.296L228.751 282.75L229.625 283.236L232.101 278.782L231.227 278.296ZM226.274 287.205L223.797 291.659L224.671 292.145L227.148 287.691L226.274 287.205ZM221.32 296.114L218.844 300.568L219.718 301.054L222.194 296.6L221.32 296.114ZM216.367 305.023L215.129 307.25L216.003 307.736L217.241 305.509L216.367 305.023ZM238.278 313.111C237.458 313.523 236.644 313.9 235.838 314.242L236.229 315.163C237.055 314.812 237.888 314.426 238.727 314.005L238.278 313.111ZM230.767 315.975C228.956 316.44 227.196 316.722 225.498 316.83L225.561 317.828C227.326 317.716 229.148 317.423 231.015 316.944L230.767 315.975ZM220.19 316.575C219.305 316.427 218.443 316.225 217.606 315.972L217.316 316.929C218.195 317.195 219.099 317.406 220.025 317.562L220.19 316.575ZM217.606 315.972C216.89 315.755 216.192 315.5 215.513 315.208L215.118 316.126C215.832 316.433 216.565 316.701 217.316 316.929L217.606 315.972ZM211.654 313C210.474 312.136 209.375 311.133 208.366 309.996L207.618 310.66C208.673 311.848 209.824 312.899 211.063 313.807L211.654 313ZM205.733 306.385C204.991 305.145 204.329 303.802 203.752 302.361L202.823 302.732C203.419 304.22 204.105 305.611 204.875 306.898L205.733 306.385ZM202.37 298.08C202.013 296.674 201.727 295.196 201.514 293.65L200.523 293.787C200.741 295.368 201.034 296.882 201.4 298.326L202.37 298.08ZM201.116 289.15C201.084 288.407 201.068 287.651 201.068 286.883L200.068 286.883C200.068 287.665 200.084 288.435 200.116 289.192L201.116 289.15ZM201.068 286.883C201.068 286.077 201.085 285.268 201.12 284.455L200.121 284.413C200.086 285.239 200.068 286.063 200.068 286.883L201.068 286.883ZM201.519 279.611C201.712 278.015 201.967 276.411 202.28 274.807L201.298 274.616C200.981 276.243 200.723 277.87 200.526 279.491L201.519 279.611ZM203.37 270.063C203.783 268.502 204.248 266.945 204.761 265.397L203.812 265.082C203.292 266.649 202.821 268.226 202.403 269.808L203.37 270.063ZM206.433 260.822C207.033 259.317 207.679 257.825 208.367 256.351L207.46 255.928C206.765 257.419 206.111 258.928 205.504 260.452L206.433 260.822ZM210.551 251.996C211.321 250.562 212.131 249.152 212.977 247.77L212.124 247.248C211.268 248.646 210.449 250.072 209.67 251.522L210.551 251.996ZM215.639 243.69C216.571 242.348 217.537 241.041 218.535 239.773L217.749 239.155C216.739 240.439 215.761 241.762 214.818 243.119L215.639 243.69ZM221.665 236.044C222.758 234.824 223.882 233.651 225.032 232.531L224.334 231.814C223.167 232.951 222.028 234.14 220.92 235.377L221.665 236.044ZM228.639 229.269C229.897 228.216 231.182 227.227 232.488 226.307L231.913 225.49C230.582 226.425 229.276 227.432 227.997 228.503L228.639 229.269ZM236.581 223.704C237.288 223.301 238 222.92 238.716 222.56L238.267 221.666C237.535 222.034 236.807 222.424 236.086 222.835L236.581 223.704ZM238.716 222.56C239.448 222.192 240.174 221.853 240.895 221.541L240.497 220.623C239.759 220.943 239.015 221.291 238.267 221.666L238.716 222.56ZM245.406 219.918C247.004 219.463 248.564 219.149 250.08 218.97L249.963 217.977C248.391 218.163 246.778 218.488 245.132 218.957L245.406 219.918ZM254.832 218.857C256.455 218.98 258.01 219.274 259.488 219.73L259.783 218.775C258.232 218.296 256.602 217.989 254.907 217.86L254.832 218.857ZM263.807 221.654C265.148 222.457 266.4 223.423 267.551 224.546L268.25 223.83C267.044 222.654 265.731 221.64 264.321 220.796L263.807 221.654ZM270.576 228.204C271.429 229.478 272.191 230.874 272.855 232.387L273.77 231.985C273.084 230.422 272.294 228.974 271.408 227.648L270.576 228.204ZM274.441 236.895C274.848 238.378 275.176 239.945 275.419 241.59L276.408 241.444C276.159 239.761 275.823 238.155 275.405 236.63L274.441 236.895ZM275.872 246.38C275.908 247.168 275.926 247.971 275.926 248.788L276.926 248.788C276.926 247.956 276.907 247.138 276.871 246.335L275.872 246.38ZM275.926 248.788C275.926 249.594 275.909 250.403 275.874 251.216L276.873 251.258C276.908 250.432 276.926 249.608 276.926 248.788L275.926 248.788ZM275.475 256.06C275.281 257.656 275.027 259.26 274.714 260.864L275.696 261.055C276.013 259.428 276.271 257.801 276.468 256.18L275.475 256.06ZM273.624 265.608C273.211 267.169 272.746 268.726 272.232 270.274L273.182 270.589C273.702 269.022 274.173 267.445 274.591 265.863L273.624 265.608ZM270.561 274.849C269.961 276.354 269.315 277.846 268.627 279.32L269.533 279.743C270.229 278.252 270.882 276.743 271.49 275.219L270.561 274.849ZM266.443 283.675C265.673 285.109 264.863 286.519 264.017 287.901L264.87 288.423C265.726 287.025 266.545 285.599 267.324 284.149L266.443 283.675ZM261.355 291.981C260.423 293.323 259.457 294.63 258.459 295.898L259.244 296.516C260.255 295.232 261.233 293.909 262.176 292.552L261.355 291.981ZM255.328 299.627C254.236 300.847 253.112 302.02 251.962 303.14L252.659 303.857C253.827 302.72 254.966 301.531 256.073 300.294L255.328 299.627ZM248.355 306.402C247.097 307.455 245.812 308.445 244.506 309.364L245.081 310.182C246.411 309.246 247.718 308.239 248.997 307.168L248.355 306.402ZM240.413 311.967C239.706 312.37 238.994 312.751 238.278 313.111L238.727 314.005C239.459 313.637 240.187 313.247 240.908 312.836L240.413 311.967Z" fill="#3D3D3D"/>
<path fill-rule="evenodd" clip-rule="evenodd" d="M300.816 263.442C300.819 286.572 285.449 311.207 268.544 319.697C262.237 322.864 256.144 323.57 250.982 322.009L294.808 243.187C298.552 247.747 300.815 254.569 300.816 263.442ZM290.189 239.129L245.607 319.309C239.911 315.088 236.263 307.128 236.262 295.861C236.259 272.732 251.629 248.096 268.534 239.607C276.603 235.555 284.323 235.531 290.189 239.129ZM247.503 328.266C253.524 330.091 260.761 329.283 268.544 325.374C289.492 314.855 306.471 285.856 306.468 260.604C306.465 235.352 289.481 223.41 268.534 233.929C247.586 244.449 230.607 273.448 230.61 298.699C230.612 314.568 237.32 325.181 247.503 328.266Z" fill="#FE6D76"/>
<path d="M81.2297 225.905L408.638 62.201V75.9073L81.2297 239.526V225.905Z" fill="white" stroke="#010101" stroke-width="0.668213" stroke-miterlimit="10"/>
<path d="M90.3972 230.359C91.4252 229.074 91.5965 227.532 90.8256 226.932C90.0546 226.332 88.5983 226.846 87.656 228.131C86.628 229.416 86.4567 230.958 87.2277 231.558C87.9986 232.243 89.4549 231.644 90.3972 230.359Z" fill="white" stroke="#33345A" stroke-width="0.668213" stroke-miterlimit="10" stroke-linecap="round" stroke-linejoin="round"/>
<path d="M99.5606 225.733C100.589 224.448 100.76 222.906 99.9889 222.306C99.2179 221.707 97.7616 222.221 96.8193 223.505C95.7914 224.79 95.62 226.332 96.391 226.932C97.162 227.532 98.6183 227.018 99.5606 225.733Z" fill="white" stroke="#33345A" stroke-width="0.668213" stroke-miterlimit="10" stroke-linecap="round" stroke-linejoin="round"/>
<path d="M108.727 221.021C109.755 219.736 109.927 218.195 109.156 217.595C108.385 216.995 106.928 217.509 105.986 218.794C104.958 220.079 104.787 221.621 105.558 222.221C106.329 222.906 107.785 222.306 108.727 221.021Z" fill="white" stroke="#33345A" stroke-width="0.668213" stroke-miterlimit="10" stroke-linecap="round" stroke-linejoin="round"/>
<path d="M100.508 337.525L169.881 300.364C171.15 299.768 172.641 299.842 173.835 300.587C175.028 301.332 175.774 302.672 175.774 304.013V488.853C175.774 490.417 174.879 491.757 173.536 492.427L104.313 527.876C103.716 528.174 103.119 528.323 102.522 528.323C101.777 528.323 101.031 528.099 100.434 527.727C99.2403 526.982 98.4943 525.716 98.4943 524.301L98.4198 341.249C98.2706 339.611 99.1658 338.196 100.508 337.525Z" fill="white" stroke="#28244A" stroke-width="1.4" stroke-miterlimit="10" stroke-linecap="round" stroke-linejoin="round"/>
<path d="M106.04 525.879V340.216L176.77 303.304L175.277 490.083L106.04 525.879Z" fill="#FE6D76" stroke="#28244A"/>
<path d="M157.092 385.411C157.093 393.404 151.749 402.263 145.498 405.402C139.246 408.541 133.901 405.051 133.9 397.058C133.899 389.064 139.243 380.205 145.494 377.066C151.745 373.927 157.091 377.417 157.092 385.411Z" stroke="white" stroke-width="2"/>
<path d="M153.99 377.713L137.84 405.882" stroke="white" stroke-width="2"/>
<path d="M111.174 351.046L116.432 348.793" stroke="#33345A" stroke-width="2" stroke-linecap="round" stroke-linejoin="round"/>
<path d="M111.174 355.553L116.432 353.3" stroke="#33345A" stroke-width="2" stroke-linecap="round" stroke-linejoin="round"/>
<path d="M111.174 372.079L130.704 362.314" stroke="#33345A" stroke-width="2" stroke-linecap="round" stroke-linejoin="round"/>
<path d="M175.731 428.254C175.731 425.094 173.133 423.802 169.957 425.453L110 455.68C107.979 456.757 106.247 459.198 106.247 461.28V524.48C106.247 526.491 107.907 525.186 110 524.109L171.345 493.018C173.366 491.941 175.355 490.805 175.355 488.723L175.731 428.254Z" fill="white"/>
<path d="M160.589 312.736L117.183 334.74C117.183 334.74 117.183 334.74 117.183 334.815C117.258 334.965 117.334 335.191 117.409 335.416C117.635 335.867 118.087 336.467 118.69 336.843C119.971 337.669 122.383 338.119 126.603 335.942C128.788 334.815 131.35 333.538 134.063 332.112C142.352 327.831 152.224 322.724 156.67 320.547C159.534 319.12 160.438 317.092 160.664 315.44C160.815 314.614 160.739 313.863 160.664 313.337C160.664 313.037 160.664 312.812 160.589 312.736Z" fill="white" stroke="#28244A"/>
<path d="M114.93 507.29V492.509L165.258 467.478V482.259L114.93 507.29Z" stroke="#33345A" stroke-width="1.33643" stroke-linecap="round" stroke-linejoin="round"/>
<path d="M132.206 492.267L150.234 483.253" stroke="#33345A" stroke-width="1.33643" stroke-linecap="round" stroke-linejoin="round"/>
<path d="M114.178 470.483L126.197 464.473" stroke="#33345A" stroke-width="2" stroke-linecap="round" stroke-linejoin="round"/>
<path d="M114.178 478.745L142.723 464.473" stroke="#33345A" stroke-width="2" stroke-linecap="round" stroke-linejoin="round"/>
<path d="M129.201 462.971L150.234 452.455" stroke="#33345A" stroke-width="2" stroke-linecap="round" stroke-linejoin="round"/>
</svg>
