<svg width="20" height="20" viewBox="0 0 20 20" fill="none" xmlns="http://www.w3.org/2000/svg">
    <path fill-rule="evenodd" clip-rule="evenodd"
        d="M8.51786 3.80769C8.51786 2.95424 9.14544 2.375 9.78572 2.375C10.426 2.375 11.0536 2.95424 11.0536 3.80769C11.0536 4.66114 10.426 5.24038 9.78572 5.24038C9.14544 5.24038 8.51786 4.66114 8.51786 3.80769ZM9.78572 0.625C8.05907 0.625 6.76786 2.11214 6.76786 3.80769C6.76786 4.46725 6.96324 5.09526 7.30362 5.61648L5.04392 6.58989C4.35622 6.88613 3.91071 7.56312 3.91071 8.31191V10.3296C3.03915 10.9011 2.48214 11.9248 2.48214 13.0385C2.48214 13.698 2.67752 14.326 3.0179 14.8473L0.758205 15.8207C0.0705072 16.1169 -0.375 16.7939 -0.375 17.5427V19.9615C-0.375 20.4448 0.0167508 20.8365 0.5 20.8365C0.983249 20.8365 1.375 20.4448 1.375 19.9615V17.5427C1.375 17.4928 1.4047 17.4476 1.45055 17.4279L4.4176 16.1498C4.47066 16.1269 4.5203 16.0994 4.56626 16.068C4.85775 16.1672 5.17097 16.2212 5.5 16.2212C7.22665 16.2212 8.51785 14.734 8.51785 13.0385C8.51785 11.3959 7.30616 9.949 5.66071 9.8601V8.31191C5.66071 8.26199 5.69041 8.21686 5.73626 8.19711L8.70331 6.919C8.75637 6.89614 8.80602 6.86866 8.85198 6.83722C9.14346 6.93638 9.45668 6.99038 9.78572 6.99038C10.1147 6.99038 10.428 6.93638 10.7195 6.83723C10.7654 6.86866 10.8151 6.89614 10.8681 6.919L13.8352 8.19711C13.881 8.21686 13.9107 8.26199 13.9107 8.31191V9.8601C12.2653 9.949 11.0536 11.3959 11.0536 13.0385C11.0536 13.698 11.249 14.326 11.5893 14.8472L9.32963 15.8207C8.64193 16.1169 8.19643 16.7939 8.19643 17.5427V19.9615C8.19643 20.4448 8.58818 20.8365 9.07143 20.8365C9.55468 20.8365 9.94643 20.4448 9.94643 19.9615V17.5427C9.94643 17.4928 9.97613 17.4476 10.022 17.4279L12.989 16.1498C13.0421 16.1269 13.0917 16.0994 13.1377 16.068C13.4292 16.1671 13.7424 16.2212 14.0714 16.2212C14.4005 16.2212 14.7137 16.1671 15.0052 16.068C15.0511 16.0994 15.1008 16.1269 15.1538 16.1498L18.1209 17.4279C18.1667 17.4476 18.1964 17.4928 18.1964 17.5427V19.9615C18.1964 20.4448 18.5882 20.8365 19.0714 20.8365C19.5547 20.8365 19.9464 20.4448 19.9464 19.9615V17.5427C19.9464 16.7939 19.5009 16.1169 18.8132 15.8207L16.5535 14.8472C16.8939 14.326 17.0893 13.698 17.0893 13.0385C17.0893 11.9248 16.5323 10.9011 15.6607 10.3296V8.31191C15.6607 7.56312 15.2152 6.88613 14.5275 6.58989L12.2678 5.61648C12.6082 5.09526 12.8036 4.46725 12.8036 3.80769C12.8036 2.11214 11.5124 0.625 9.78572 0.625ZM4.23214 13.0385C4.23214 12.185 4.85971 11.6058 5.5 11.6058C6.14028 11.6058 6.76785 12.185 6.76785 13.0385C6.76785 13.8919 6.14028 14.4712 5.5 14.4712C4.85971 14.4712 4.23214 13.8919 4.23214 13.0385ZM14.0714 11.6058C13.4311 11.6058 12.8036 12.185 12.8036 13.0385C12.8036 13.8919 13.4311 14.4712 14.0714 14.4712C14.7117 14.4712 15.3393 13.8919 15.3393 13.0385C15.3393 12.185 14.7117 11.6058 14.0714 11.6058Z"
        fill="currentColor" />
</svg>