<svg width="20" height="20" viewBox="0 0 20 20" fill="none" xmlns="http://www.w3.org/2000/svg">
    <g clip-path="url(#clip0_1390_19658)">
        <path
            d="M18.3334 9.23355V10.0002C18.3323 11.7972 17.7504 13.5458 16.6745 14.9851C15.5985 16.4244 14.0861 17.4773 12.3628 17.9868C10.6395 18.4963 8.79774 18.4351 7.11208 17.8124C5.42642 17.1896 3.98723 16.0386 3.00915 14.5311C2.03108 13.0236 1.56651 11.2403 1.68475 9.44714C1.80299 7.65402 2.49769 5.94715 3.66525 4.58111C4.83281 3.21506 6.41068 2.26303 8.16351 1.867C9.91635 1.47097 11.7502 1.65216 13.3917 2.38355"
            stroke="currentColor" stroke-width="1.75" stroke-linecap="round" stroke-linejoin="round" />
        <path d="M7.5 9.16732L10 11.6673L18.3333 3.33398" stroke="currentColor" stroke-width="1.75"
            stroke-linecap="round" stroke-linejoin="round" />
    </g>
    <defs>
        <clipPath id="clip0_1390_19658">
            <rect width="20" height="20" fill="white" />
        </clipPath>
    </defs>
</svg>