<svg width="18" height="14" viewBox="0 0 18 14" fill="none" xmlns="http://www.w3.org/2000/svg">
    <path
        d="M15.2477 1.20003C14.0825 0.654875 12.8367 0.258679 11.5342 0.0330811C11.3742 0.322289 11.1873 0.71128 11.0585 1.02072C9.67387 0.812494 8.30201 0.812494 6.94287 1.02072C6.81404 0.71128 6.62292 0.322289 6.46152 0.0330811C5.15761 0.258679 3.91032 0.65633 2.74514 1.20292C0.394982 4.75432 -0.242108 8.21751 0.0764375 11.6315C1.63519 12.7956 3.14581 13.5027 4.63093 13.9654C4.99762 13.4607 5.32465 12.9243 5.60638 12.3589C5.06981 12.155 4.5559 11.9034 4.07031 11.6113C4.19913 11.5159 4.32514 11.4161 4.44689 11.3134C7.40865 12.6987 10.6267 12.6987 13.5531 11.3134C13.6762 11.4161 13.8022 11.5159 13.9296 11.6113C13.4426 11.9048 12.9273 12.1564 12.3907 12.3603C12.6724 12.9243 12.9981 13.4622 13.3662 13.9668C14.8527 13.5041 16.3647 12.797 17.9235 11.6315C18.2973 7.67381 17.285 4.24243 15.2477 1.20003ZM6.00988 9.53194C5.12079 9.53194 4.39166 8.70192 4.39166 7.69116C4.39166 6.6804 5.10522 5.84895 6.00988 5.84895C6.91457 5.84895 7.64367 6.67894 7.6281 7.69116C7.62951 8.70192 6.91457 9.53194 6.00988 9.53194ZM11.9901 9.53194C11.101 9.53194 10.3718 8.70192 10.3718 7.69116C10.3718 6.6804 11.0854 5.84895 11.9901 5.84895C12.8947 5.84895 13.6238 6.67894 13.6083 7.69116C13.6083 8.70192 12.8947 9.53194 11.9901 9.53194Z"
        fill="currentColor" />
</svg>