<svg
    width="48"
    height="48"
    viewBox="0 0 48 48"
    fill="none"
    xmlns="http://www.w3.org/2000/svg"
>
    <rect width="48" height="48" rx="4" fill="#06847B" />
    <path
        fill-rule="evenodd"
        clip-rule="evenodd"
        d="M9.92366 32.1631C5.61641 24.7027 8.10232 15.2037 15.4761 10.9465C18.4509 9.22896 21.765 8.62701 24.9449 9.00948L20.4739 26.0939L37.4753 30.756C36.2149 33.6907 34.0405 36.2502 31.074 37.9629C23.7003 42.2201 14.2309 39.6235 9.92366 32.1631ZM14.6926 9.58947C6.57812 14.2744 3.84248 24.7276 8.58243 32.9375C13.3224 41.1473 23.743 44.0048 31.8575 39.3199C35.4129 37.2671 37.9368 34.1052 39.2503 30.5112L39.5438 29.708L22.3707 24.9988L26.8861 7.7449L26.0453 7.59637C22.2679 6.92901 18.2568 7.5317 14.6926 9.58947ZM29.8025 7.64457L29.1111 7.53365L25.0011 23.4631L40.8937 27.8736L41.1135 27.1579C41.8958 24.6117 41.9185 19.9464 39.6918 15.6433C37.6319 11.6627 33.6853 8.26746 29.8025 7.64457ZM26.8915 22.3712L30.256 9.33115C33.3224 10.1264 36.5477 12.9373 38.3155 16.3536C40.1398 19.879 40.2831 23.6557 39.8122 25.9569L26.8915 22.3712Z"
        fill="white"
    />
</svg>