<svg width="15" height="15" viewBox="0 0 15 15" fill="none" xmlns="http://www.w3.org/2000/svg">
    <path
        d="M10.313 0.937C10.313 0.688492 10.4117 0.450163 10.5874 0.274441C10.7632 0.0987194 11.0015 0 11.25 0C11.4985 0 11.7368 0.0987194 11.9125 0.274441C12.0883 0.450163 12.187 0.688492 12.187 0.937V2.811H14.063C14.3116 2.811 14.5501 2.90977 14.7259 3.08559C14.9017 3.2614 15.0005 3.49986 15.0005 3.7485C15.0005 3.99714 14.9017 4.2356 14.7259 4.41141C14.5501 4.58723 14.3116 4.686 14.063 4.686H12.188V6.561C12.188 6.80977 12.0892 7.04836 11.9133 7.22427C11.7373 7.40018 11.4988 7.499 11.25 7.499C11.0012 7.499 10.7626 7.40018 10.5867 7.22427C10.4108 7.04836 10.312 6.80977 10.312 6.561V4.687H8.43799C8.18935 4.687 7.95089 4.58823 7.77508 4.41241C7.59926 4.2366 7.50049 3.99814 7.50049 3.7495C7.50049 3.50086 7.59926 3.2624 7.77508 3.08659C7.95089 2.91077 8.18935 2.812 8.43799 2.812H10.312L10.313 0.937Z"
        fill="currentColor" />
    <path
        d="M9.188 9.375C9.188 9.271 9.271 9.187 9.375 9.187H14.063C14.166 9.187 14.25 9.271 14.25 9.375V14.063C14.25 14.0876 14.2451 14.112 14.2357 14.1348C14.2262 14.1575 14.2123 14.1782 14.1949 14.1956C14.1774 14.213 14.1567 14.2267 14.1339 14.2361C14.1111 14.2454 14.0866 14.2501 14.062 14.25H9.375C9.35028 14.2501 9.32577 14.2454 9.3029 14.236C9.28003 14.2266 9.25925 14.2127 9.24177 14.1952C9.22429 14.1777 9.21044 14.157 9.20104 14.1341C9.19164 14.1112 9.18687 14.0867 9.187 14.062L9.188 9.375ZM0.750003 9.375C0.750003 9.271 0.834003 9.187 0.938003 9.187H5.625C5.729 9.187 5.813 9.271 5.813 9.375V14.063C5.813 14.0876 5.80813 14.112 5.79867 14.1348C5.78921 14.1575 5.77535 14.1782 5.75788 14.1956C5.74041 14.213 5.71968 14.2267 5.69687 14.2361C5.67407 14.2454 5.64964 14.2501 5.625 14.25H0.937003C0.912361 14.25 0.887962 14.2451 0.865209 14.2357C0.842456 14.2262 0.821797 14.2123 0.804419 14.1949C0.787041 14.1774 0.773288 14.1567 0.763949 14.1339C0.754611 14.1111 0.749871 14.0866 0.750003 14.062V9.375ZM0.750003 0.938C0.750003 0.834 0.834003 0.75 0.938003 0.75H5.625C5.729 0.75 5.813 0.834 5.813 0.938V5.625C5.813 5.67486 5.7932 5.72268 5.75794 5.75794C5.72268 5.79319 5.67486 5.813 5.625 5.813H0.937003C0.887315 5.81274 0.839753 5.79281 0.804713 5.75758C0.769672 5.72236 0.750002 5.67469 0.750003 5.625V0.938Z"
        stroke="currentColor" stroke-width="1.5" />
</svg>