<svg width="18" height="18" viewBox="0 0 18 18" fill="none" xmlns="http://www.w3.org/2000/svg">
    <path
        d="M8.99995 0.134277C4.0275 0.134277 0 4.20467 0 9.22505C0 13.2424 2.5785 16.6492 6.15375 17.8499C6.60375 17.9355 6.76875 17.6545 6.76875 17.4128C6.76875 17.1969 6.76125 16.6249 6.7575 15.8674C4.254 16.4158 3.726 14.6477 3.726 14.6477C3.3165 13.5984 2.72475 13.3182 2.72475 13.3182C1.9095 12.7545 2.78775 12.7659 2.78775 12.7659C3.6915 12.8296 4.16625 13.7023 4.16625 13.7023C4.96875 15.0924 6.273 14.6908 6.7875 14.4583C6.8685 13.8704 7.10025 13.4697 7.35749 13.2424C5.35875 13.0152 3.258 12.2333 3.258 8.75005C3.258 7.75765 3.60675 6.94705 4.18425 6.31069C4.083 6.08115 3.77925 5.15693 4.263 3.90468C4.263 3.90468 5.01675 3.66074 6.738 4.83648C7.458 4.63421 8.223 4.53421 8.98801 4.52966C9.75299 4.53421 10.518 4.63421 11.238 4.83648C12.948 3.66074 13.7018 3.90468 13.7018 3.90468C14.1855 5.15693 13.8818 6.08115 13.7917 6.31069C14.3655 6.94705 14.7143 7.75765 14.7143 8.75005C14.7143 12.2425 12.6104 13.0113 10.608 13.2348C10.923 13.5076 11.2155 14.0651 11.2155 14.9166C11.2155 16.1333 11.2043 17.1105 11.2043 17.406C11.2043 17.6446 11.3617 17.9287 11.823 17.8378C15.4238 16.6454 18 13.2363 18 9.22505C18 4.20467 13.9702 0.134277 8.99995 0.134277Z"
        fill="currentColor" />
</svg>