<?xml version="1.0" encoding="utf-8"?>
<!-- Generator: Adobe Illustrator 23.0.1, SVG Export Plug-In . SVG Version: 6.00 Build 0)  -->
<svg version="1.1" id="Layer_1" xmlns="http://www.w3.org/2000/svg" xmlns:xlink="http://www.w3.org/1999/xlink" x="0px" y="0px"
	 viewBox="0 0 447.5 151.5" style="enable-background:new 0 0 447.5 151.5;" xml:space="preserve">
<style type="text/css">
	.st0{fill:#0D233F;}
</style>
<path class="st0" d="M228.4,88.7h32.7v9.8h-0.6c-0.6-2.2-1.3-3.9-2.2-5.1c-0.8-1.2-1.7-2.1-2.6-2.7s-1.8-0.9-2.7-1s-1.7-0.2-2.4-0.2
	h-3.1v36.8h6v0.8h-17.3v-0.8h6V89.4h-3.1c-0.7,0-1.5,0.1-2.4,0.2s-1.8,0.5-2.7,1c-0.9,0.6-1.8,1.5-2.6,2.7s-1.6,2.9-2.2,5.1h-0.6
	v-9.7H228.4z M301.8,126.2h4.8v0.8H290v-0.8h6l-5.6-14.9h-12.5l-5.6,14.9h6v0.8h-11.7v-0.8h4.7l14.5-38.5h1.3L301.8,126.2z
	 M290,110.5l-5.9-15.6l-5.9,15.6H290z M343.9,123.2c-1.8,2-4.3,3-7.4,3h-9.6V89.4h6v-0.8h-17.3v0.8h6v36.8h-6v0.8h32.9v-11.8h-0.6
	C347,118.6,345.7,121.2,343.9,123.2z M360.1,89.4h6v36.8h-6v0.8h17.3v-0.8h-6V89.4h6v-0.8h-17.3V89.4z M421.8,126.2h4.8v0.8H410
	v-0.8h6l-5.6-14.9h-12.5l-5.6,14.9h6v0.8h-11.7v-0.8h4.7l14.5-38.5h1.3L421.8,126.2z M410,110.5l-5.9-15.6l-5.9,15.6H410z
	 M180.3,32.2h16.6v102.1h-16.6v2.1h48.1v-2.1h-16.6V32.2h16.6v-2.1h-48.1L180.3,32.2L180.3,32.2z M6.9,76.8c0.2-0.2,0.6-0.3,1.1-0.3
	c0.6,0,1.3,0.1,2.2,0.4c0.8,0.3,1.6,0.5,2.3,0.8c0.6,0.1,1.1,0.3,1.7,0.4c0.5,0.1,1,0.2,1.5,0.2c0.5,0.1,1,0.1,1.6,0.1s1.2,0,2,0
	c2.1,0,4-0.3,5.7-1s3.1-1.6,4.3-2.8c1.2-1.2,2.1-2.5,2.7-4c0.6-1.5,0.9-3.1,0.9-4.8c0-1.8-0.3-3.3-1-4.5s-1.5-2.1-2.5-2.8
	s-2-1.3-3-1.6c-1-0.4-1.9-0.6-2.6-0.9l-6.5-2c-0.9-0.3-1.9-0.6-2.8-1s-1.7-0.8-2.5-1.4c-0.7-0.6-1.3-1.2-1.8-2s-0.7-1.8-0.7-2.9
	c0-1.4,0.3-2.6,0.9-3.5c0.6-0.9,1.3-1.7,2.2-2.3s1.9-1,2.9-1.2s2-0.3,2.9-0.3c1.5,0,2.9,0.3,4.1,0.8c1.2,0.6,2.2,1.3,3,2.2
	s1.5,2,2,3.2s0.9,2.4,1.1,3.7h0.6v-9.9h-0.8c-0.3,0.5-0.5,0.8-0.7,0.9c-0.2,0.1-0.5,0.2-0.9,0.2c-0.5,0-1-0.1-1.5-0.3
	s-1-0.5-1.6-0.7c-0.6-0.3-1.3-0.5-2.2-0.7c-0.9-0.3-1.9-0.4-3.2-0.4c-1.7,0-3.3,0.3-4.7,0.9c-1.5,0.6-2.7,1.4-3.7,2.4
	s-1.8,2.2-2.4,3.6c-0.6,1.3-0.9,2.8-0.9,4.4c0,2.5,0.7,4.4,2.2,5.9s3.7,2.7,6.6,3.5l6.2,1.9c0.8,0.2,1.6,0.5,2.4,0.9
	s1.6,0.9,2.3,1.5c0.7,0.6,1.3,1.4,1.8,2.3s0.7,2,0.7,3.2c0,0.9-0.1,1.8-0.4,2.8s-0.8,2-1.5,2.8c-0.7,0.9-1.7,1.6-2.9,2.2
	c-1.2,0.6-2.8,0.9-4.7,0.9c-0.7,0-1.4,0-2.2-0.1c-0.8,0-1.6-0.2-2.4-0.4c-0.8-0.2-1.7-0.6-2.5-1c-0.8-0.5-1.6-1.1-2.4-2
	s-1.4-2-2.1-3.3c-0.6-1.3-1.1-3-1.5-4.9H5.6v11.6h0.8C6.5,77.3,6.7,77,6.9,76.8z M49.8,44.1c0.8-1.2,1.7-2.1,2.6-2.7
	c0.9-0.6,1.8-0.9,2.7-1s1.7-0.2,2.4-0.2h3.1V77h-6v0.8h17.3V77h-6V40.1H69c0.7,0,1.5,0.1,2.4,0.2c0.9,0.1,1.8,0.5,2.7,1
	c0.9,0.6,1.8,1.5,2.6,2.7c0.8,1.2,1.6,2.9,2.2,5.1h0.6v-9.7H47v9.8h0.6C48.2,47,48.9,45.3,49.8,44.1z M93.8,66
	c-0.9-2.4-1.4-4.9-1.4-7.5c0-2.9,0.6-5.5,1.7-8c1.1-2.4,2.6-4.6,4.4-6.3c1.8-1.8,3.8-3.2,6-4.2s4.4-1.5,6.7-1.5
	c2.4,0,4.7,0.5,6.9,1.5c2.2,1,4.2,2.4,6,4.2s3.2,3.9,4.2,6.3c1.1,2.4,1.6,5.1,1.6,8c0,2.5-0.5,5-1.5,7.4s-2.3,4.5-4,6.4
	s-3.7,3.4-5.9,4.5c-2.3,1.1-4.7,1.7-7.3,1.7c-2.7,0-5.2-0.6-7.5-1.7s-4.3-2.6-5.9-4.4C96,70.5,94.7,68.4,93.8,66z M98.6,58.5
	c0,3.2,0.2,6,0.6,8.4s1.1,4.4,2.2,6c1,1.6,2.3,2.8,3.9,3.6c1.6,0.8,3.5,1.2,5.9,1.2c2.3,0,4.2-0.4,5.8-1.2c1.6-0.8,2.9-2,3.9-3.6
	s1.7-3.6,2.2-6c0.4-2.4,0.6-5.2,0.6-8.4c0-2.5-0.2-4.9-0.5-7.2s-0.9-4.4-1.9-6.2c-0.9-1.8-2.2-3.3-3.8-4.3c-1.6-1.1-3.8-1.6-6.4-1.6
	s-4.7,0.5-6.4,1.6c-1.6,1.1-2.9,2.5-3.8,4.3S99.4,49,99,51.3C98.7,53.6,98.6,56,98.6,58.5z M159.9,77.6h-17.3v-0.8h6V40.1h-6v-0.7
	h10.2c0.4,0,0.9,0,1.3,0c0.4,0,0.9,0,1.3-0.1c0.4,0,0.9,0,1.3,0c0.4,0,0.9,0,1.3,0c2.1,0,4,0.1,5.6,0.3s3.1,0.9,4.5,2
	c1.3,1,2.1,2.1,2.7,3.3c0.5,1.2,0.8,2.4,0.8,3.4c0,0.5-0.1,1.2-0.3,2.1c-0.2,0.8-0.6,1.7-1.3,2.6c-0.7,0.9-1.6,1.7-2.9,2.4
	c-1.3,0.7-2.9,1.2-5,1.5V57c0.6,0.1,1.4,0.2,2.3,0.4c1,0.2,2,0.5,3,1s2,1.1,2.8,1.9c0.9,0.8,1.5,1.8,1.8,3c0.2,0.7,0.4,1.5,0.5,2.4
	s0.2,1.9,0.2,2.8c0.1,1,0.1,1.9,0.2,2.8c0.1,0.9,0.2,1.6,0.3,2.3c0.2,0.9,0.6,1.8,1,2.5c0.5,0.8,1.2,1.1,2.3,1.1
	c0.5,0,0.9-0.1,1.5-0.3c0.5-0.2,0.9-0.5,1.3-0.9l0.5,0.6c-0.2,0.1-0.4,0.3-0.6,0.5c-0.2,0.2-0.5,0.3-0.9,0.5
	c-0.4,0.1-0.8,0.3-1.3,0.3c-0.5,0.1-1.2,0.1-1.9,0.1c-1.4,0-2.6-0.2-3.6-0.5c-1-0.4-1.7-0.9-2.3-1.6s-1-1.6-1.3-2.6
	s-0.5-2.2-0.6-3.6l-0.4-4.9c-0.1-1.8-0.5-3.2-1.1-4.2s-1.2-1.7-2-2.2s-1.6-0.7-2.4-0.8c-0.8-0.1-1.5-0.1-2.2-0.1h-5.4v19.4h6
	L159.9,77.6L159.9,77.6z M154,56.7h4.9c1,0,1.9-0.1,2.7-0.4s1.5-0.7,2.1-1.3s1-1.5,1.4-2.6c0.3-1.1,0.5-2.4,0.5-4.1
	c0-1.9-0.2-3.4-0.7-4.5s-1.1-2-1.9-2.6c-0.8-0.6-1.6-0.9-2.6-1.1s-1.9-0.3-2.8-0.3c-0.6,0-1.3,0-2,0s-1.2,0.1-1.7,0.1v16.8
	C153.9,56.7,154,56.7,154,56.7z M5.6,82.8h174.6v-0.4H5.6V82.8z M228.6,82.3v0.4h198.2v-0.4H228.6z"/>
<g>
	<path class="st0" d="M432.6,123.9c0-0.9,0.2-1.7,0.5-2.5s0.8-1.4,1.4-2s1.2-1,2-1.4s1.6-0.5,2.5-0.5s1.7,0.2,2.5,0.5s1.4,0.8,2,1.4
		s1,1.2,1.4,2c0.3,0.8,0.5,1.6,0.5,2.5s-0.2,1.7-0.5,2.5s-0.8,1.4-1.4,2c-0.6,0.6-1.2,1-2,1.4s-1.6,0.5-2.5,0.5s-1.7-0.2-2.5-0.5
		s-1.4-0.8-2-1.4c-0.6-0.6-1-1.2-1.4-2S432.6,124.8,432.6,123.9z M432.9,123.9c0,0.8,0.2,1.6,0.5,2.3s0.7,1.4,1.3,1.9
		c0.5,0.5,1.2,1,1.9,1.3c0.7,0.3,1.5,0.5,2.3,0.5s1.6-0.2,2.3-0.5c0.7-0.3,1.4-0.7,1.9-1.3c0.5-0.5,1-1.2,1.3-1.9s0.5-1.5,0.5-2.3
		s-0.2-1.6-0.5-2.3s-0.7-1.4-1.3-1.9c-0.5-0.5-1.2-1-1.9-1.3c-0.7-0.3-1.5-0.5-2.3-0.5s-1.6,0.2-2.3,0.5c-0.7,0.3-1.4,0.7-1.9,1.3
		c-0.5,0.5-1,1.2-1.3,1.9S432.9,123.1,432.9,123.9z M441.5,127.5h-0.2c0-0.1-0.1-0.1-0.2-0.2s-0.2-0.1-0.3-0.1c-0.1,0-0.2,0-0.3,0.1
		s-0.3,0.1-0.4,0.1s-0.3,0.1-0.5,0.1s-0.4,0.1-0.6,0.1c-0.4,0-0.8-0.1-1.3-0.2c-0.4-0.2-0.8-0.4-1.1-0.8c-0.3-0.3-0.6-0.7-0.8-1.2
		s-0.3-1-0.3-1.6c0-0.5,0.1-1,0.3-1.5c0.2-0.5,0.4-0.9,0.8-1.2s0.7-0.6,1.2-0.8c0.4-0.2,0.9-0.3,1.5-0.3c0.2,0,0.4,0,0.6,0.1
		c0.2,0,0.3,0.1,0.4,0.1c0.1,0.1,0.2,0.1,0.4,0.1c0.1,0,0.2,0.1,0.3,0.1c0.1,0,0.2,0,0.3-0.1s0.1-0.1,0.2-0.1h0.2v2h-0.1
		c-0.1-0.3-0.1-0.5-0.2-0.8s-0.2-0.5-0.4-0.7c-0.2-0.2-0.4-0.4-0.7-0.5s-0.6-0.2-1-0.2c-0.5,0-1,0.1-1.3,0.4
		c-0.3,0.2-0.5,0.5-0.7,0.9s-0.3,0.8-0.3,1.2c0,0.4-0.1,0.8-0.1,1.2c0,0.7,0.1,1.3,0.2,1.8s0.3,0.8,0.5,1.1c0.2,0.3,0.5,0.5,0.7,0.6
		c0.3,0.1,0.6,0.2,1,0.2c0.5,0,0.8-0.1,1.1-0.2c0.3-0.1,0.5-0.3,0.7-0.5s0.3-0.4,0.4-0.7c0.1-0.3,0.2-0.5,0.2-0.8h0.1v2.3H441.5z"/>
</g>
</svg>
