<svg width="93" height="32" viewBox="0 0 93 32" fill="none" xmlns="http://www.w3.org/2000/svg">
    <mask id="mask0_9465_114291" style="mask-type:alpha" maskUnits="userSpaceOnUse" x="0" y="1" width="93" height="31">
        <path fill-rule="evenodd" clip-rule="evenodd" d="M0 1.16235H92.9171V32H0V1.16235Z" fill="white"/>
    </mask>
    <g mask="url(#mask0_9465_114291)">

    </g>
    <path fill-rule="evenodd" clip-rule="evenodd" d="M21.2159 0L15.0357 6.43938H30.3028L36.4829 0H21.2159Z"
          fill="#056DFF"/>
    <path fill-rule="evenodd" clip-rule="evenodd"
          d="M8.09858 2.31947C8.18993 2.22839 8.31366 2.17725 8.44265 2.17725H28.5222C28.7194 2.17725 28.8971 2.29612 28.9725 2.47838C29.0478 2.66063 29.0059 2.87033 28.8662 3.00958L23.0764 8.78282C22.9851 8.87391 22.8613 8.92505 22.7323 8.92505H2.65282C2.45561 8.92505 2.27784 8.80618 2.2025 8.62392C2.12716 8.44167 2.16911 8.23197 2.30876 8.09272L8.09858 2.31947ZM8.64408 3.15181L3.83162 7.95049H22.5309L27.3434 3.15181H8.64408Z"
          fill="#28234A"/>
</svg>
