<svg width="95" height="32" viewBox="0 0 95 32" fill="none" xmlns="http://www.w3.org/2000/svg">
<path d="M5.03838 0L0 5.09097H25.5072L30.5454 0H5.03838Z" fill="#13BEBB"/>
<path d="M14.6423 31.9654C20.9094 31.9654 22.4853 29.4455 22.4853 25.9937C22.4853 21.7478 18.6533 20.9539 15.466 20.436C13.0307 20.0217 11.9205 19.8147 11.9205 18.3305C11.9205 17.2259 12.8873 16.8116 14.4632 16.8116C16.3972 16.8116 16.9342 17.3639 17.1134 18.9862L22.1988 18.2269C21.7688 14.7405 19.7992 12.9799 14.6064 12.9799C8.91239 12.9799 6.90688 15.2582 6.90688 18.8827C6.87118 23.5774 11.3118 24.0605 14.6064 24.6127C16.6476 24.9927 17.4358 25.3376 17.4358 26.684C17.4358 27.7887 16.7554 28.272 14.7138 28.272C12.4577 28.272 11.7773 27.8923 11.4908 26.0627L6.54883 26.7876C7.01433 30.4811 9.19886 31.9654 14.6423 31.9654Z" fill="white"/>
<path d="M31.0348 28.1685C28.6352 28.1685 27.7759 27.6506 27.7759 25.9248C27.7759 24.3714 28.6352 23.7501 31.2138 23.7501H33.7923V25.5451C33.7923 27.271 32.9328 28.1685 31.0348 28.1685ZM28.8144 31.9655C31.6077 31.9655 32.8613 31.068 33.7566 29.7562V31.7239H38.8058V19.228C38.8058 15.0512 37.1943 12.9456 31.6077 12.9456C26.2 12.9456 24.3022 14.4643 23.55 18.1924L28.5638 18.9519C28.8859 17.3641 29.3516 16.8806 31.4287 16.8806C33.4342 16.8806 33.7566 17.7091 33.7566 19.09V20.3672H31.3928C24.9826 20.3672 22.7979 22.3003 22.7979 26.2353C22.7979 30.1014 24.7677 31.9655 28.8144 31.9655Z" fill="white"/>
<path d="M40.0952 31.7237H45.2523V5.091L40.0952 10.1818V31.7237Z" fill="white"/>
<path d="M51.5551 20.4704V19.5386C51.5551 17.9163 52.3072 16.8115 54.5634 16.8115C56.7479 16.8115 57.4643 17.7436 57.4643 19.5386V20.4704H51.5551ZM54.5634 32C60.5083 32 62.084 29.2385 62.442 26.4769L57.5359 25.752C57.321 27.4088 56.9987 28.2719 54.5634 28.2719C52.0925 28.2719 51.5551 27.0636 51.5551 25.4759V23.957H62.442V20.6431C62.442 16.0177 60.6156 12.9454 54.5634 12.9454C48.5829 12.9454 46.5415 16.0521 46.5415 19.9874V24.958C46.5415 28.7898 48.6186 32 54.5634 32Z" fill="white"/>
<path d="M72.0036 32C77.9125 32 80.3476 28.9968 80.3476 24.958V19.9874C80.3476 15.8796 77.9125 12.9454 72.0036 12.9454C66.0943 12.9454 63.731 15.8796 63.731 19.9874V24.958C63.731 28.9968 66.0586 32 72.0036 32ZM72.0036 27.9958C69.9263 27.9958 68.8879 26.9257 68.8879 25.1998V19.884C68.8879 18.1234 69.9263 17.0533 72.0036 17.0533C74.0807 17.0533 75.1907 18.1234 75.1907 19.884V25.1998C75.1907 26.9257 74.0807 27.9958 72.0036 27.9958Z" fill="white"/>
<path fill-rule="evenodd" clip-rule="evenodd" d="M89.5578 18.2135H86.7936V31.6158H81.6367V18.2135L86.6751 13.1226H94.5962L89.5578 18.2135Z" fill="white"/>
</svg>
