<svg width="93" height="32" viewBox="0 0 93 32" fill="none" xmlns="http://www.w3.org/2000/svg">
<mask id="mask0_9465_114291" style="mask-type:alpha" maskUnits="userSpaceOnUse" x="0" y="1" width="93" height="31">
<path fill-rule="evenodd" clip-rule="evenodd" d="M0 1.16235H92.9171V32H0V1.16235Z" fill="white"/>
</mask>
<g mask="url(#mask0_9465_114291)">
<path fill-rule="evenodd" clip-rule="evenodd" d="M15.4623 31.9685C21.1688 31.9685 22.6037 29.6641 22.6037 26.5075C22.6037 22.6248 19.1145 21.8988 16.2123 21.4252C13.9949 21.0465 12.984 20.8572 12.984 19.4998C12.984 18.4899 13.8644 18.1108 15.2993 18.1108C17.0602 18.1108 17.5492 18.6159 17.7124 20.0995L22.3428 19.4051C21.9513 16.2169 20.1579 14.6072 15.4296 14.6072C10.2449 14.6072 8.41883 16.6905 8.41883 20.0047C8.38632 24.2979 12.4298 24.7398 15.4296 25.2448C17.2882 25.5921 18.0059 25.9076 18.0059 27.1389C18.0059 28.1489 17.3863 28.5909 15.5275 28.5909C13.4732 28.5909 12.8536 28.2437 12.5928 26.5707L8.0928 27.2336C8.51667 30.6112 10.5058 31.9685 15.4623 31.9685Z" fill="#28234A"/>
<path fill-rule="evenodd" clip-rule="evenodd" d="M30.3892 28.496C28.2043 28.496 27.4219 28.0225 27.4219 26.4441C27.4219 25.0236 28.2043 24.4555 30.5522 24.4555H32.9001V26.0969C32.9001 27.6752 32.1175 28.496 30.3892 28.496ZM28.3673 31.9684C30.9108 31.9684 32.0522 31.1476 32.8674 29.9481V31.7475H37.4651V20.3204C37.4651 16.501 35.9976 14.5754 30.9108 14.5754C25.9868 14.5754 24.2587 15.9642 23.5738 19.3735L28.1391 20.0679C28.4325 18.6159 28.8565 18.1738 30.7478 18.1738C32.5739 18.1738 32.8674 18.9314 32.8674 20.1943V21.3623H30.7151C24.8782 21.3623 22.8889 23.1299 22.8889 26.7284C22.8889 30.2638 24.6826 31.9684 28.3673 31.9684Z" fill="#28234A"/>
<path fill-rule="evenodd" clip-rule="evenodd" d="M38.639 31.7473H43.3348V7.39282L38.639 12.0483V31.7473Z" fill="#28234A"/>
<path fill-rule="evenodd" clip-rule="evenodd" d="M49.0741 21.4564V20.6043C49.0741 19.1207 49.759 18.1103 51.8133 18.1103C53.8024 18.1103 54.4548 18.9628 54.4548 20.6043V21.4564H49.0741ZM51.8123 32.0001C57.2255 32.0001 58.6602 29.4746 58.9862 26.9493L54.5189 26.2864C54.3233 27.8016 54.0298 28.5908 51.8123 28.5908C49.5625 28.5908 49.0731 27.486 49.0731 26.034V24.6452H58.9862V21.6147C58.9862 17.3848 57.3231 14.5754 51.8123 14.5754C46.3667 14.5754 44.508 17.4165 44.508 21.0151V25.5605C44.508 29.0644 46.3993 32.0001 51.8123 32.0001Z" fill="#28234A"/>
<path fill-rule="evenodd" clip-rule="evenodd" d="M67.6926 32.0001C73.073 32.0001 75.2903 29.2539 75.2903 25.5606V21.0151C75.2903 17.2588 73.073 14.5754 67.6926 14.5754C62.312 14.5754 60.16 17.2588 60.16 21.0151V25.5606C60.16 29.2539 62.2794 32.0001 67.6926 32.0001ZM67.6921 28.3382C65.8007 28.3382 64.8551 27.3598 64.8551 25.7814V20.9202C64.8551 19.3105 65.8007 18.3319 67.6921 18.3319C69.5834 18.3319 70.5941 19.3105 70.5941 20.9202V25.7814C70.5941 27.3598 69.5834 28.3382 67.6921 28.3382Z" fill="#28234A"/>
<path fill-rule="evenodd" clip-rule="evenodd" d="M83.6773 19.3928H81.1605V31.6486H76.4649V19.3928H76.4647L81.0524 14.7375H88.265L83.6773 19.3928Z" fill="#28234A"/>
</g>
<path fill-rule="evenodd" clip-rule="evenodd" d="M21.2159 0L15.0357 6.43938H30.3028L36.4829 0H21.2159Z" fill="#056DFF"/>
<path fill-rule="evenodd" clip-rule="evenodd" d="M8.09858 2.31947C8.18993 2.22839 8.31366 2.17725 8.44265 2.17725H28.5222C28.7194 2.17725 28.8971 2.29612 28.9725 2.47838C29.0478 2.66063 29.0059 2.87033 28.8662 3.00958L23.0764 8.78282C22.9851 8.87391 22.8613 8.92505 22.7323 8.92505H2.65282C2.45561 8.92505 2.27784 8.80618 2.2025 8.62392C2.12716 8.44167 2.16911 8.23197 2.30876 8.09272L8.09858 2.31947ZM8.64408 3.15181L3.83162 7.95049H22.5309L27.3434 3.15181H8.64408Z" fill="#28234A"/>
</svg>
