<svg width="36" height="33" viewBox="0 0 36 33" fill="none" xmlns="http://www.w3.org/2000/svg">
<path fill-rule="evenodd" clip-rule="evenodd" d="M16.6072 33C22.4977 33 23.9789 30.6214 23.9789 27.3629C23.9789 23.3549 20.3772 22.6056 17.3814 22.1167C15.0924 21.7258 14.0489 21.5304 14.0489 20.1292C14.0489 19.0867 14.9577 18.6954 16.4389 18.6954C18.2566 18.6954 18.7614 19.2168 18.9298 20.7482L23.7097 20.0314C23.3055 16.7404 21.4542 15.0787 16.5735 15.0787C11.2216 15.0787 9.33654 17.2293 9.33654 20.6504C9.30299 25.082 13.4768 25.5382 16.5735 26.0594C18.492 26.418 19.2328 26.7437 19.2328 28.0146C19.2328 29.0573 18.5933 29.5135 16.6745 29.5135C14.5539 29.5135 13.9144 29.1551 13.6451 27.4281L9 28.1124C9.43753 31.599 11.4908 33 16.6072 33Z" fill="#28234A"/>
<path fill-rule="evenodd" clip-rule="evenodd" d="M19.7838 0L13.4043 6.64709H29.1638L35.5433 0H19.7838Z" fill="#8AC4EB"/>
<path fill-rule="evenodd" clip-rule="evenodd" d="M6.15911 2.31187C6.27552 2.1958 6.4332 2.13062 6.59759 2.13062H27.3248C27.5761 2.13062 27.8026 2.28211 27.8987 2.51437C27.9947 2.74664 27.9412 3.01388 27.7632 3.19134L21.7867 9.1508C21.6703 9.26687 21.5126 9.33205 21.3482 9.33205H0.621008C0.369679 9.33205 0.143131 9.18056 0.0471181 8.94829C-0.0488948 8.71603 0.00456112 8.44879 0.182532 8.27133L6.15911 2.31187ZM6.85429 3.37259L2.12325 8.09007H21.0915L25.8225 3.37259H6.85429Z" fill="#28234A"/>
</svg>
