<svg version="1.1" id="Layer_1" xmlns="http://www.w3.org/2000/svg" xmlns:xlink="http://www.w3.org/1999/xlink" x="0px" y="0px"
	 width="90" height="32" viewBox="80 0 90 89.6">
<style type="text/css">
	.st0{fill-rule:evenodd;clip-rule:evenodd;fill:#FFFFFF;}
	.st1{opacity:0.4;fill-rule:evenodd;clip-rule:evenodd;fill:#FFFFFF;enable-background:new    ;}
</style>
<g>
	<path class="st0" d="M58,79.1c12.2,0,15.3-5,15.3-11.8c0-8.4-7.5-9.9-13.7-10.9c-4.7-0.8-6.9-1.2-6.9-4.1c0-2.2,1.9-3,5-3
		c3.8,0,4.8,1.1,5.2,4.3l9.9-1.5c-0.8-6.9-4.7-10.3-14.8-10.3c-11.1,0-15,4.5-15,11.6c-0.1,9.2,8.6,10.2,15,11.3
		c4,0.7,5.5,1.4,5.5,4.1c0,2.2-1.3,3.1-5.3,3.1c-4.4,0-5.7-0.7-6.3-4.4l-9.6,1.4C43.1,76.2,47.4,79.1,58,79.1z"/>
	<path class="st0" d="M91.6,71.6c-4.7,0-6.3-1-6.3-4.4c0-3.1,1.7-4.3,6.7-4.3h5v3.5C97,69.8,95.3,71.6,91.6,71.6z M87.3,79.1
		c5.4,0,7.9-1.8,9.6-4.4v3.9h9.8V54c0-8.2-3.1-12.4-14-12.4c-10.5,0-14.2,3-15.7,10.3l9.8,1.5c0.6-3.1,1.5-4.1,5.6-4.1
		c3.9,0,4.5,1.6,4.5,4.4v2.5h-4.6c-12.5,0-16.7,3.8-16.7,11.6C75.5,75.4,79.4,79.1,87.3,79.1z"/>
	<path class="st0" d="M111.4,78.6h10V26.2l-10,10V78.6z"/>
	<path class="st0" d="M135.3,56.5v-1.8c0-3.2,1.5-5.4,5.9-5.4c4.3,0,5.7,1.8,5.7,5.4v1.8H135.3z M141.1,79.2
		c11.6,0,14.6-5.4,15.3-10.9l-9.6-1.4c-0.4,3.3-1,5-5.8,5c-4.8,0-5.9-2.4-5.9-5.5v-3h21.2v-6.5c0-9.1-3.6-15.2-15.3-15.2
		c-11.6,0-15.6,6.1-15.6,13.9v9.8C125.5,72.8,129.5,79.2,141.1,79.2z"/>
	<path class="st0" d="M175.9,79.2c11.5,0,16.3-5.9,16.3-13.9v-9.8c0-8.1-4.7-13.9-16.3-13.9c-11.5,0-16.1,5.8-16.1,13.9v9.8
		C159.7,73.2,164.3,79.2,175.9,79.2z M175.9,71.3c-4,0-6.1-2.1-6.1-5.5V55.3c0-3.5,2-5.6,6.1-5.6c4,0,6.2,2.1,6.2,5.6v10.5
		C182.1,69.2,179.9,71.3,175.9,71.3z"/>
	<path class="st0" d="M211.1,52h-5.4v26.4h-10V52l0,0l9.8-10h15.4L211.1,52z"/>
	<path class="st1" d="M70.9,10.4L57.5,24.5h33.3l13.5-14.1H70.9z"/>
	<path class="st0" d="M42.1,15.2c0.3-0.3,0.6-0.4,1-0.4h43.8c0.6,0,1.1,0.4,1.3,0.9c0.2,0.5,0.1,1.2-0.3,1.6L75.3,29.9
		c-0.3,0.3-0.6,0.4-1,0.4H30.5c-0.6,0-1.1-0.4-1.3-0.9c-0.2-0.5-0.1-1.2,0.3-1.6L42.1,15.2z M43.7,17.7L34,27.4h39.7l9.7-9.7H43.7z"
		/>
</g>
</svg>