<svg width="36" height="33" viewBox="0 0 36 33" fill="none" xmlns="http://www.w3.org/2000/svg">
    <path fill-rule="evenodd" clip-rule="evenodd" d="M19.7838 0L13.4043 6.64709H29.1638L35.5433 0H19.7838Z"
          fill="#8AC4EB"/>
    <path fill-rule="evenodd" clip-rule="evenodd"
          d="M6.15911 2.31187C6.27552 2.1958 6.4332 2.13062 6.59759 2.13062H27.3248C27.5761 2.13062 27.8026 2.28211 27.8987 2.51437C27.9947 2.74664 27.9412 3.01388 27.7632 3.19134L21.7867 9.1508C21.6703 9.26687 21.5126 9.33205 21.3482 9.33205H0.621008C0.369679 9.33205 0.143131 9.18056 0.0471181 8.94829C-0.0488948 8.71603 0.00456112 8.44879 0.182532 8.27133L6.15911 2.31187ZM6.85429 3.37259L2.12325 8.09007H21.0915L25.8225 3.37259H6.85429Z"
          fill="#28234A"/>
</svg>
