<svg version="1.1" id="Layer_1" xmlns="http://www.w3.org/2000/svg" xmlns:xlink="http://www.w3.org/1999/xlink" x="0px"
     y="0px"
     width="90" height="32" viewBox="80 0 90 89.6">
    <style type="text/css">
        .st0{fill-rule:evenodd;clip-rule:evenodd;fill:#FFFFFF;}
        .st1{opacity:0.4;fill-rule:evenodd;clip-rule:evenodd;fill:#FFFFFF;enable-background:new ;}
    </style>
    <g>
        <path class="st1" d="M70.9,10.4L57.5,24.5h33.3l13.5-14.1H70.9z"/>
        <path class="st0" d="M42.1,15.2c0.3-0.3,0.6-0.4,1-0.4h43.8c0.6,0,1.1,0.4,1.3,0.9c0.2,0.5,0.1,1.2-0.3,1.6L75.3,29.9
		c-0.3,0.3-0.6,0.4-1,0.4H30.5c-0.6,0-1.1-0.4-1.3-0.9c-0.2-0.5-0.1-1.2,0.3-1.6L42.1,15.2z M43.7,17.7L34,27.4h39.7l9.7-9.7H43.7z"
        />
    </g>
</svg>