<svg width="32" height="32" viewBox="0 0 32 32" fill="none" xmlns="http://www.w3.org/2000/svg">
<path fill-rule="evenodd" clip-rule="evenodd" d="M5.712 3.5H0V2H6.913L7.78154 5.875H32L28.0625 21.375H10.3559H9.5625H9.23912L8.44877 23H28V24.5H6.05121L8.30067 19.875H9.24194L6.36634 6.4194L5.712 3.5ZM10.3125 28.75C10.9683 28.75 11.5 28.2183 11.5 27.5625C11.5 26.9067 10.9683 26.375 10.3125 26.375C9.65666 26.375 9.125 26.9067 9.125 27.5625C9.125 28.2183 9.65666 28.75 10.3125 28.75ZM10.3125 30.25C11.7968 30.25 13 29.0468 13 27.5625C13 26.0782 11.7968 24.875 10.3125 24.875C8.82823 24.875 7.625 26.0782 7.625 27.5625C7.625 29.0468 8.82823 30.25 10.3125 30.25ZM26 27.5625C26 28.2183 25.4683 28.75 24.8125 28.75C24.1567 28.75 23.625 28.2183 23.625 27.5625C23.625 26.9067 24.1567 26.375 24.8125 26.375C25.4683 26.375 26 26.9067 26 27.5625ZM27.5 27.5625C27.5 29.0468 26.2968 30.25 24.8125 30.25C23.3282 30.25 22.125 29.0468 22.125 27.5625C22.125 26.0782 23.3282 24.875 24.8125 24.875C26.2968 24.875 27.5 26.0782 27.5 27.5625ZM30.0713 7.375L26.8959 19.875H10.7758L8.10444 7.375H30.0713Z" fill="#3D3D3D"/>
</svg>
