<svg width="32" height="32" viewBox="0 0 32 32" fill="none" xmlns="http://www.w3.org/2000/svg">
<path fill-rule="evenodd" clip-rule="evenodd" d="M15 32L0 17.9399L18.5 0H28.125L32 3.75V13.2063L15 32ZM2.1737 17.9214L3.27153 16.8569L15.9976 28.6611L14.9118 29.8614L2.1737 17.9214ZM4.34987 15.8112L17.0039 27.5486L30.5 12.6285V4.38577L27.518 1.5H19.1079L4.34987 15.8112ZM26.75 6.375C26.75 7.13439 26.1344 7.75 25.375 7.75C24.6156 7.75 24 7.13439 24 6.375C24 5.61561 24.6156 5 25.375 5C26.1344 5 26.75 5.61561 26.75 6.375ZM28.25 6.375C28.25 7.96282 26.9628 9.25 25.375 9.25C23.7872 9.25 22.5 7.96282 22.5 6.375C22.5 4.78718 23.7872 3.5 25.375 3.5C26.9628 3.5 28.25 4.78718 28.25 6.375Z" fill="#3D3D3D"/>
</svg>
