<svg width="32" height="32" viewBox="0 0 32 32" fill="none" xmlns="http://www.w3.org/2000/svg">
<path fill-rule="evenodd" clip-rule="evenodd" d="M27.8049 0H4.19513L0 8.9457V9.11158C0 12.3944 1.44708 14.6199 3.375 15.6208V32H28.75V15.6154C30.617 14.5943 32 12.3699 32 9.11158V8.9457L27.8049 0ZM4.875 30.5058V16.1355C5.14409 16.1849 5.41713 16.2136 5.69211 16.2214C7.14186 16.2621 8.59031 15.705 9.6709 14.5647C10.0776 14.1355 10.4264 13.6302 10.7034 13.0527C11.0076 13.6455 11.3916 14.1633 11.8384 14.6023C13.002 15.7461 14.5468 16.3113 16.0801 16.3113C17.6133 16.3113 19.1581 15.7461 20.3217 14.6023C20.7652 14.1665 21.1469 13.6531 21.45 13.0657C21.7212 13.6389 22.0617 14.1415 22.4584 14.5697C23.5212 15.7169 24.95 16.2864 26.3852 16.2513C26.6768 16.2442 26.9658 16.2128 27.25 16.1575V30.5058H21.625V18.179H10.5V30.5058H4.875ZM12 30.5058H20.125V19.6731H12V30.5058ZM9.92301 9.83658H1.52765C1.78923 13.1794 3.86009 14.6752 5.73439 14.7278C6.76627 14.7568 7.79945 14.3629 8.58008 13.5391C9.3228 12.7553 9.87435 11.5402 9.92301 9.83658ZM1.9385 8.34241L5.15002 1.49416H26.85L30.0615 8.34241H1.9385ZM30.4734 9.83658H22.237C22.2849 11.544 22.8289 12.7664 23.5608 13.5564C24.3292 14.3858 25.342 14.7822 26.3484 14.7576C28.1717 14.713 30.2183 13.2302 30.4734 9.83658ZM20.7298 9.83658H11.4303C11.4832 11.5221 12.0764 12.7372 12.8919 13.5387C13.7545 14.3866 14.9116 14.8171 16.0801 14.8171C17.2485 14.8171 18.4056 14.3866 19.2682 13.5387C20.0837 12.7372 20.6769 11.5221 20.7298 9.83658Z" fill="#3D3D3D"/>
</svg>
