<svg width="24" height="24" viewBox="0 0 24 24" fill="none" xmlns="http://www.w3.org/2000/svg">
<path d="M20.7101 8.77354L20.3013 7.80451C21.7011 4.64075 21.6083 4.54674 21.3365 4.2723L19.5483 2.52524L19.3708 2.37571H19.1637C19.0544 2.37571 18.7283 2.37571 16.0101 3.6086L15.0096 3.20523C13.7167 0 13.5841 0 13.2055 0H10.6829C10.3047 0 10.1577 -0.000423225 8.95855 3.21665L7.96243 3.62108C6.12551 2.84545 5.04821 2.4528 4.75748 2.4528L4.51902 2.46021L2.59563 4.346C2.30377 4.62044 2.20192 4.71721 3.68195 7.83202L3.2747 8.79766C0 10.0636 0 10.1864 0 10.5738V13.0472C0 13.4352 0 13.5719 3.28571 14.7489L3.69288 15.7128C2.29333 18.8749 2.38735 18.9698 2.65925 19.2417L4.44743 20.9908L4.62531 21.1438H4.83345C4.94101 21.1438 5.26312 21.1438 7.98514 19.9083L8.9838 20.3145C10.277 23.5193 10.4098 23.5185 10.7893 23.5185H13.3122C13.698 23.5185 13.8349 23.5185 15.0376 20.303L16.0388 19.8982C17.8736 20.674 18.9485 21.0679 19.2374 21.0679L19.4775 21.0612L21.4156 19.1638C21.6913 18.8856 21.7879 18.7894 20.3161 15.6875L20.7205 14.721C23.9999 13.4538 23.9999 13.3208 23.9999 12.9422V10.4715C23.9996 10.0823 23.9996 9.94634 20.7101 8.77354ZM11.9994 15.8738C9.68608 15.8738 7.80247 14.0268 7.80247 11.7573C7.80247 9.4895 9.68615 7.64426 11.9994 7.64426C14.3114 7.64426 16.191 9.48993 16.191 11.7573C16.1906 14.0268 14.311 15.8738 11.9994 15.8738Z" fill="currentColor"/>
</svg>
