<svg width="24" height="25" viewBox="0 0 24 25" fill="none" xmlns="http://www.w3.org/2000/svg">
<path fill-rule="evenodd" clip-rule="evenodd" d="M16 4.00391C15.4477 4.00391 15 4.45162 15 5.00391V8.00391C15 8.55619 15.4477 9.00391 16 9.00391H19C19.5523 9.00391 20 8.55619 20 8.00391V5.00391C20 4.45162 19.5523 4.00391 19 4.00391H16ZM13 5.00391C13 3.34705 14.3431 2.00391 16 2.00391H19C20.6569 2.00391 22 3.34705 22 5.00391V8.00391C22 9.66076 20.6569 11.0039 19 11.0039H16C14.3431 11.0039 13 9.66076 13 8.00391V5.00391ZM16 15.0039C15.4477 15.0039 15 15.4516 15 16.0039V19.0039C15 19.5562 15.4477 20.0039 16 20.0039H19C19.5523 20.0039 20 19.5562 20 19.0039V16.0039C20 15.4516 19.5523 15.0039 19 15.0039H16ZM13 16.0039C13 14.3471 14.3431 13.0039 16 13.0039H19C20.6569 13.0039 22 14.3471 22 16.0039V19.0039C22 20.6608 20.6569 22.0039 19 22.0039H16C14.3431 22.0039 13 20.6608 13 19.0039V16.0039ZM4 16.0039C4 15.4516 4.44772 15.0039 5 15.0039H8C8.55228 15.0039 9 15.4516 9 16.0039V19.0039C9 19.5562 8.55228 20.0039 8 20.0039H5C4.44772 20.0039 4 19.5562 4 19.0039V16.0039ZM5 13.0039C3.34315 13.0039 2 14.3471 2 16.0039V19.0039C2 20.6608 3.34315 22.0039 5 22.0039H8C9.65685 22.0039 11 20.6608 11 19.0039V16.0039C11 14.3471 9.65685 13.0039 8 13.0039H5ZM6 2.00391C6.55228 2.00391 7 2.45162 7 3.00391V5.00391H9C9.55228 5.00391 10 5.45162 10 6.00391C10 6.55619 9.55228 7.00391 9 7.00391H7V9.00391C7 9.55619 6.55228 10.0039 6 10.0039C5.44772 10.0039 5 9.55619 5 9.00391V7.00391H3C2.44771 7.00391 2 6.55619 2 6.00391C2 5.45162 2.44771 5.00391 3 5.00391H5V3.00391C5 2.45162 5.44772 2.00391 6 2.00391Z" fill="currentColor"/>
</svg>
