<svg width="32" height="32" viewBox="0 0 32 32" fill="none" xmlns="http://www.w3.org/2000/svg">
<path fill-rule="evenodd" clip-rule="evenodd" d="M23.5 9C23.5 13.1421 20.1421 16.5 16 16.5C11.8579 16.5 8.5 13.1421 8.5 9C8.5 4.85786 11.8579 1.5 16 1.5C20.1421 1.5 23.5 4.85786 23.5 9ZM25 9C25 13.9706 20.9706 18 16 18C11.0294 18 7 13.9706 7 9C7 4.02944 11.0294 0 16 0C20.9706 0 25 4.02944 25 9ZM1.60633 30.5C2.33418 25.4116 6.71029 21.5 12 21.5H20C25.2897 21.5 29.6658 25.4116 30.3937 30.5H1.60633ZM20 20C26.1194 20 31.169 24.5805 31.9072 30.5C31.9684 30.9914 32 31.492 32 32H0C0 31.492 0.031565 30.9914 0.0928406 30.5C0.830988 24.5805 5.88057 20 12 20H20Z" fill="#3D3D3D"/>
</svg>
