<svg width="24" height="25" viewBox="0 0 24 25" fill="none" xmlns="http://www.w3.org/2000/svg">
<path fill-rule="evenodd" clip-rule="evenodd" d="M11.0025 2.00969C11.0068 2.00976 11.0102 2.00982 11.0127 2.00982H12.9046C12.9071 2.00982 12.9106 2.00976 12.915 2.00969C12.9832 2.0086 13.2641 2.00412 13.5536 2.15609C13.8428 2.30786 14.0216 2.54473 14.136 2.72266C14.3555 3.06407 14.6185 3.65209 15.0136 4.61737C15.846 4.24679 16.3461 4.04782 16.6603 3.94026C16.9889 3.82777 17.1803 3.7916 17.3732 3.7916C17.7094 3.7916 18.0347 3.91039 18.2918 4.12699L18.3342 4.16274L19.7075 5.5045L19.7133 5.51033C19.7151 5.51215 19.7176 5.51461 19.7208 5.51769C19.7697 5.56547 19.9723 5.76335 20.0683 6.07743C20.165 6.39387 20.12 6.69086 20.072 6.89902C19.9814 7.29118 19.7469 7.8814 19.339 8.8171C20.3062 9.16815 20.9012 9.4071 21.2502 9.61481C21.4352 9.72486 21.6866 9.90189 21.8477 10.2004C22.0067 10.4951 22.0017 10.7852 22.0006 10.8524C22.0005 10.8567 22.0005 10.8601 22.0005 10.8626V12.7165C22.0005 12.719 22.0005 12.7225 22.0006 12.7269C22.0017 12.7957 22.0065 13.0837 21.8464 13.3784C21.6885 13.6692 21.4441 13.8458 21.2637 13.9573C20.9194 14.1701 20.3284 14.4247 19.3573 14.8059C19.7816 15.7143 20.0286 16.2942 20.1258 16.6846C20.178 16.8942 20.2278 17.1959 20.1285 17.5195C20.032 17.834 19.8272 18.0333 19.7797 18.0795C19.7766 18.0825 19.7742 18.0849 19.7725 18.0866L19.7672 18.092L18.4369 19.3943C18.1742 19.6515 17.8242 19.8001 17.4567 19.8104L17.4285 19.8108C17.231 19.8108 17.0359 19.7602 16.9231 19.729C16.7806 19.6895 16.6154 19.6352 16.4342 19.5706C16.0789 19.444 15.6148 19.2611 15.0499 19.0263C14.6847 19.9865 14.4369 20.5777 14.2223 20.9234C14.1094 21.1055 13.9303 21.3486 13.6344 21.5033C13.3446 21.6549 13.0616 21.65 12.9948 21.6489C12.9905 21.6488 12.9871 21.6487 12.9847 21.6487H11.0924C11.0899 21.6487 11.0864 21.6488 11.082 21.6489C11.0141 21.65 10.7333 21.6545 10.444 21.5031C10.1544 21.3515 9.97525 21.1146 9.86055 20.9364C9.64068 20.5948 9.37735 20.0065 8.98203 19.0409C8.14963 19.4118 7.65039 19.6109 7.3374 19.7185C7.01083 19.8307 6.81943 19.8677 6.62555 19.8677C6.28563 19.8677 5.95696 19.7458 5.69919 19.5242L5.65976 19.4903L4.28784 18.1483C4.28603 18.1465 4.28356 18.1441 4.28041 18.141C4.23127 18.0935 4.02695 17.8958 3.92988 17.5807C3.83226 17.2637 3.87732 16.966 3.92523 16.758C4.01549 16.3661 4.24952 15.7766 4.65658 14.8428C3.69141 14.4908 3.09762 14.2511 2.74924 14.0432C2.56455 13.9329 2.31366 13.7558 2.15289 13.4576C1.99393 13.1627 1.99911 12.8727 2.00032 12.8054C2.0004 12.8011 2.00046 12.7977 2.00046 12.7952V10.9402C2.00046 10.9377 2.0004 10.9342 2.00032 10.9298C1.99914 10.8614 1.99415 10.5723 2.15344 10.2775C2.31205 9.98392 2.55857 9.80697 2.73896 9.69606C3.08242 9.48489 3.67299 9.23216 4.64143 8.85226C4.21522 7.9406 3.96615 7.35518 3.87047 6.95968C3.81893 6.74663 3.77052 6.43568 3.88215 6.1048C3.98908 5.78783 4.2061 5.59156 4.25486 5.54746L4.25736 5.5452L5.56186 4.2662C5.8233 4.00987 6.17159 3.86127 6.53754 3.8499L6.56858 3.84942C6.76546 3.84942 6.96014 3.89955 7.0738 3.93082C7.21675 3.97016 7.38247 4.02439 7.56435 4.08894C7.91996 4.21514 8.38387 4.39748 8.94834 4.63153C9.31291 3.67092 9.56168 3.08008 9.77747 2.73374C9.89107 2.55143 10.07 2.30996 10.3638 2.15585C10.6535 2.00384 10.9356 2.00857 11.0025 2.00969ZM6.73381 5.91808L5.89673 6.7388C5.99067 6.98655 6.16929 7.40026 6.49427 8.09291C6.72191 8.5781 6.73806 9.14268 6.52646 9.64441C6.32504 10.122 5.93783 10.4928 5.46272 10.6785C4.6904 10.9805 4.25016 11.167 4.00046 11.2868V12.4395C4.24846 12.5517 4.68166 12.7241 5.4329 12.997C5.9271 13.1765 6.33182 13.5543 6.53975 14.0465C6.7449 14.5322 6.73668 15.0778 6.52878 15.5531C6.20812 16.2862 6.03479 16.7171 5.94573 16.9723L6.78433 17.7926C7.03788 17.7002 7.47246 17.5247 8.20983 17.1954C8.6927 16.9798 9.24672 16.9663 9.74346 17.1683C10.2339 17.3677 10.6181 17.7576 10.8154 18.2403C11.12 18.9857 11.3085 19.4095 11.4288 19.6487H12.6378C12.7498 19.4106 12.9226 18.9947 13.1964 18.2737C13.3882 17.7683 13.7824 17.3591 14.2908 17.1536C14.7706 16.9596 15.3043 16.9658 15.7761 17.1623C16.3479 17.4004 16.7894 17.5741 17.1054 17.6866C17.1649 17.7078 17.2182 17.7262 17.2656 17.7421L18.1033 16.922C18.0089 16.6737 17.8298 16.2593 17.5041 15.5644C17.2775 15.081 17.2609 14.5189 17.4702 14.0187C17.6711 13.5387 18.0593 13.1661 18.5359 12.9797C19.3102 12.6768 19.7511 12.4891 20.0005 12.3686V11.2199C19.7524 11.1081 19.3194 10.9367 18.569 10.6653C18.0723 10.4857 17.6656 10.1064 17.457 9.6119C17.2519 9.12561 17.2602 8.57941 17.4683 8.10351C17.7893 7.36938 17.9628 6.93821 18.0519 6.68297L17.215 5.86533C16.9618 5.95716 16.5265 6.13238 15.7859 6.46283C15.3048 6.67746 14.7531 6.6917 14.2576 6.49194C13.7645 6.29311 13.378 5.90209 13.1799 5.41726C12.8757 4.6727 12.6875 4.24915 12.5672 4.00982H11.3604C11.2481 4.24765 11.0746 4.66413 10.8009 5.38684C10.6101 5.89068 10.2177 6.29928 9.71087 6.50505C9.23192 6.6995 8.69888 6.69368 8.22763 6.49783C7.65477 6.25974 7.21224 6.08619 6.89543 5.97376C6.83544 5.95247 6.78168 5.93399 6.73381 5.91808ZM17.5216 17.8175L17.5205 17.8173L17.5216 17.8175Z" fill="currentColor"/>
<circle cx="12" cy="12.0078" r="2" fill="currentColor"/>
</svg>
