<svg width="32" height="32" viewBox="0 0 32 32" fill="none" xmlns="http://www.w3.org/2000/svg">
<path fill-rule="evenodd" clip-rule="evenodd" d="M11.8982 1.55016L13.3465 4.12742L14.18 4.02305C14.6746 3.96111 15.179 3.92913 15.6915 3.92913C16.1878 3.92913 16.6765 3.95911 17.156 4.01724L17.9864 4.11791L19.4293 1.55016L23.3858 3.05016L22.4034 5.93429L23.1024 6.48141C23.8614 7.07548 24.5475 7.75873 25.1448 8.51532L25.6426 9.1458L28.6985 8.39818L30.2711 12.2122L27.5599 13.7725L27.6537 14.5887C27.7061 15.0455 27.7332 15.5105 27.7332 15.9823C27.7332 16.4721 27.704 16.9545 27.6476 17.428L27.5491 18.2536L30.3925 19.8654L28.6492 23.7375L25.5782 22.9128L25.0672 23.5465C24.5021 24.2473 23.8602 24.8834 23.1545 25.4421L22.4726 25.9819L23.356 28.6976L19.2006 30.1655L17.8515 27.87L17.0457 27.9602C16.6016 28.0098 16.1498 28.0354 15.6915 28.0354C15.1849 28.0354 14.6861 28.0042 14.1968 27.9436L13.3645 27.8406L11.8982 30.4498L7.94167 28.9498L8.94434 26.0062L8.24955 25.4587C7.51643 24.881 6.85187 24.2198 6.27026 23.4896L5.75832 22.8469L2.8981 23.6227L1.4998 19.8502L3.8209 18.1465L3.73487 17.4227C3.6788 16.9508 3.6499 16.4702 3.6499 15.9823C3.6499 15.5144 3.67647 15.0532 3.72809 14.6001L3.82093 13.7852L1.63811 12.5273L3.53763 8.66363L5.69954 9.20458L6.19976 8.56429C6.7957 7.80148 7.48143 7.11226 8.24092 6.51265L8.93454 5.96504L7.94167 3.05016L11.8982 1.55016ZM24.9586 2.30961L18.8666 0L17.3064 2.77633C16.7771 2.71216 16.2382 2.67913 15.6915 2.67913C15.127 2.67913 14.5707 2.71436 14.0247 2.78273L12.4609 0L6.3689 2.30961L7.46636 5.53155C6.62851 6.19302 5.87212 6.95327 5.21473 7.79473L2.86141 7.2059L1.89925e-05 13.026L2.48612 14.4587C2.42916 14.9586 2.3999 15.467 2.3999 15.9823C2.3999 16.5196 2.43173 17.0495 2.4936 17.5702L0 19.4004L2.12299 25.1282L5.29251 24.2684C5.93408 25.0739 6.66711 25.8032 7.47588 26.4405L6.3689 29.6904L12.4609 32L14.0433 29.1841C14.5833 29.251 15.1334 29.2854 15.6915 29.2854C16.1963 29.2854 16.6946 29.2572 17.1847 29.2024L18.6452 31.6874L24.9218 29.4702L23.9303 26.4222C24.7089 25.8059 25.4169 25.1042 26.0402 24.3312L29.3524 25.2206L32 19.3398L28.8888 17.5761C28.9511 17.0535 28.9832 16.5217 28.9832 15.9823C28.9832 15.4627 28.9534 14.9501 28.8955 14.4461L31.8445 12.7489L29.4447 6.92875L26.1259 7.74071C25.4669 6.90612 24.7101 6.15246 23.8729 5.49709L24.9586 2.30961ZM20.625 16C20.625 18.5543 18.5543 20.625 16 20.625C13.4457 20.625 11.375 18.5543 11.375 16C11.375 13.4457 13.4457 11.375 16 11.375C18.5543 11.375 20.625 13.4457 20.625 16ZM16 21.875C19.2447 21.875 21.875 19.2447 21.875 16C21.875 12.7553 19.2447 10.125 16 10.125C12.7553 10.125 10.125 12.7553 10.125 16C10.125 19.2447 12.7553 21.875 16 21.875Z" fill="#3D3D3D"/>
</svg>
