<svg width="24" height="24" viewBox="0 0 24 24" fill="none" xmlns="http://www.w3.org/2000/svg">
<path fill-rule="evenodd" clip-rule="evenodd" d="M2 4.04169C2 3.46638 2.46638 3 3.04169 3H5.15004C6.42278 3 7.55576 3.76978 8.03557 4.92487H18.8724C21.018 4.92487 22.5254 7.03745 21.8276 9.06637L20.815 12.0103C20.3811 13.2719 19.194 14.1189 17.8599 14.1189H9.0654C8.79025 14.1189 8.5672 14.342 8.5672 14.6171C8.5672 14.8923 8.79025 15.1153 9.0654 15.1153H19.3465C19.9218 15.1153 20.3881 15.5817 20.3881 16.157C20.3881 16.7323 19.9218 17.1987 19.3465 17.1987H9.0654C7.63962 17.1987 6.48381 16.0429 6.48381 14.6171C6.48381 13.6191 7.05019 12.7533 7.87907 12.3237L6.27116 6.24637L6.14965 5.83198C6.01954 5.38824 5.61247 5.08339 5.15004 5.08339H3.04169C2.46638 5.08339 2 4.617 2 4.04169ZM8.6278 7.00825L9.95791 12.0356H17.8599C18.3046 12.0356 18.7003 11.7532 18.8449 11.3327L19.8575 8.38876C20.0901 7.71245 19.5876 7.00825 18.8724 7.00825H8.6278ZM10 19.5C10 20.3284 9.32843 21 8.5 21C7.67157 21 7 20.3284 7 19.5C7 18.6716 7.67157 18 8.5 18C9.32843 18 10 18.6716 10 19.5ZM17.5 21C18.3284 21 19 20.3284 19 19.5C19 18.6716 18.3284 18 17.5 18C16.6716 18 16 18.6716 16 19.5C16 20.3284 16.6716 21 17.5 21Z" fill="currentColor"/>
</svg>
