<svg width="24" height="24" viewBox="0 0 24 24" fill="none" xmlns="http://www.w3.org/2000/svg">
<path fill-rule="evenodd" clip-rule="evenodd" d="M24 1H0V3.16803H3.74269V11.9344C3.74269 13.6311 4.8655 14.998 6.78363 14.998H21.1462V12.9242H6.78363C6.26901 12.9242 5.80117 12.5 5.80117 11.9344V10.6619H20.5848L24 2.93238V1ZM8.98257 20.8893C8.98257 22.6073 7.60015 24 5.89485 24C4.18955 24 2.80713 22.6073 2.80713 20.8893C2.80713 19.1714 4.18955 17.7787 5.89485 17.7787C7.60015 17.7787 8.98257 19.1714 8.98257 20.8893ZM20.8656 24C22.5709 24 23.9533 22.6073 23.9533 20.8893C23.9533 19.1714 22.5709 17.7787 20.8656 17.7787C19.1603 17.7787 17.7778 19.1714 17.7778 20.8893C17.7778 22.6073 19.1603 24 20.8656 24Z" fill="currentColor" />
</svg>
