<svg width="24" height="24" viewBox="0 0 24 24" fill="none" xmlns="http://www.w3.org/2000/svg">
<path fill-rule="evenodd" clip-rule="evenodd" d="M12.0019 0C15.2067 0 18.2197 1.24805 20.4859 3.51413C22.752 5.7803 24 8.79328 24 11.9981C24 15.2029 22.752 18.2159 20.4859 20.482C18.2197 22.7481 15.2067 23.9962 12.0019 23.9962C9.99525 23.9962 8.01872 23.4932 6.26752 22.5393L0 24L1.46067 17.7325C0.506766 15.9813 0.00384375 14.0048 0.00384375 11.9981C0.00384375 8.79328 1.25189 5.7803 3.51802 3.51413C5.78414 1.24805 8.79712 0 12.0019 0ZM2.81588 11.9981C2.81588 17.0633 6.9367 21.1841 12.0019 21.1841C17.0671 21.1841 21.188 17.0633 21.188 11.9981C21.188 6.93286 17.0671 2.81203 12.0019 2.81203C6.9367 2.81203 2.81588 6.93286 2.81588 11.9981ZM14.3709 6.31687C13.8901 5.35519 13.3072 4.68942 12.705 4.39261V11.295H15.5253C15.445 9.40683 15.0424 7.65994 14.3709 6.31687ZM12.705 12.7011V12.7011V19.6035C13.3071 19.3067 13.8901 18.6409 14.3709 17.6792C15.0424 16.3363 15.445 14.5893 15.5253 12.7011H12.705ZM9.63291 17.6793C8.96142 16.3363 8.55886 14.5894 8.47856 12.7011H11.2989V19.6035C10.6967 19.3067 10.1137 18.641 9.63291 17.6793ZM9.63291 6.31687C8.96142 7.65984 8.55886 9.40678 8.47856 11.295H11.2989V4.39265C10.6967 4.68947 10.1137 5.35528 9.63291 6.31687ZM15.6285 5.68805C15.4868 5.40446 15.3364 5.1406 15.1786 4.89666C17.686 6.02274 19.4927 8.43886 19.7498 11.295H16.9324C16.8493 9.1882 16.3938 7.21866 15.6285 5.68805ZM16.9324 12.7011C16.8493 14.808 16.3938 16.7775 15.6285 18.3081C15.4867 18.5917 15.3364 18.8556 15.1786 19.0995C17.6859 17.9735 19.4927 15.5573 19.7498 12.7011H16.9324ZM7.07137 12.7011C7.15453 14.8079 7.61001 16.7775 8.3753 18.3081C8.51714 18.5917 8.66742 18.8556 8.8252 19.0995C6.31786 17.9734 4.51106 15.5573 4.254 12.7011H7.07137ZM4.254 11.295H7.07137C7.15453 9.1882 7.60997 7.21866 8.3753 5.68805C8.51714 5.40446 8.66742 5.1406 8.8252 4.89666C6.31781 6.02269 4.51111 8.43881 4.254 11.295Z" fill="currentColor"/>
</svg>
