<svg width="22" height="22" viewBox="0 0 22 22" fill="none" xmlns="http://www.w3.org/2000/svg">
    <path
        d="M8.937 14.5002C8.84772 14.1542 8.66734 13.8384 8.41462 13.5856C8.1619 13.3329 7.84607 13.1525 7.5 13.0632L1.365 11.4812C1.26033 11.4515 1.16821 11.3885 1.10261 11.3017C1.03702 11.2149 1.00153 11.1091 1.00153 11.0002C1.00153 10.8914 1.03702 10.7856 1.10261 10.6988C1.16821 10.612 1.26033 10.549 1.365 10.5192L7.5 8.93625C7.84595 8.84706 8.16169 8.66682 8.4144 8.41429C8.66711 8.16175 8.84757 7.84614 8.937 7.50025L10.519 1.36525C10.5484 1.26017 10.6114 1.16759 10.6983 1.10164C10.7853 1.0357 10.8914 1 11.0005 1C11.1096 1 11.2157 1.0357 11.3027 1.10164C11.3896 1.16759 11.4526 1.26017 11.482 1.36525L13.063 7.50025C13.1523 7.84632 13.3327 8.16215 13.5854 8.41487C13.8381 8.66759 14.1539 8.84797 14.5 8.93725L20.635 10.5182C20.7405 10.5473 20.8335 10.6103 20.8998 10.6973C20.9661 10.7844 21.0021 10.8908 21.0021 11.0002C21.0021 11.1097 20.9661 11.2161 20.8998 11.3032C20.8335 11.3902 20.7405 11.4531 20.635 11.4822L14.5 13.0632C14.1539 13.1525 13.8381 13.3329 13.5854 13.5856C13.3327 13.8384 13.1523 14.1542 13.063 14.5002L11.481 20.6353C11.4516 20.7403 11.3886 20.8329 11.3017 20.8989C11.2147 20.9648 11.1086 21.0005 10.9995 21.0005C10.8904 21.0005 10.7843 20.9648 10.6973 20.8989C10.6104 20.8329 10.5474 20.7403 10.518 20.6353L8.937 14.5002Z"
        stroke="currentColor" stroke-width="2" stroke-linecap="round" stroke-linejoin="round" />
    <path d="M19 2V6" stroke="currentColor" stroke-width="2" stroke-linecap="round" stroke-linejoin="round" />
    <path d="M21 4H17" stroke="currentColor" stroke-width="2" stroke-linecap="round" stroke-linejoin="round" />
    <path d="M3 16V18" stroke="currentColor" stroke-width="2" stroke-linecap="round" stroke-linejoin="round" />
    <path d="M4 17H2" stroke="currentColor" stroke-width="2" stroke-linecap="round" stroke-linejoin="round" />
</svg>