<svg width="38" height="42" viewBox="0 0 38 42" fill="none" xmlns="http://www.w3.org/2000/svg">
<path fill-rule="evenodd" clip-rule="evenodd" d="M30.3499 0.120202C31.9135 -0.338174 33.5532 0.554389 34.0188 2.1173L36.2416 9.58019L9.8841 17.3069H35.0397C36.6746 17.3069 38 18.6336 38 20.2701V39.0368C38 40.6733 36.6746 42 35.0397 42H4.97741C3.34249 42 2.01713 40.6733 2.01713 39.0368V18.4387L0.124194 12.0835C-0.344537 10.5098 0.554651 8.85467 2.12906 8.39314L30.3499 0.120202ZM3.99065 19.2823V24.7148H7.45049L10.7514 19.2823H3.99065ZM13.0613 19.2823L9.76037 24.7148H13.9523L17.2532 19.2823H13.0613ZM19.5631 19.2823L16.2622 24.7148H20.4541L23.755 19.2823H19.5631ZM26.0649 19.2823L22.7639 24.7148H26.9559L30.2568 19.2823H26.0649ZM32.5666 19.2823L29.2657 24.7148H36.0265V20.2701C36.0265 19.7246 35.5847 19.2823 35.0397 19.2823H32.5666ZM36.0265 26.6903H3.99065V39.0368C3.99065 39.5823 4.43243 40.0246 4.97741 40.0246H35.0397C35.5847 40.0246 36.0265 39.5823 36.0265 39.0368V26.6903ZM3.66895 17.0705L2.01544 11.5191C1.8592 10.9945 2.15893 10.4428 2.68373 10.289L4.23364 9.8346L9.87747 15.2504L3.66895 17.0705ZM12.0619 14.61L16.5816 13.2851L10.8792 7.88646L6.41809 9.19423L12.0619 14.61ZM13.0722 7.24358L18.7746 12.6422L22.8324 11.4527L17.2339 6.02358L13.0722 7.24358ZM19.4118 5.38512L25.0104 10.8142L28.9067 9.672L23.5477 4.17268L19.4118 5.38512ZM25.692 3.54407L31.0511 9.04338L33.7838 8.24229L32.1275 2.68172C31.9723 2.16075 31.4258 1.86323 30.9046 2.01602L25.692 3.54407ZM16.9978 28.3141C17.2937 28.1352 17.6615 28.1244 17.9673 28.2855L25.4694 32.2364C25.7858 32.403 25.9874 32.728 25.9964 33.0857C26.0053 33.4435 25.8202 33.7782 25.5126 33.9605L18.0105 38.4052C17.7055 38.5859 17.3271 38.589 17.0191 38.4133C16.7112 38.2376 16.5211 37.91 16.5211 37.5552V29.1596C16.5211 28.8136 16.7019 28.4929 16.9978 28.3141ZM18.4946 30.7953V35.8228L22.987 33.1612L18.4946 30.7953Z" fill="#3D3D3D"/>
</svg>
