<svg width="38" height="24" viewBox="0 0 38 24" xmlns="http://www.w3.org/2000/svg" role="img" aria-labelledby="pi-bancocuscatlan"><title id="pi-bancocuscatlan">Banco Cuscatlan</title><path fill="#000" opacity=".07" d="M35 0H3C1.3 0 0 1.3 0 3v18c0 1.7 1.4 3 3 3h32c1.7 0 3-1.3 3-3V3c0-1.7-1.4-3-3-3z"/><path fill="#fff" d="M35 1c1.1 0 2 .9 2 2v18c0 1.1-.9 2-2 2H3c-1.1 0-2-.9-2-2V3c0-1.1.9-2 2-2h32"/><path d="M4.875 13.647c.236.001.471.015.705.042a6.89 6.89 0 00-.391.588 2.552 2.552 0 01-.626.006 6.474 6.474 0 00-.393-.594c.234-.027.47-.04.705-.042zm5.277-2.825c.752 0 1.292.421 1.507.944l-.64.181a.987.987 0 00-.892-.5c-.6 0-1.005.439-1.005 1.106 0 .683.427 1.112 1 1.112.459 0 .785-.247.939-.582l.633.172c-.25.643-.84 1.036-1.542 1.036-.963 0-1.684-.695-1.684-1.743 0-1.025.721-1.726 1.684-1.726zm2.463 1.93c0 .625.242.911.732.911s.73-.286.73-.91v-1.864h.643l-.003 1.884c0 .985-.53 1.518-1.377 1.518-.855 0-1.38-.536-1.38-1.518v-1.884h.655v1.863zm6.77-1.93c.753 0 1.292.421 1.508.944l-.64.181a.987.987 0 00-.893-.5c-.6 0-1.004.439-1.004 1.106 0 .683.428 1.112 1 1.112.46 0 .785-.247.94-.582l.632.172c-.25.643-.841 1.036-1.543 1.036-.963 0-1.685-.698-1.685-1.743 0-1.025.722-1.726 1.685-1.726zm-3.128-.002c.642 0 1.106.272 1.28.859l-.62.167c-.084-.281-.297-.438-.674-.438-.357 0-.515.14-.515.375 0 .334.343.396.8.492.482.093 1.032.285 1.032 1.015 0 .663-.457.997-1.228.997-.557 0-1.195-.176-1.352-.91l.617-.17c.05.329.334.5.733.5.353 0 .573-.137.573-.414 0-.395-.438-.39-.842-.491-.442-.105-.995-.3-.995-.997 0-.649.474-.985 1.191-.985zM4.055 13.702c.133.177.26.366.38.56a2.513 2.513 0 01-1.041-.438c.218-.052.439-.092.66-.122zm1.64 0c.215.028.427.067.637.118a2.53 2.53 0 01-1.012.436c.116-.19.241-.376.375-.554zm18.584.527h-.696l-.247-.67h-1.463l-.245.67h-.685l1.301-3.34h.73l1.305 3.34zm2.294-2.725h-1.036v2.725h-.647v-2.725h-1.037v-.615h2.72v.615zm.954 2.11h1.543v.615h-2.19v-3.34h.647v2.725zm4.998.615h-.694l-.246-.67H30.12l-.245.67h-.685l1.302-3.34h.732l1.302 3.34zm2.44-1.14h.014c0-.013-.01-.426-.01-.788v-1.412h.646v3.34h-.655l-1.557-2.235h-.014c0 .007.01.408.01.831v1.404h-.646v-3.34h.654l1.558 2.2zm-31.978-.505a6.431 6.431 0 01.998 1.026 6.568 6.568 0 00-.695.136c-.162-.13-.31-.28-.437-.445.056-.236.102-.476.134-.717zm3.777 0c.03.23.071.46.124.685a2.612 2.612 0 01-.453.47 6.444 6.444 0 00-.67-.13 6.506 6.506 0 01.999-1.025zM5.652 9.748a6.579 6.579 0 001.097 1.126 6.667 6.667 0 000 1.593c-.409.329-.778.707-1.098 1.127a6.227 6.227 0 00-1.552 0 6.481 6.481 0 00-1.097-1.127 6.959 6.959 0 000-1.593c.204-.164.398-.34.582-.528.183-.189.354-.388.513-.598.257.032.517.05.776.05h.002c.26 0 .519-.018.777-.05zm-.46.2a1.672 1.672 0 00-.989.101 1.725 1.725 0 00-.77.648 1.791 1.791 0 00.215 2.218c.32.33.757.515 1.21.516.34 0 .671-.103.953-.296a1.75 1.75 0 00.63-.79 1.8 1.8 0 00.098-1.015 1.774 1.774 0 00-.468-.9 1.702 1.702 0 00-.878-.482zm-2.857 2.165c.194.122.38.256.56.399-.028.23-.068.459-.12.684a2.663 2.663 0 01-.44-1.083zm5.043.024a2.665 2.665 0 01-.411 1.021 6.399 6.399 0 01-.112-.646c.164-.13.338-.256.523-.375zm14.992.088l-.274.734h1.013l-.269-.734c-.112-.286-.223-.582-.229-.588H22.6c-.006.005-.117.297-.229.588zm8.243 0l-.274.734h1.014l-.267-.734c-.111-.286-.222-.58-.228-.588h-.016c-.005.006-.116.297-.229.588zM2.91 10.948c.027.24.04.482.041.724a6.866 6.866 0 01-.04.723 6.639 6.639 0 00-.593-.412 2.697 2.697 0 010-.623c.205-.127.403-.264.592-.412zm3.929-.002c.179.14.364.27.557.39a2.609 2.609 0 010 .667 6.702 6.702 0 00-.555.392 7.081 7.081 0 01-.042-.723l-.001-.002c.001-.242.015-.483.041-.723zm-4.063-.795c.051.224.091.451.12.68-.18.143-.367.277-.56.4.066-.39.216-.759.44-1.08zm4.188.037c.205.305.346.652.412 1.016a7.096 7.096 0 01-.521-.373h-.003a6.32 6.32 0 01.112-.643zm-3.67-.592c.227.059.458.105.69.138a6.385 6.385 0 01-.997 1.024 7.287 7.287 0 00-.133-.713c.128-.167.276-.318.44-.449zm3.137.009c.171.137.325.296.457.473a6.789 6.789 0 00-.124.68 6.466 6.466 0 01-.998-1.024c.224-.031.446-.074.665-.13zM12.86 9c.22 0 .438.108.536.347l-.109.028a.47.47 0 00-.173-.196.452.452 0 00-.248-.07c-.283 0-.49.204-.49.5a.498.498 0 00.135.363.47.47 0 00.351.144.472.472 0 00.436-.265l.108.031a.613.613 0 01-.283.286.592.592 0 01-.731-.174.633.633 0 01.04-.82A.583.583 0 0112.86 9zm1.326 0a.576.576 0 01.555.377c.03.075.044.156.042.237a.622.622 0 01-.174.433.59.59 0 01-.844 0 .622.622 0 01-.175-.433.615.615 0 01.17-.437.585.585 0 01.426-.177zm-4.984.024c.202 0 .337.132.337.288a.25.25 0 01-.048.168.238.238 0 01-.145.092v.006c.114.015.274.099.274.295 0 .197-.144.328-.383.328h-.466V9.024h.431zm1.649 1.176h-.118l-.14-.344h-.583l-.137.344h-.118l.485-1.176h.128l.483 1.176zm1.043-.19h.004a9.27 9.27 0 01-.004-.26v-.726h.114V10.2h-.114l-.707-1h-.004c0 .009.004.133.004.269v.73h-.113V9.024h.117l.703.986zm2.292-.9c-.271 0-.48.203-.48.504a.494.494 0 00.134.358.469.469 0 00.346.144.464.464 0 00.347-.144.486.486 0 00.135-.358.497.497 0 00-.135-.36.472.472 0 00-.347-.144zm-5.303.987h.35c.153 0 .269-.083.27-.226 0-.143-.127-.237-.28-.237h-.34v.463zm1.28-.626l-.112.281h.5l-.12-.296c-.087-.213-.124-.321-.127-.325H10.3c-.002.004-.047.123-.137.34zM4.56 9.067c.21-.028.424-.026.635.005.118.2.249.397.386.585-.234.028-.47.041-.705.042-.236 0-.471-.014-.706-.042.14-.19.27-.387.39-.59zm-.127.017c-.116.192-.24.378-.375.557a6.4 6.4 0 01-.66-.122c.31-.222.663-.37 1.035-.435zm.892.008c.36.07.703.217 1.002.434a6.67 6.67 0 01-.631.115l-.192-.27a6.59 6.59 0 01-.179-.279zm3.56.45l.297-.004c.118 0 .246-.066.246-.21 0-.111-.091-.199-.243-.199h-.3v.412z" fill="#165C7D"/></svg>