<svg xmlns="http://www.w3.org/2000/svg" role="img" viewBox="0 0 38 24" width="38" height="24" aria-labelledby="pi-bnplx"><title id="pi-bnplx">Buy now, pay later</title><rect width="38" height="24" rx="3" fill="#F5F5F5"/><rect x=".5" y=".5" width="37" height="23" rx="2.5" stroke="#000" stroke-opacity=".07" fill="none"/><svg x="7" y="3" width="24" height="18" viewBox="394.32 430.3 46.18 73.1"><g><path d="M440.4938,432.3943 C440.5058,432.1583 440.4938,431.9223 440.4938,431.6993 L440.4818,431.1893 C440.0218,420.6253 431.4958,411.8263 420.6458,410.7193 C420.2108,410.6703 419.7758,410.6453 419.4158,410.6333 C419.0548,410.6203 418.6948,410.6083 418.3468,410.6083 C418.2848,410.5953 418.2098,410.5953 418.1348,410.5953 C418.0358,410.5953 417.9238,410.6083 417.8128,410.6083 L417.7498,410.9683 V410.6083 C417.6008,410.6083 417.5138,410.6203 417.4148,410.6203 C417.3148,410.6203 417.2158,410.6203 417.1288,410.6333 C405.7938,411.2043 396.7708,419.9293 396.1618,430.9153 C396.1618,431.0153 396.1618,431.0773 396.1498,431.1393 C396.1498,431.2883 396.1378,431.4003 396.1378,431.5243 L396.1498,431.5993 C396.1378,431.6743 396.1378,431.8353 396.1748,431.9843 C396.3118,432.8043 396.9578,433.4513 397.8398,433.6253 C398.7098,433.8113 399.5548,433.4633 400.0398,432.7423 C400.2138,432.4943 400.4008,432.2333 400.5868,431.9843 L400.6368,431.9223 C404.7878,426.3793 411.4868,423.1603 418.5578,423.3473 C425.5798,423.5213 432.0798,427.0383 435.9328,432.7543 C436.1318,433.0533 436.3298,433.3523 436.5168,433.6743 C437.0138,434.4823 437.9338,434.8553 438.8778,434.6193 C439.8228,434.3833 440.4568,433.6253 440.4818,432.6933" transform="matrix(1,0,0,-1,0,914)" fill="#16A34A"/><path d="M404.0916,463.8131 C404.0916,467.4921 405.1856,470.4121 407.3726,472.6121 C409.5726,474.7991 412.5306,475.8931 416.2586,475.8931 C419.9246,475.8931 422.8576,474.7991 425.0456,472.6121 C427.2326,470.4121 428.3266,467.4921 428.3266,463.8131 V454.9391 C428.3266,451.1491 427.2696,448.1901 425.1826,446.0651 C423.0696,443.9281 420.0986,442.8711 416.2586,442.8711 C412.4686,442.8711 409.4976,443.9281 407.3356,446.0651 C405.1726,448.1901 404.0916,451.1491 404.0916,454.9391 M416.2586,435.0541 C421.0936,435.0541 425.1196,435.9741 428.3266,437.8251 V429.9831 C428.6866,430.1951 429.0476,430.4061 429.3956,430.6421 C434.9626,434.2961 438.0826,440.7091 438.0826,447.3711 L438.0946,459.4631 C438.0946,459.6371 438.0946,459.8111 438.0826,459.9731 C438.0206,466.7591 436.5536,472.0651 433.6836,475.8931 H438.0946 V483.6981 H416.2586 C409.6846,483.6981 404.3896,481.7221 400.3636,477.7571 C396.3366,473.7931 394.3226,467.6911 394.3226,459.4631 V459.1151 C394.3856,451.6581 396.2116,445.7801 399.7916,441.4921 C403.3706,437.2041 408.8516,435.0541 416.2586,435.0541" transform="matrix(1,0,0,-1,0,914)" fill="#393a3e"/></g></svg></svg>
