<svg width="38" height="24" viewBox="0 0 38 24" xmlns="http://www.w3.org/2000/svg" role="img" aria-labelledby="pi-broadnet"><title id="pi-broadnet">Broadnet</title><path fill="#000" opacity=".07" d="M35 0H3C1.3 0 0 1.3 0 3v18c0 1.7 1.4 3 3 3h32c1.7 0 3-1.3 3-3V3c0-1.7-1.4-3-3-3z"/><path fill="#fff" d="M35 1c1.1 0 2 .9 2 2v18c0 1.1-.9 2-2 2H3c-1.1 0-2-.9-2-2V3c0-1.1.9-2 2-2h32z"/><path fill="#FDFEFD" d="M3 1h32c1.1 0 2 .9 2 2v18c0 1.1-.9 2-2 2H3c-1.1 0-2-.9-2-2V3c0-1.1.9-2 2-2z"/><path d="M6.187 8.631h.26l.45.046.38.092.45.183.355.183.307.23.214.183.165.183.237.298.237.413.142.343.119.436.047.32v.482l-.071.435-.142.459-.213.435-.19.275-.213.252-.332.321-.355.252-.402.206-.569.184-.355.068-.426.023-.521-.046-.545-.137-.26-.115-.024-.045.047-.092-.426-.23-.237-.183-.308-.252-.166-.183-.047-.115h-.19l-.237-.412-.142-.32-.142-.574-.023-.206v-.435l.07-.459.143-.481.142-.32.237-.368.19-.229.212-.229.308-.252.332-.206.379-.184.426-.137.403-.069.284-.023z" fill="#053E7F"/><path d="M6.613 9.64l.071.068.095.367.071.412.024.23v.825l-.024.252-.047.137v.16l.592.115.142.069.07.114.072.459v.344l-.07.366-.19.367-.214.23-.237.16-.284.114-.26.069-.38.046h-.52l-.545-.046-.426-.23-.237-.183-.308-.252-.166-.183-.047-.115h-.19l-.047-.068-.024-.138.024-.687.07-.413.096-.32.094-.23.095-.206.142-.252.213-.275.26-.275.261-.207.261-.183.355-.206.403-.183.71-.23.095-.022z" fill="#EE1A27"/><path d="M10.166 9.433h2.131l.45.07.308.114.213.16.143.183.094.207.048.229v.275l-.071.344-.095.137-.119.092-.26.091-.19.023v.046l.308.046.237.115.19.206.07.183.024.183v.642l-.047.252-.118.23-.166.16-.26.114-.593.115-.355.023h-1.942l-.024-4.217.024-.023zm13.879 0h1.279v1.055L25.3 13.65l-.047.023h-1.16l-.072-.046.047-.206-.45.206-.165.046h-.45l-.308-.092-.142-.091-.143-.16-.07-.184V10.67l.07-.206.166-.16.213-.092.166-.023h.38l.45.068.283.138-.023-.046v-.916z" fill="#EF1B27"/><path d="M17.508 10.167l.45.023.379.091.237.092.213.16.142.184.095.229.023.229v1.49l-.07.32-.143.275-.19.16-.284.138-.378.092-.285.023h-.592l-.308-.046-.236-.092-.237-.183-.143-.206-.07-.252-.024-.252v-1.49l.07-.32.12-.207.212-.206.332-.16.284-.07.403-.022zm2.582.069h1.136l.38.068.236.115.19.206.094.298.024.252v2.498l-.071.023h-.805l-.38-.023-.023-.069.024-.16-.095.023-.166.137-.166.069-.236.023h-.214l-.331-.046-.213-.114-.142-.184-.072-.229-.023-.183v-.482l.047-.252.095-.137.213-.138.332-.137.758-.252.118-.115.024-.069v-.366l-.071-.184-.166-.022-.071.022-.048.207v.412h-1.207l-.024-.023v-.206l.07-.412.096-.184.165-.16.237-.138.284-.069.001.001z" fill="#EF1C27"/><path d="M6.14 12.16l.663.023.592.115.213.092.071.458v.344l-.07.366-.19.367-.214.23-.237.16-.284.114-.26.069-.38.046h-.52l-.545-.046-.426-.23-.237-.183-.308-.252v-.068l.095-.298.237-.436.165-.206.213-.206.332-.207.284-.114.332-.092.474-.046z" fill="#F7942D"/><path d="M30.582 10.19h.686l.285.068.236.092.285.183.118.092.213.252.19.32.095.276.047.23v.25l-3.127.024.048.32.118.299.142.206.024.069h.047v.046h.048v.046l.095.045.26.138.213.069.166.023h.308l.379-.092.332-.16.142-.115.213-.275.07-.115.12.023.283.138-.047.114-.142.207-.213.229-.237.183-.379.183-.426.092h-.45l-.356-.07-.307-.113-.214-.138-.237-.206-.213-.275-.165-.344-.072-.298-.023-.183v-.23l.07-.39.12-.274.165-.275.284-.298.26-.183.261-.115.285-.068z" fill="#063E7F"/><path d="M15.897 10.12l.071.024v1.214l-.379.046-.19.115-.094.091-.07.253-.024.504-.024 1.306h-1.255l-.024-.55v-2.796l.024-.137h1.255l.024.091-.048.275.118-.114.19-.16.237-.115.19-.046-.001-.001z" fill="#EF1C27"/><path d="M27.218 10.19h.569l.308.091.26.16.166.161.166.275.095.298.047.412v2.017l-.45-.023-.024-1.97-.047-.39-.095-.252-.166-.207-.284-.137-.26-.046h-.19l-.284.069-.237.114-.213.184-.166.229-.118.252-.048.23-.023.297-.024 1.65-.426-.023v-3.323h.426v.573l.355-.343.308-.184.26-.091.095-.023zm6.277-.71h.45v.71l.687.023v.366l-.664.023-.023 3.002-.45-.023-.024-2.956-.024-.023-.544-.023-.024-.115.024-.252.544-.022.024-.023.024-.687z" fill="#073F80"/><path d="M30.724 10.58h.402l.355.09.308.161.237.23.19.366.023.138-.331.023h-2.25l-.024-.07.19-.366.165-.206.214-.183.308-.138.213-.045zm-7.011.182h.237l.071.115.024.069v1.81l-.071.298-.048.023h-.213l-.095-.092V10.9l.048-.115.047-.023zm-6.229 0h.142l.095.092.024.275v1.123l-.024.802-.095.046h-.142l-.095-.115-.023-.068-.024-.367.024-1.581.07-.184.048-.023zM11.705 11.77h.213l.166.07.048.091v.665l-.024.206-.119.092-.094.023h-.19l-.024-.023v-1.1l.024-.024zM11.704 10h.213l.166.07.048.091v.665l-.024.206-.119.092-.094.023h-.19l-.024-.023v-1.1l.024-.024z" fill="#FDFEFD"/><path d="M20.776 12.069h.095v.618l-.024.344-.094.069h-.19l-.095-.092-.023-.114v-.39l.07-.206.166-.16.095-.07v.001z" fill="#FEFEFD"/></svg>