<svg xmlns="http://www.w3.org/2000/svg" role="img" viewBox="0 0 38 24" width="38" height="24" aria-labelledby="pi-galehsa"><title id="pi-galehsa">Gale HSA</title><path fill="#000" opacity=".07" d="M35 0H3C1.3 0 0 1.3 0 3v18c0 1.7 1.4 3 3 3h32c1.7 0 3-1.3 3-3V3c0-1.7-1.4-3-3-3z"/><path fill="#fff" d="M35 1c1.1 0 2 .9 2 2v18c0 1.1-.9 2-2 2H3c-1.1 0-2-.9-2-2V3c0-1.1.9-2 2-2h32"/><g fill="#0F1112"><path d="M8.99 16V7.9h1.49v3.36h3.74V7.9h1.49V16h-1.49v-3.42h-3.74V16zM20.336 16.12c-.647 0-1.214-.11-1.7-.33a2.75 2.75 0 01-1.15-.93 2.8 2.8 0 01-.47-1.4h1.52c.066.46.26.813.58 1.06.326.24.753.36 1.28.36.473 0 .836-.1 1.09-.3.26-.2.39-.473.39-.82 0-.273-.09-.5-.27-.68-.174-.187-.45-.323-.83-.41l-1.34-.3c-.707-.16-1.24-.427-1.6-.8-.354-.373-.53-.847-.53-1.42 0-.473.116-.887.35-1.24a2.31 2.31 0 011.01-.83c.433-.2.94-.3 1.52-.3.593 0 1.11.103 1.55.31.446.207.803.497 1.07.87.266.373.42.817.46 1.33h-1.52c-.08-.427-.264-.75-.55-.97-.287-.22-.65-.33-1.09-.33-.414 0-.744.093-.99.28a.875.875 0 00-.36.74c0 .24.083.45.25.63.173.173.44.3.8.38l1.4.32c.706.153 1.236.42 1.59.8.353.38.53.88.53 1.5 0 .76-.264 1.363-.79 1.81-.52.447-1.254.67-2.2.67zM23.7 16l3.12-8.1h1.55l3.08 8.1H29.9l-.75-2.12H26L25.2 16h-1.5zm2.75-3.4h2.27l-1.09-3.05h-.04l-1.14 3.05z"/></g></svg>