<svg xmlns="http://www.w3.org/2000/svg" role="img" viewBox="0 0 38 24" width="38" height="24" aria-labelledby="pi-iberent"><title id="pi-iberent">Iberent</title><path opacity=".07" d="M35 0H3C1.3 0 0 1.3 0 3v18c0 1.7 1.4 3 3 3h32c1.7 0 3-1.3 3-3V3c0-1.7-1.4-3-3-3z"/><path fill="#fff" d="M35 1c1.1 0 2 .9 2 2v18c0 1.1-.9 2-2 2H3c-1.1 0-2-.9-2-2V3c0-1.1.9-2 2-2h32"/><path fill="#1d71b8" d="M3.337 10.986c0-.066.02-.121.061-.165.04-.044.1-.067.178-.067h.672a.27.27 0 01.235.14.18.18 0 01.024.091v4.365c0 .152-.085.228-.255.228H3.58c-.162 0-.243-.076-.243-.228v-4.365zM17.122 10.978c0-.073.026-.129.079-.167a.29.29 0 01.173-.057h.516c.068 0 .119.019.154.057a.39.39 0 01.081.141.905.905 0 01.041.181c.008.065.018.123.028.177.06-.078.126-.155.201-.23a1.347 1.347 0 01.573-.34c.119-.035.254-.053.405-.053.135 0 .256.008.364.025a1.734 1.734 0 01.599.209c.094.055.196.119.304.192a.54.54 0 01.119.095.174.174 0 01.051.125l-.012.065a.195.195 0 01-.032.069l-.332.494a.19.19 0 01-.075.055.19.19 0 01-.075.017.277.277 0 01-.125-.03 11.43 11.43 0 01-.243-.129 2.2 2.2 0 00-.214-.104 1.179 1.179 0 00-.466-.093.893.893 0 00-.609.217 1.074 1.074 0 00-.334.596v2.865c0 .152-.084.228-.252.228h-.666c-.168 0-.252-.076-.252-.228v-4.373zM25.391 15.047c-.238.19-.497.339-.779.448a2.557 2.557 0 01-.929.163c-.364 0-.71-.065-1.036-.194a2.727 2.727 0 01-.858-.532 2.541 2.541 0 01-.585-.792 2.25 2.25 0 01-.217-.978 2.405 2.405 0 01.342-1.244 2.502 2.502 0 01.923-.898c.193-.109.402-.193.628-.252a2.768 2.768 0 012.395.493c.156.123.294.262.413.416.162.213.281.442.356.688a2.759 2.759 0 01.103 1.001.227.227 0 01-.051.12.239.239 0 01-.121.067.953.953 0 01-.227.021h-3.591c.035.182.102.344.2.484a1.519 1.519 0 00.791.577c.159.049.318.074.478.074.121 0 .238-.011.35-.034a1.92 1.92 0 00.583-.222 1.591 1.591 0 00.221-.158.502.502 0 01.093-.066.197.197 0 01.093-.025c.024 0 .052.008.083.023a.294.294 0 01.091.076l.186.209c.051.056.093.103.125.141a.613.613 0 01.071.099.176.176 0 01.022.084c0 .071-.051.142-.154.213zm-1.797-3.427c-.159 0-.314.027-.465.082a1.578 1.578 0 00-.743.552 1.348 1.348 0 00-.205.41h2.866a1.408 1.408 0 00-.939-.97 1.677 1.677 0 00-.514-.076zM27.026 10.864a.212.212 0 01.093-.076.144.144 0 01.097-.032l.121-.002h.409c.078 0 .136.024.174.072a.403.403 0 01.077.16l.045.403a1.71 1.71 0 01.229-.255c.09-.083.198-.158.322-.224s.266-.119.425-.16c.159-.04.339-.061.538-.061.318 0 .602.054.85.161a1.805 1.805 0 011.015 1.104c.088.253.132.526.132.817v2.534c0 .091-.023.16-.069.205-.046.045-.112.068-.198.068h-.615c-.108 0-.18-.019-.217-.057-.036-.038-.055-.105-.055-.201v-2.53a1.09 1.09 0 00-.286-.737 1.027 1.027 0 00-.346-.243 1.171 1.171 0 00-.478-.091 1.274 1.274 0 00-.753.269 1.116 1.116 0 00-.275.313.822.822 0 00-.113.416v2.462c0 .048-.003.096-.008.144a.421.421 0 01-.034.129.232.232 0 01-.075.091.21.21 0 01-.125.034h-.668c-.089 0-.154-.02-.196-.059-.042-.039-.063-.096-.063-.169v-4.373c0-.035.016-.073.049-.114zM34.266 15.579a2.088 2.088 0 01-.601-.091 1.488 1.488 0 01-.49-.253 1.2 1.2 0 01-.33-.407 1.206 1.206 0 01-.121-.55v-2.567h-.466c-.078 0-.137-.016-.176-.049-.039-.033-.059-.087-.059-.163v-.545c0-.073.02-.125.059-.155.039-.03.098-.045.176-.045h.466c0-.134 0-.268.002-.401l.002-.401a.15.15 0 01.051-.12.469.469 0 01.156-.078l.166-.055c.065-.022.132-.042.2-.063a3.1 3.1 0 01.2-.051.797.797 0 01.162-.021c.084 0 .138.022.164.065.026.043.039.1.039.171 0 .16 0 .319-.002.477l-.002.477h.583c.07 0 .124.017.162.051.038.034.057.088.057.161v.518c0 .081-.019.139-.057.174a.23.23 0 01-.162.053h-.583v.721c0 .087 0 .169.002.245l.002.247v.723c0 .005 0 .01-.002.015l-.002.015v.498c0 .167.035.288.105.361.07.073.183.11.34.11.057 0 .101.019.134.057a.207.207 0 01.049.137v.528c0 .066-.02.117-.059.154a.23.23 0 01-.164.055zM15.672 14.743a.557.557 0 00-.071-.099 5.143 5.143 0 00-.125-.141 11.86 11.86 0 01-.186-.209.281.281 0 00-.091-.076.197.197 0 00-.083-.023.183.183 0 00-.093.025.62.62 0 00-.093.066c0-.003-.001-.004-.004-.004a1.815 1.815 0 01-1.138.41c-1.024-.003-1.618-.455-2.03-1.042-.113.23-.287.559-.55.902.535.564 1.337 1.087 2.625 1.087.337 0 .647-.052.929-.161.282-.109.542-.258.779-.448.103-.071.154-.142.154-.213a.188.188 0 00-.022-.084z"/><path fill="#1d71b8" d="M16.192 12.357a2.202 2.202 0 00-.356-.688 2.356 2.356 0 00-.413-.416 2.701 2.701 0 00-1.073-.512c-.532-.125-1.106-.076-1.625.074-1.122.318-1.714 1.096-2.048 1.69-.095.17-.17.325-.23.45a4.55 4.55 0 01-.367.64 2.83 2.83 0 01-.292.354 2.34 2.34 0 01-.279.245c-.371.276-.85.452-1.496.458-.901-.019-1.588-.714-1.588-1.565V8.571a.215.215 0 00-.069-.161.263.263 0 00-.19-.066h-.615a.245.245 0 00-.166.065.208.208 0 00-.073.163v.037s0 3.759.002 4.558c.044 1.37 1.235 2.473 2.701 2.491v.003a4.148 4.148 0 00.871-.092 3.402 3.402 0 00.947-.364 3.34 3.34 0 00.515-.37c.586-.516.886-1.144 1.046-1.475l.002-.005.035-.072.033-.066.005-.011c.389-.772.949-1.568 2.301-1.589.172.003.334.027.484.075a1.404 1.404 0 01.939.969l-2.764.002c-.122.008-.184.073-.184.198v.495c0 .132.062.202.184.211h3.465a.971.971 0 00.227-.019.232.232 0 00.121-.067.22.22 0 00.051-.12 2.792 2.792 0 00-.103-1.001z"/><path fill="#1d71b8" d="M7.98 10.67c-.248.01-.494.049-.738.117-.129.027-.209.074-.241.141a.182.182 0 00-.016.088.588.588 0 00.023.122c.014.049.033.109.056.182.024.073.052.163.083.271.012.045.03.081.052.108a.18.18 0 00.068.054.194.194 0 00.099.013.668.668 0 00.124-.028 1.82 1.82 0 01.588-.08h.007c1.026.03 1.587.497 1.965 1.062.115-.238.289-.585.559-.945-.516-.579-1.326-1.106-2.63-1.106zM3.337 9.256c0-.152.08-.229.239-.229h.68c.076 0 .136.019.182.057.046.038.069.095.069.172v.568a.256.256 0 01-.065.166.223.223 0 01-.182.078h-.68c-.162 0-.243-.081-.243-.244v-.568z"/></svg>