<svg width="38" height="24" viewBox="0 0 38 24" xmlns="http://www.w3.org/2000/svg" role="img" aria-labelledby="pi-modo"><title id="pi-modo">Modo</title><path fill="#000" opacity=".07" d="M35 0H3C1.3 0 0 1.3 0 3v18c0 1.7 1.4 3 3 3h32c1.7 0 3-1.3 3-3V3c0-1.7-1.4-3-3-3z"/><path fill="#fff" d="M35 1c1.1 0 2 .9 2 2v18c0 1.1-.9 2-2 2H3c-1.1 0-2-.9-2-2V3c0-1.1.9-2 2-2h32"/><rect x="1" y="1" width="36" height="22" rx="2" fill="#FDFDFD"/><path fill="#008857" d="M20.824 8.494h2.605l.545.069.45.114.473.183.38.207.307.229.237.206.26.275.237.344.26.527.12.367.094.527.024.32v.253l-.048.435-.118.55-.166.435-.19.344-.284.39-.284.298-.331.252-.403.229-.402.183-.474.138-.545.091-.26.023h-2.44l-.308-.091-.142-.092-.166-.183-.07-.184-.024-.137V11.22l.047-.206.118-.184.19-.16.166-.069.118-.023.308.023.237.115.166.183.094.206.024.092v2.75l.024.069.379.023h1.16l.474-.046.355-.092.379-.16.237-.16.166-.138.236-.321.143-.298.094-.367.048-.39-.024-.435-.095-.412-.118-.298-.166-.252-.237-.252-.331-.207-.308-.137-.332-.092-.308-.045-2.534-.023-.26-.046-.214-.138-.165-.206-.072-.206v-.206l.072-.23.142-.183.118-.092.19-.091.142-.023zM15.305 8.425h.569l.473.092.569.183.379.183.308.184.308.229.26.23.213.251.237.321.19.32.189.46.119.412.047.298.023.298v.229l-.047.412-.118.481-.142.39-.19.367-.166.252-.236.298-.285.298-.402.298-.356.206-.402.183-.545.16-.45.092-.213.023h-.284l-.38-.046-.591-.137-.427-.16-.402-.207-.332-.23-.26-.205-.214-.207-.213-.252-.237-.344-.19-.366-.165-.435-.118-.505-.024-.183v-.619l.071-.435.095-.344.142-.367.213-.39.284-.389.213-.229.19-.16.213-.092.237-.023.19.046.213.114.142.16.094.184.024.092v.252l-.071.183-.19.252-.213.253-.19.343-.141.459-.024.137v.527l.071.321.142.367.166.275.213.252.26.229.356.206.355.138.38.068h.473l.355-.068.284-.092.332-.16.284-.207.213-.206.214-.298.165-.32.119-.436.023-.184v-.32l-.07-.39-.143-.367-.213-.343-.26-.275-.19-.16-.402-.23-.427-.137-.687-.092-.19-.069-.189-.16-.118-.184-.047-.137v-.252l.094-.275.166-.183.284-.138zM31.126 8.425h.474l.426.069.474.137.355.138.356.183.308.206.331.275.213.207.284.366.237.39.19.458.118.39.071.435v.619l-.07.435-.167.527-.165.367-.261.413-.26.298-.166.183-.26.229-.309.206-.26.16-.474.207-.568.16-.356.07-.213.022h-.26l-.403-.046-.592-.137-.497-.184-.45-.252-.403-.298-.379-.366-.26-.344-.261-.436-.142-.343-.142-.504-.071-.504v-.367l.07-.527.143-.481.166-.39.19-.321.236-.32.284-.299.213-.137.213-.069h.19l.26.092.214.183.142.275v.32l-.095.23-.213.252-.237.321-.166.344-.095.39-.023.183v.32l.07.367.096.298.165.32.26.322.238.206.308.183.26.115.332.091.284.046h.379l.403-.068.284-.092.331-.16.26-.184.214-.206.237-.32.166-.367.094-.344.024-.115v-.55l-.095-.39-.165-.366-.237-.321-.142-.16-.237-.184-.308-.183-.355-.138-.285-.068-.52-.069-.237-.069-.214-.183-.118-.252v-.367l.095-.229.19-.183.189-.092.094-.023zM9.882 8.47l.213.024.213.091.19.16.142.276.023.069v5.82l-.142.275-.166.16-.237.115-.236.023-.308-.091-.213-.16-.119-.207-.047-.252v-3.3l-.048-.023-.047.092-.308.435-.284.367-.284.39-.332.435-.331.458-.19.23-.166.137-.237.091h-.26l-.237-.091-.213-.16-.308-.413-.332-.458-.307-.413-.285-.39-.308-.412-.284-.39-.616-.825-.236-.32-.308-.413-.19-.298-.07-.16v-.275l.094-.252.118-.138.213-.137.143-.046h.331l.237.114.213.207.616.825.237.32.616.825.236.321.308.413.237.32.19.276h.07l.261-.367.308-.413.237-.32.308-.413.284-.39.332-.435.284-.39.308-.412.19-.23.165-.16.213-.091.119-.023zM3.582 11.977h.331l.237.092.142.114.119.184.047.137.024.252-.024 2.177-.095.207-.166.183-.19.114-.141.046h-.19l-.308-.091-.236-.207-.095-.206-.024-.091v-2.315l.095-.298.19-.183.189-.092.095-.023z"/></svg>