<svg width="38" height="24" viewBox="0 0 38 24" xmlns="http://www.w3.org/2000/svg" role="img" aria-labelledby="pi-moncash"><title id="pi-moncash">Moncash</title><path fill="#000" opacity=".07" d="M35 0H3C1.3 0 0 1.3 0 3v18c0 1.7 1.4 3 3 3h32c1.7 0 3-1.3 3-3V3c0-1.7-1.4-3-3-3z"/><path fill="#fff" d="M35 1c1.1 0 2 .9 2 2v18c0 1.1-.9 2-2 2H3c-1.1 0-2-.9-2-2V3c0-1.1.9-2 2-2h32z"/><path fill="#E4012C" d="M3 1h32c1.1 0 2 .9 2 2v18c0 1.1-.9 2-2 2H3c-1.1 0-2-.9-2-2V3c0-1.1.9-2 2-2z"/><path d="M8.413 2.581h.237l.332.069.615.252.64.275.687.275.923.39.356.137.308.138.402.16.805.344.356.137.64.275 1.396.573.711.298.782.321 1.705.71.71.298.782.321.876.367.569.229.876.367.734.298.758.32 1.492.62.71.297.38.184.165.183.072.114.023.092v.275l-.07.183-.214.23-.379.183-.71.298-.616.252-.71.298-.83.344-.615.252-.877.366-3.197 1.33-.616.252-1.042.435-.829.344-3.932 1.627-.71.298-1.279.527-.71.298-1.114.458-.26.069h-.38l-.307-.092-.237-.16-.142-.207-.047-.114v-.435l.26-1.994.166-1.215.166-1.283.355-2.59-.024-.343-.308-2.246-.402-3.071-.237-1.742v-.229l.095-.23.213-.228.284-.138.213-.046z" fill="#FDFDFD"/><path d="M12.89 8.792h.663l.236.045.095.138.048.344.094 1.535.024.71v.963l-.095.115-.213.046h-.497l-.166-.07-.047-.091-.024-2.131-.024-.023-.473 1.42-.119.299-.118.137-.048.023-.615.023-.166-.069-.095-.114-.166-.459-.284-.87-.095-.344-.047-.092v.55l-.024 1.65-.07.115-.096.023-.615.023-.166-.07-.048-.045V11.45l.072-1.581.047-.71.047-.253.119-.091h.97l.143.068.095.184.142.458.426 1.467.047.183h.048l.07-.275.309-.985.284-.894.095-.138.118-.068.118-.023zM16.134 8.746h.403l.379.046.331.091.26.16.19.207.19.367.095.435.023.206v.963l-.07.435-.095.298-.143.252-.165.184-.19.137-.26.115-.38.068-.142.023h-.378l-.474-.046-.38-.137-.188-.138-.119-.091-.166-.23-.118-.274-.095-.459-.024-.343v-.367l.024-.504.071-.39.095-.275.166-.275.19-.183.283-.16.38-.092.307-.023zM18.882 8.792l.45.023.142.068.19.252 1.136 1.65.071.046v-1.81l.048-.16.047-.046.308-.023.473.023.072.022.047.138v2.406l-.024 1.169-.118.114-.166.024h-.26l-.214-.07-.165-.16-.308-.435-.261-.344-.284-.39-.19-.252-.19-.275-.046-.023v1.72l-.072.183-.07.023-.38.023h-.26l-.166-.07-.047-.045-.024-1.719.024-1.948.095-.091.142-.023z" fill="#E4012C"/><path d="M27.716 16.01h.568l.024 1.467.118-.046.308-.183.308-.115.142-.023h.38l.283.07.237.137.19.206.094.183.071.298v2.177l-.023.023-.521.023h-.332l-.118-.046-.024-1.833-.071-.275-.166-.138-.07-.022h-.404l-.26.091-.119.069-.023.069-.024 2.062-.023.023h-.853l-.095-.023-.024-.252v-3.025l.024-.894.403-.023zM21.937 17.11h.663l.379.046.426.138.19.137.166.184.07.183.048.23v2.176l-.047.023h-.877l-.047-.023v-.275l-.142.069-.237.16-.332.115-.118.023h-.521l-.26-.092-.214-.137-.19-.207-.118-.274-.023-.092v-.206l.07-.321.143-.23.19-.16.284-.137.45-.115.781-.092h.237l-.047-.183-.048-.092-.19-.114-.189-.046h-.64l-.497.138-.118.045h-.118l-.024-.023v-.687l.118-.046.569-.092.213-.023zM18.976 16.125h.356l.426.046.45.114.379.184v.916l-.024.046-.118-.023-.237-.183-.308-.183-.355-.115-.308-.023-.38.069-.236.114-.166.138-.142.206-.118.252-.048.207-.023.412.047.367.118.298.19.252.213.16.213.092.26.046h.285l.284-.07.284-.114.308-.206.142-.114h.119v.94l-.095.068-.379.137-.45.115-.213.023h-.64l-.355-.069-.355-.114-.332-.184-.213-.183-.237-.298-.165-.344-.095-.32-.047-.367v-.413l.07-.435.119-.344.19-.32.26-.299.308-.206.19-.092.236-.091.355-.07.237-.022zM25.347 17.11h.592l.593.115.236.069.048.046v.733l-.048.023-.379-.183-.26-.092-.26-.046h-.45l-.214.069-.118.114.023.16.095.07.45.114.545.115.284.091.213.138.166.183.095.23.024.274-.072.275-.142.23-.236.206-.38.16-.284.069-.213.023h-.663l-.379-.046-.497-.137-.071-.046v-.78l.142.024.237.137.379.137.331.07h.45l.26-.092.095-.115-.023-.137-.142-.092-.687-.138-.427-.114-.26-.138-.118-.091-.166-.253-.071-.206v-.252l.07-.229.143-.206.19-.184.378-.183.332-.092.19-.023zM16.087 9.617h.45l.19.091.094.115.071.183.024.184v.962l-.048.367-.094.206-.119.092-.118.046h-.427l-.165-.07-.142-.16-.071-.252-.024-.206v-.894l.047-.32.095-.184.166-.137.07-.023z" fill="#FDFDFD"/><path d="M22.837 18.783h.07v.62l-.118.114-.236.114-.072.023h-.402l-.237-.114-.071-.16v-.207l.095-.138.118-.091.284-.092.569-.069z" fill="#E4012C"/></svg>