<svg width="38" height="24" viewBox="0 0 38 24" fill="none" xmlns="http://www.w3.org/2000/svg" role="img" aria-labelledby="pi-naranjax"><title id="pi-naranjax">Naranja X</title><path fill="#000" opacity=".07" d="M35 0H3C1.3 0 0 1.3 0 3v18c0 1.7 1.4 3 3 3h32c1.7 0 3-1.3 3-3V3c0-1.7-1.4-3-3-3z"/><path fill="#fff" d="M35 1c1.1 0 2 .9 2 2v18c0 1.1-.9 2-2 2H3c-1.1 0-2-.9-2-2V3c0-1.1.9-2 2-2h32z"/><path fill="#F75000" d="M6.46 12.573c.004-.034.013-.068.013-.102-.002-.238-.007-.476-.008-.714-.004-.862-.008-1.724-.01-2.586 0-.013-.002-.025 0-.037.001-.097.031-.13.127-.13.287-.002.575-.002.862 0 .09 0 .12.034.122.126V14.386c0 .168-.016.183-.188.183-.287 0-.574-.003-.862.002-.112.002-.183-.04-.243-.134-.708-1.105-1.42-2.208-2.13-3.312-.023-.034-.05-.065-.086-.113-.013.04-.021.058-.023.078-.004.037-.003.074-.003.11v3.162c0 .193-.011.205-.204.205h-.742c-.03 0-.062-.001-.091-.008-.047-.01-.076-.04-.078-.09l-.001-.075-.001-5.22c0-.158.053-.173.171-.172.294.002.588.003.882 0a.252.252 0 01.236.129c.714 1.112 1.431 2.223 2.148 3.334.024.038.052.075.078.112l.03-.004zM28.421 14.395c-.025.01-.05.018-.073.031-.676.406-1.542.216-2.056-.233-.38-.332-.626-.736-.701-1.238a1.999 1.999 0 011.612-2.32c.41-.072.8-.02 1.155.216.02.013.042.021.073.036l.013-.078c.01-.089.042-.12.13-.122.124-.002.248 0 .371 0h.464c.115 0 .146.033.149.15v3.541c.001.194-.05.198-.196.196-.25-.004-.501-.001-.752-.001-.14 0-.15-.009-.172-.145 0-.009-.008-.016-.017-.033zm-.852-2.763c-.064.006-.13.006-.193.02-.327.076-.533.285-.632.601a1.331 1.331 0 00-.037.578c.071.54.536.908 1.124.758.303-.077.477-.298.569-.585.062-.194.069-.394.039-.596-.066-.438-.384-.783-.87-.776zM10.991 14.394c-.028.012-.054.02-.076.033-.67.403-1.532.218-2.048-.228-.357-.309-.603-.684-.692-1.152-.234-1.232.531-2.12 1.414-2.368.369-.104.738-.11 1.097.044.08.034.153.08.229.122l.08.045c.008-.032.016-.054.019-.077.013-.102.038-.125.143-.126h.825c.111 0 .142.031.142.143v3.595c0 .116-.031.147-.149.148h-.806c-.13 0-.147-.016-.164-.145 0-.006-.004-.012-.014-.034zm-.846-2.76l-.139.007a.822.822 0 00-.68.568 1.3 1.3 0 00-.036.703c.108.541.633.848 1.185.652.258-.09.404-.296.488-.546a1.29 1.29 0 00.04-.631c-.072-.426-.384-.757-.858-.752zM18.1 14.393c-.03.013-.056.021-.078.035-.635.38-1.435.23-1.93-.14-.427-.319-.716-.73-.811-1.262-.238-1.332.655-2.175 1.49-2.367.45-.103.878-.066 1.27.197.018.012.038.018.069.032.006-.035.011-.06.014-.086.009-.083.039-.112.125-.115.074-.002.148 0 .222 0h.594c.146 0 .166.02.167.164V14.41c0 .14-.024.164-.16.164h-.797c-.126 0-.136-.01-.158-.14-.002-.008-.007-.016-.017-.04zm-1.734-1.77c.009.085.013.171.027.256.084.512.558.871 1.144.702.28-.08.44-.29.531-.553.074-.211.077-.43.041-.65-.061-.377-.347-.748-.874-.744a.843.843 0 00-.785.534 1.272 1.272 0 00-.084.454zM20.996 10.897c.034-.024.055-.037.074-.053a.987.987 0 01.65-.227c.24 0 .474.04.697.133.433.182.691.515.82.957.07.245.094.497.094.75V14.45c-.004.084-.035.12-.119.12h-.871c-.078-.001-.11-.037-.115-.115-.002-.025 0-.05 0-.074 0-.692 0-1.384-.002-2.076a.817.817 0 00-.025-.21c-.1-.371-.409-.479-.684-.446a.718.718 0 00-.196.052.53.53 0 00-.343.504c-.002.074 0 .148 0 .223l-.003 1.955v.074c-.005.076-.04.109-.117.113h-.844c-.11 0-.141-.031-.141-.144v-3.587c0-.117.03-.149.147-.15h.815c.109 0 .133.026.144.135.002.02.01.04.019.073zM30.954 14.567h-.455c-.024 0-.05.001-.074-.002-.086-.013-.12-.079-.08-.156.015-.03.035-.058.054-.086l1.57-2.427c.013-.018.023-.037.036-.054.027-.037.03-.073.002-.111-.013-.018-.024-.037-.035-.055L30.39 9.234c-.017-.026-.035-.05-.049-.079-.035-.073 0-.137.08-.15.022-.003.044-.002.065-.002h.937c.109-.002.186.038.246.132.53.826 1.063 1.652 1.596 2.476a.29.29 0 010 .345c-.534.828-1.067 1.656-1.599 2.486a.249.249 0 01-.23.125c-.161-.002-.322 0-.483 0z"/><path fill="#F75000" d="M25.132 12.809c0 .624.002 1.248-.001 1.872-.003.39-.103.752-.346 1.064a1.79 1.79 0 01-.764.554c-.236.096-.483.15-.736.178a.32.32 0 01-.083 0 .095.095 0 01-.085-.085c-.003-.021-.002-.043-.002-.065v-.778c0-.12.022-.141.145-.155a.995.995 0 00.42-.133c.224-.138.325-.347.343-.603.002-.033 0-.068 0-.102v-3.633-.065c.001-.152.02-.171.171-.171h.77c.024 0 .05-.002.074.002.055.008.087.043.092.1.003.03.001.06.001.092v1.928zM14.034 10.915c.036-.02.06-.03.083-.045.223-.142.466-.19.727-.156.043.006.086.006.129.013.072.012.102.046.102.12.002.26.002.519 0 .778 0 .087-.041.12-.13.116l-.306-.01c-.04 0-.08.001-.12.005-.25.025-.38.137-.442.378a2.005 2.005 0 00-.056.496c-.002.587-.001 1.174-.001 1.76v.075c-.004.089-.036.122-.124.125H13.062c-.12 0-.148-.028-.148-.146v-3.586c0-.117.03-.148.148-.148.266-.001.532 0 .798 0 .13 0 .152.022.16.155.001.018.007.035.014.07z"/><path fill="#50007F" d="M34.456 9h.473c.024 0 .05 0 .073.005.073.017.103.082.072.15-.008.016-.019.032-.029.047l-1.385 2.151-.01.016c-.052.076-.073.076-.124-.003l-.508-.787a.28.28 0 01.001-.33c.242-.373.482-.747.722-1.122A.258.258 0 0133.973 9h.483zM34.459 14.573c-.161 0-.322-.002-.482 0a.26.26 0 01-.24-.13c-.239-.375-.48-.748-.72-1.122a.274.274 0 010-.321l.511-.795c.052-.08.07-.08.121 0l1.034 1.605.35.545c.014.02.029.04.04.063.036.075-.002.146-.086.153-.053.005-.105.002-.158.002h-.37z"/><path fill="#F75000" d="M25.246 9.67a.657.657 0 01-.672.665.666.666 0 01-.668-.672c-.001-.366.294-.647.674-.653.354-.006.682.298.666.66z"/></svg>