<svg width="38" height="24" viewBox="0 0 38 24" fill="none" xmlns="http://www.w3.org/2000/svg" role="img" aria-labelledby="pi-pluxeenew"><title id="pi-pluxeenew">Pluxeenew</title><path fill="#000" opacity=".07" d="M35 0H3C1.3 0 0 1.3 0 3v18c0 1.7 1.4 3 3 3h32c1.7 0 3-1.3 3-3V3c0-1.7-1.4-3-3-3z"/><path fill="#fff" d="M35 1c1.1 0 2 .9 2 2v18c0 1.1-.9 2-2 2H3c-1.1 0-2-.9-2-2V3c0-1.1.9-2 2-2h32"/><rect x="1" y="1" width="36" height="22" rx="2" fill="#221C47"/><path d="M7.253 9.685h.497l.474.092.379.16.331.23.166.137.237.298.19.367.094.252.071.344.024.206v.458l-.071.436-.142.412-.166.298-.237.298-.166.16-.237.16-.379.184-.307.092-.214.046-.236.023h-.308l-.356-.046-.379-.115-.307-.16-.214-.184-.023 2.177-.735.023h-.876l-.024-.023-.023-.916V11.29l.023-1.513h1.564l.023.481.308-.229.403-.206.308-.092.308-.046zm17.976-.045h.497l.427.045.426.115.379.183.308.207.26.252.237.343.142.344.095.32.047.299v.435l-.023.16-.024.024-3.434.022.023.207.119.275.213.229.237.114.26.046h.213l.285-.068.19-.092.165-.183.118-.046 1.54.023-.024.137-.19.367-.165.206-.26.252-.332.206-.308.138-.403.115-.26.045-.332.023h-.284l-.45-.046-.403-.091-.355-.138-.26-.137-.308-.23-.213-.229-.19-.298-.166-.366-.095-.413-.023-.229v-.412l.07-.459.12-.343.165-.321.237-.298.166-.16.379-.253.355-.16.45-.115.379-.045zm5.566 0h.52l.403.045.356.092.379.16.284.184.237.206.19.206.189.298.142.344.07.252.048.344v.39l-.024.183-.023.023H30.13l.048.297.118.23.166.183.213.115.166.045.166.023h.213l.284-.068.213-.138h.048l.047-.092.071-.068h1.61l-.023.137-.19.367-.165.206-.119.138-.308.229-.402.206-.474.138-.26.045-.356.023h-.284l-.426-.046-.474-.114-.379-.16-.26-.161-.237-.206-.166-.16-.213-.322-.142-.32-.095-.367-.047-.39v-.298l.07-.48.143-.413.118-.23.19-.252.19-.206.307-.229.379-.183.332-.115.378-.069.214-.022zm-18.308.137h1.587l.023.023.024 2.544.047.206.095.183.166.16.237.092.118.023h.26l.261-.068.19-.138.094-.114.095-.23.024-.137.024-2.544h1.586l.024.023v4.423l-.047.023h-1.492l-.024-.023-.024-.413-.26.207-.332.183-.26.092-.285.046h-.45l-.284-.046-.284-.092-.379-.183-.284-.252-.142-.184-.166-.32-.095-.344-.047-.413V9.777z" fill="#FEFEFE"/><path d="M18.029 9.777h1.018l.19.16.047.092.071.023.119.115v.046l.07.022.166.184.474.458.024.046.118-.023.427-.412.165-.184.521-.504.072-.023h1.018l.024.023v1.031l-.213.207-.119.137-.19.16-.663.642-.023.092.118.046.758.733.095.069v.046l.07.022.167.207V14.2l-.024.023h-1.042l-.19-.16-1.018-.986-.095.046-1.137 1.1-.308.023-.757-.023-.024-.023v-1.008l.118-.115.142-.16.142-.115.758-.733h.048l-.024-.115-.308-.275-.781-.756-.071-.046-.024-.069V9.8l.07-.023z" fill="#00E466"/><path d="M10.237 7.99H11.8l.047.023.024 6.187-.071.046h-1.54l-.023-.023V7.99z" fill="#FEFEFE"/><path d="M6.779 11.014h.474l.26.092.213.138.19.206.094.183.072.275v.207l-.072.297-.165.252-.213.184-.237.114-.19.046h-.379l-.308-.091-.213-.138-.213-.23-.095-.205-.047-.275.024-.298.118-.298.166-.206.237-.16.284-.092zm18.592-.274h.284l.237.046.237.114.19.183.118.23.023.183h-1.847l-.023-.092.094-.252.142-.183.26-.16.285-.07zm5.589 0h.285l.284.068.213.138.166.183.095.184.023.183h-1.823l-.048-.023.048-.23.142-.228.26-.184.19-.069.165-.022z" fill="#221C47"/></svg>