<svg xmlns="http://www.w3.org/2000/svg" viewBox="0 0 38 24" width="38" height="24" role="img" aria-labelledby="pi-spidealwero"><title id="pi-spidealwero">iDEAL Wero</title><path opacity="0.07" d="M35 0H3C1.3 0 0 1.3 0 3V21C0 22.7 1.4 24 3 24H35C36.7 24 38 22.7 38 21V3C38 1.3 36.6 0 35 0Z" fill="black"/><path d="M35 1C36.1 1 37 1.9 37 3V21C37 22.1 36.1 23 35 23H3C1.9 23 1 22.1 1 21V3C1 1.9 1.9 1 3 1H35Z" fill="#FFF48D"/><path d="M3.45001 7.43572V17.0022C3.45001 17.4602 3.82664 17.8347 4.28673 17.8347H10.0301C14.3722 17.8347 16.2539 15.4157 16.2539 12.2063C16.2539 8.99693 14.3715 6.60321 10.0294 6.60321H4.28603C3.82594 6.60321 3.44931 6.97773 3.44931 7.43572H3.45001Z" fill="white"/><path d="M7.29413 8.95133V16.0203H10.385C13.1918 16.0203 14.4087 14.4422 14.4087 12.2112C14.4087 9.98022 13.1911 8.41901 10.385 8.41901H7.82926C7.53259 8.41901 7.29413 8.66027 7.29413 8.95204V8.95133Z" fill="#CC0066"/><path fill-rule="evenodd" clip-rule="evenodd" d="M5.03507 17.073H10.0294C13.539 17.073 15.4754 15.3456 15.4754 12.2105C15.4754 10.4038 14.7685 7.36908 10.0294 7.36908H5.03507C4.59182 7.36908 4.23203 7.72677 4.23203 8.16862V16.2742C4.23203 16.7153 4.59182 17.0737 5.03507 17.0737V17.073ZM4.49924 8.16862C4.49924 7.87335 4.7377 7.63559 5.03437 7.63559H10.0287C11.9609 7.63559 15.2068 8.23104 15.2068 12.2105C15.2068 15.1744 13.3665 16.8065 10.0287 16.8065H5.03507C4.7384 16.8065 4.49994 16.5694 4.49994 16.2735V8.16862H4.49924Z" fill="#232323"/><path fill-rule="evenodd" clip-rule="evenodd" d="M8.81464 11.1831C8.72066 11.1494 8.62247 11.1326 8.51586 11.1326V11.1284H7.8082V12.8355H8.52428C8.65122 12.8355 8.76134 12.8102 8.85602 12.7681C8.95 12.7218 9.02785 12.6629 9.08957 12.5872C9.15129 12.5114 9.19618 12.4188 9.22844 12.3136C9.25719 12.2084 9.27332 12.0948 9.27332 11.9686C9.27332 11.8255 9.25299 11.7035 9.21581 11.5983C9.17514 11.4973 9.12183 11.4089 9.05661 11.3374C8.98717 11.27 8.90932 11.2153 8.81534 11.1817L8.81464 11.1831ZM8.64702 12.4995C8.59371 12.5163 8.54462 12.5248 8.49132 12.5248V12.529H8.16799V11.4524H8.4296C8.51937 11.4524 8.59301 11.465 8.65473 11.4903C8.71645 11.5155 8.76554 11.5576 8.80201 11.6039C8.83849 11.6502 8.86724 11.7133 8.88407 11.7806C8.9002 11.8479 8.90862 11.9279 8.90862 12.0121C8.90862 12.1088 8.896 12.1846 8.87215 12.2519C8.85108 12.3106 8.81921 12.3649 8.77817 12.4118C8.74305 12.4524 8.69779 12.4829 8.64702 12.5002V12.4995Z" fill="white"/><path d="M10.7504 11.1333V11.4489H9.87441V11.815H10.6803V12.1053H9.87441V12.5219H10.7707V12.8376H9.51041V11.1305H10.7504V11.1347V11.1333Z" fill="white"/><path fill-rule="evenodd" clip-rule="evenodd" d="M12.6244 12.8404L12.0023 11.1333H11.6222L10.9958 12.8404H11.3641L11.4952 12.4616H12.1173L12.2443 12.8404H12.6251H12.6244ZM11.8136 11.5534L12.0226 12.1797H11.5934L11.8101 11.5534H11.8143H11.8136Z" fill="white"/><path d="M13.2178 11.1325V12.5247H14.0278V12.8403H12.8538V11.1332H13.2178V11.1325Z" fill="white"/><path d="M5.85774 12.8656C6.30099 12.8656 6.66009 12.5065 6.66009 12.0625C6.66009 11.6186 6.30099 11.2595 5.85774 11.2595C5.41448 11.2595 5.05539 11.6186 5.05539 12.0625C5.05539 12.5065 5.41448 12.8656 5.85774 12.8656ZM6.33536 16.0771C5.71396 16.0771 5.216 15.5406 5.216 14.8813V13.9478C5.216 13.6181 5.46498 13.3474 5.77778 13.3474C6.09059 13.3474 6.33957 13.6139 6.33957 13.9478V16.0771H6.33536Z" fill="#232323"/><path d="M31.45 12.2209C31.45 11.1773 32.1926 10.2264 33.4749 10.2264C34.7572 10.2264 35.5053 11.178 35.5053 12.2209C35.5053 13.2638 34.7627 14.2154 33.4749 14.2154C32.1926 14.2154 31.45 13.2638 31.45 12.2209ZM34.3782 12.2209C34.3782 11.7178 34.0467 11.2537 33.4749 11.2537C32.9032 11.2537 32.5717 11.7186 32.5717 12.2209C32.5717 12.7232 32.9086 13.1889 33.4749 13.1889C34.0412 13.1889 34.3782 12.724 34.3782 12.2209ZM30.6615 12.9619C31.0889 12.7185 31.3455 12.2537 31.3455 11.7404C31.3455 10.9784 30.7948 10.3294 29.94 10.3294H28.1452V14.1132H29.2567V13.146H29.4649L30.1006 14.1132H31.4095L30.6615 12.9619ZM29.7161 12.2747H29.2567V11.2046H29.7216C30.0211 11.2046 30.213 11.4479 30.213 11.7396C30.213 12.0314 30.0148 12.2747 29.7161 12.2747ZM23.0713 10.3247L22.4044 12.5797L21.7539 10.3247H20.8686L20.2126 12.5797L19.5511 10.3247H18.378L19.722 14.1015H20.6868L21.3108 12.0454L21.9294 14.1015H22.8997L24.2436 10.3247H23.0705H23.0713ZM25.9261 13.1795H25.9237C25.508 13.1795 25.2163 12.9284 25.0915 12.5961H27.9159C27.9385 12.4713 27.9502 12.3434 27.9502 12.2139C27.9502 11.1734 27.21 10.2241 25.9261 10.2233V11.2482C26.3442 11.249 26.6328 11.5002 26.7568 11.8317H23.9363C23.9137 11.9565 23.902 12.0844 23.902 12.2139C23.902 13.2552 24.643 14.2052 25.923 14.2052H25.9253V13.1795H25.9261Z" fill="#1D1C1C"/><path d="M25.9237 14.2044C25.9674 14.2044 26.0103 14.2029 26.0524 14.2013C26.3122 14.188 26.5485 14.135 26.7591 14.05C26.9697 13.965 27.1546 13.8472 27.3114 13.7052C27.4673 13.5644 27.5983 13.3982 27.699 13.2138C27.7903 13.0469 27.8574 12.8667 27.8995 12.6787H26.7225C26.6983 12.7287 26.6702 12.777 26.6382 12.8215C26.5945 12.8831 26.5431 12.9385 26.4846 12.9861C26.4261 13.0344 26.3605 13.075 26.2888 13.1062C26.217 13.1374 26.1382 13.1592 26.0532 13.1709C26.0119 13.1764 25.969 13.1795 25.9245 13.1795C25.6601 13.1795 25.4456 13.0773 25.2919 12.9174L24.5268 13.6912C24.8668 14.0055 25.3387 14.2036 25.9237 14.2036V14.2044Z" fill="#1D1C1C"/><path d="M25.9237 10.2225C24.838 10.2225 24.1399 10.9058 23.9535 11.7482H25.1266C25.267 11.4581 25.5431 11.2475 25.9237 11.2475C26.2272 11.2475 26.4627 11.3785 26.6164 11.5766L27.3886 10.7958C27.0438 10.4464 26.5477 10.2225 25.9245 10.2225H25.9237Z" fill="#1D1C1C"/><path d="M17.3927 16.431C17.3069 16.431 17.2367 16.3608 17.2367 16.275V8.16296C17.2367 8.07716 17.3069 8.00696 17.3927 8.00696C17.4785 8.00696 17.5487 8.07716 17.5487 8.16296V16.275C17.5487 16.3608 17.4785 16.431 17.3927 16.431Z" fill="#1D1C1C"/></svg>