<svg width="38" height="24" viewBox="0 0 38 24" fill="none" xmlns="http://www.w3.org/2000/svg" role="img" aria-labelledby="pi-unzerprepayment"><title id="pi-unzerprepayment">Unzer Prepayment</title><path fill="#000" opacity=".07" d="M35 0H3C1.3 0 0 1.3 0 3v18c0 1.7 1.4 3 3 3h32c1.7 0 3-1.3 3-3V3c0-1.7-1.4-3-3-3z"/><path fill="#fff" d="M35 1c1.1 0 2 .9 2 2v18c0 1.1-.9 2-2 2H3c-1.1 0-2-.9-2-2V3c0-1.1.9-2 2-2h32"/><path d="M5.815 2.777h5.262c1.444 0 2.63 1.152 2.63 2.592 0 1.422-1.168 2.591-2.63 2.591H5.815c-1.444 0-2.631-1.152-2.631-2.591 0-1.423 1.17-2.592 2.631-2.592zM27.668 15.277h5.847c1.874 0 3.387 1.49 3.387 3.337 0 1.846-1.513 3.336-3.387 3.336h-5.847c-1.874 0-3.387-1.49-3.387-3.336 0-1.847 1.513-3.337 3.387-3.337z" fill="#E9F2FB"/><path d="M27.826 4.15H12.47a.393.393 0 00-.396.389v7.401c0 .216.177.39.396.39h15.356a.392.392 0 00.395-.39v-7.4a.393.393 0 00-.395-.39z" fill="#272E4F"/><path d="M16.218 5.25a.273.273 0 00-.275-.27.273.273 0 00-.275.27v5.979c0 .15.123.271.275.271a.273.273 0 00.275-.271V5.25zM24.644 5.25a.273.273 0 00-.275-.27.273.273 0 00-.275.27v5.979c0 .15.123.271.275.271a.273.273 0 00.275-.271V5.25zM19.176 10.111a2.107 2.107 0 01-.774-1.152h-.619l.172-.643h.327V8.01h-.499l.172-.644h.447c.155-.474.413-.83.791-1.118a2.227 2.227 0 011.324-.406c.499 0 .946.119 1.29.356.344.237.585.576.688 1.016l-.052.085-.911.118c-.138-.457-.499-.694-1.05-.694-.55 0-.429.05-.6.17a1.24 1.24 0 00-.414.473h1.238l-.171.644h-1.256v.305h1.427l-.171.643h-1.101c.086.22.223.39.413.509.172.118.395.186.67.186.276 0 .482-.068.654-.186.172-.119.292-.305.36-.542l.912.118.052.085a1.978 1.978 0 01-.722 1.05c-.344.237-.757.356-1.256.356-.498 0-.98-.136-1.358-.424h.017z" fill="#F4F9FD"/><path d="M6.486 12.431l-1.944.22a.385.385 0 00-.292.153.405.405 0 00-.103.339l.602 5.132c0 .118.086.237.172.305a.414.414 0 00.31.084l1.942-.22c.104 0 .207-.067.276-.135a.433.433 0 00.12-.356l-.602-5.132c0-.085-.052-.17-.103-.237a.467.467 0 00-.396-.152h.018z" fill="#272E4F"/><path d="M23.544 15.802c-.069 0-.138-.017-.19-.017a.733.733 0 00-.395-.237.892.892 0 00-.653.085l-2.373 1.473c-.241.153-.361.22-.654.237l-.395.034a.875.875 0 01-.12.356 1.47 1.47 0 01-.448.525 1.426 1.426 0 01-.602.22c-.223.034-.481 0-.705-.102l-3.404-1.49c-.104-.05-.155-.17-.104-.271.052-.102.172-.152.276-.102l3.404 1.49a.955.955 0 00.895-.084c.068-.05.12-.101.171-.152a1.41 1.41 0 00.138-.203c.017-.051.034-.102.052-.136v-.373a.95.95 0 00-.482-.66l-3.49-1.779s-2.958-3.912-6.724-1.778l-.378.05.584 4.963.361-.033 5.881 2.438c.172.068.344.12.533.17.276.05.55.068.843.034l4.35-.491c.207-.017.448-.102.671-.187.224-.101.447-.22.602-.355l2.665-2.185c.207-.17.31-.44.293-.695 0-.135-.07-.27-.155-.39a.763.763 0 00-.447-.287v-.068z" fill="#C63057"/><path d="M29.786 17.902c2.25 0 4.075-1.797 4.075-4.014 0-2.217-1.824-4.014-4.075-4.014-2.251 0-4.076 1.797-4.076 4.014 0 2.217 1.825 4.014 4.076 4.014z" fill="#E9F2FB"/><path d="M29.751 9.637c-2.424 0-4.385 1.93-4.385 4.319 0 2.388 1.96 4.319 4.385 4.319s4.385-1.931 4.385-4.32c0-2.387-1.96-4.318-4.385-4.318zm0 8.045c-2.097 0-3.783-1.677-3.783-3.726 0-2.05 1.703-3.726 3.783-3.726 2.081 0 3.784 1.676 3.784 3.726s-1.703 3.726-3.784 3.726z" fill="#C63057"/><path d="M29.803 15.057a.379.379 0 01-.378-.373V11.62a.34.34 0 01.326-.34.353.353 0 01.361.34v2.422l1.153-.983h.017a.25.25 0 01.12-.034c.138 0 .275.085.31.22 0 .034.017.068.017.12a.349.349 0 01-.19.304l-1.564 1.355h-.017c-.052.017-.086.034-.138.034h-.017z" fill="#C63057"/><path d="M29.803 14.938a.262.262 0 01-.258-.254V11.62c0-.119.103-.22.224-.22.051 0 .12.016.154.067a.25.25 0 01.07.153v2.676l1.323-1.135h.069c.086 0 .172.05.206.135v.068a.22.22 0 01-.137.203l-1.565 1.355c-.034 0-.069.017-.103.017h.017z" fill="#C63057"/></svg>