<svg role="img" viewBox="0 0 38 24" width="38" height="24" aria-labelledby="pi-virementmaitrise" xmlns="http://www.w3.org/2000/svg"><title id="pi-virementmaitrise">Virement Maitrisé</title><path d="M35 0H3C1.3 0 0 1.3 0 3v18c0 1.7 1.4 3 3 3h32c1.7 0 3-1.3 3-3V3c0-1.7-1.4-3-3-3z" fill="#000" opacity=".07"/><path d="M35 1a2 2 0 012 2v18a2 2 0 01-2 2H3a2 2 0 01-2-2V3q.2-1.8 2-2z" fill="#fff"/><path d="M6.44 20.4l.452-.452 6.44-6.56c.452-.528.678-.98.678-1.36 0-.38-.226-.829-.678-1.36l-6.44-6.56-.452-.452h8.59c1.02 0 1.13.113 1.36.452l6.55 6.56c.377.452.762.923.762 1.38.075.377-.311.811-.762 1.34l-6.55 6.56c-.226.339-.339.452-1.36.452z" fill="#e7041e"/><path d="M19.7 18l.326-.326 4.64-4.73c.326-.38.488-.706.488-.978s-.163-.598-.488-.978l-4.64-4.73-.326-.326h6.19c.733 0 .814.081.977.326l4.72 4.73c.271.326.549.665.549.991.054.272-.224.585-.549.965l-4.72 4.73c-.163.244-.244.326-.977.326z" fill="#000"/></svg>