<svg xmlns="http://www.w3.org/2000/svg" width="38" height="24" fill="none" role="img" aria-labelledby="pi-webpay" viewBox="0 0 38 24"><title id="pi-webpay">Webpay</title><path fill="#000" opacity=".07" d="M35 0H3C1.3 0 0 1.3 0 3v18c0 1.7 1.4 3 3 3h32c1.7 0 3-1.3 3-3V3c0-1.7-1.4-3-3-3z"/><path fill="#fff" d="M35 1c1.1 0 2 .9 2 2v18c0 1.1-.9 2-2 2H3c-1.1 0-2-.9-2-2V3c0-1.1.9-2 2-2h32"/><path fill="#009bdd" d="M3.898 15.855a.2.2 0 0 0 .19-.197.2.2 0 0 0-.19-.196.2.2 0 0 0-.191.196c0 .105.089.197.19.197"/><path fill="#6b196b" d="M18.437 17.375c.101 0 .19-.092.19-.197a.2.2 0 0 0-.19-.196.2.2 0 0 0-.191.196c0 .118.089.197.19.197"/><path fill="#d5006c" d="M9.538 16.194a.7.7 0 0 0-.203-.524l-.013-.013a.76.76 0 0 0-.497-.17H8.8a.76.76 0 0 0-.497.17l-.012.013a.7.7 0 0 0-.204.524v1.114c0 .013 0 .026.013.039s.025.013.038.013h.19c.014 0 .026 0 .04-.013.012-.013.012-.026.012-.04v-1.074c0-.157.038-.275.114-.34a.45.45 0 0 1 .319-.118c.14 0 .242.039.318.117.076.08.114.184.114.341v1.075c0 .013 0 .026.013.039s.026.013.038.013h.191c.013 0 .026 0 .039-.013.012-.013.012-.026.012-.04zM16.271 16.194c0-.223-.076-.406-.204-.524l-.012-.013a.76.76 0 0 0-.497-.17h-.025a.76.76 0 0 0-.497.17l-.012.013a.7.7 0 0 0-.204.524v1.114c0 .013 0 .026.013.039s.025.013.038.013h.19c.014 0 .026 0 .039-.013s.013-.026.013-.04v-1.074c0-.157.038-.275.114-.34a.45.45 0 0 1 .319-.118c.14 0 .242.039.318.117.076.08.114.184.114.341v1.075c0 .013 0 .026.013.039s.026.013.038.013h.191c.013 0 .026 0 .039-.013.012-.013.012-.026.012-.04zM12.669 16.445c0 .183-.013.353-.09.484-.063.118-.165.197-.368.197h-.013c-.204 0-.306-.079-.37-.197a1.1 1.1 0 0 1-.088-.484v-.014c0-.183.012-.314.089-.445.063-.118.165-.197.369-.197s.305.079.37.21c.075.118.1.262.1.446m.05-.76a.74.74 0 0 0-.496-.17h-.012a.7.7 0 0 0-.471.156v-.668c0-.013 0-.026-.013-.04-.013-.012-.026-.012-.038-.012h-.191c-.013 0-.026 0-.038.013s-.013.026-.013.04v2.318c0 .014 0 .027.013.04s.025.013.038.013h.19c.013 0 .026 0 .039-.013s.013-.026.013-.04v-.117a.62.62 0 0 0 .47.196h.013c.204 0 .382-.066.484-.17.204-.197.255-.511.255-.787.013-.288-.038-.563-.242-.76M7.526 16.693c0 .144-.038.236-.077.275-.101.092-.229.118-.382.118-.152 0-.241-.026-.305-.066-.051-.039-.076-.091-.076-.196 0-.092.025-.157.089-.197a.5.5 0 0 1 .292-.078h.472v.144zm.318-.577c0-.196-.064-.354-.19-.458-.128-.105-.32-.158-.548-.158h-.013c-.255 0-.446.053-.598.223l-.013.013-.038.04-.013.013c-.013.013-.013.026-.013.039s.013.026.026.04l.012.012.013.013.038.027.09.078c.012.013.025.013.038.013s.025-.013.038-.013l.064-.065a.7.7 0 0 1 .114-.092.7.7 0 0 1 .267-.04c.166 0 .268.04.331.092.064.053.09.131.09.263v.117h-.497c-.204 0-.37.053-.484.145a.52.52 0 0 0-.19.406c0 .144.05.275.14.38.127.13.292.17.547.17h.127c.23 0 .407-.065.51-.183q.152-.178.152-.511zM13.421 16.824c0-.105.026-.157.09-.197a.5.5 0 0 1 .292-.078h.471v.157c0 .144-.038.236-.076.275-.102.092-.23.118-.382.118-.153 0-.242-.026-.306-.066a.26.26 0 0 1-.089-.21m1.171-.708c0-.196-.063-.354-.19-.458-.128-.105-.319-.158-.548-.158h-.013c-.254 0-.445.053-.598.223l-.013.013-.038.04-.013.013c-.013.013-.013.026-.013.039s.013.026.026.04l.013.012.012.013.039.027.089.078c.012.013.025.013.038.013s.025-.013.038-.013l.064-.065c.038-.04.076-.066.114-.092a.7.7 0 0 1 .268-.04c.165 0 .267.04.33.092.064.053.09.131.09.263v.117h-.497c-.203 0-.369.053-.483.145a.52.52 0 0 0-.191.406c0 .144.05.275.14.38.127.13.292.17.547.17h.127c.23 0 .408-.065.51-.183q.152-.178.152-.511zM4.878 15.5h-.33v-.51c0-.027-.026-.053-.051-.053h-.204c-.013 0-.026 0-.038.013s-.013.026-.013.04v1.912c0 .131.038.25.115.34a.44.44 0 0 0 .343.145h.166c.012 0 .025 0 .038-.013s.013-.026.013-.04v-.196c0-.013 0-.026-.013-.04-.013-.012-.026-.012-.038-.012h-.153c-.025 0-.051 0-.076-.013-.013 0-.026-.014-.026-.014-.013 0-.013-.013-.025-.013-.026-.026-.051-.078-.051-.157v-1.035h.33c.013 0 .026 0 .039-.013s.013-.026.013-.04v-.235c0-.013 0-.027-.013-.04 0-.013-.013-.026-.026-.026M6.277 15.736l-.012-.026v-.013h-.013l-.013-.013-.013-.013a.54.54 0 0 0-.394-.17h-.013a.42.42 0 0 0-.305.144l-.051.052v-.144c0-.013 0-.026-.013-.04-.013-.013-.026-.013-.038-.013H5.22c-.013 0-.026 0-.038.014-.013.013-.013.026-.013.039v1.768c0 .014 0 .027.013.04s.025.013.038.013h.178c.013 0 .025 0 .038-.013s.013-.026.013-.04V16.17c0-.092.038-.184.089-.25a.29.29 0 0 1 .23-.117c.05 0 .088.013.126.026.026.013.064.04.102.079l.013.013.038.052c.013.013.026.013.038.013s.026 0 .039-.013l.14-.13c.012-.014.012-.027.025-.04 0-.04 0-.053-.013-.066M11.077 16.404c-.115-.08-.255-.105-.407-.118l-.28-.027a.54.54 0 0 1-.23-.065c-.038-.026-.063-.079-.063-.144 0-.079.038-.144.089-.184a.53.53 0 0 1 .293-.078c.165 0 .318.039.432.118l.077.052c.013.013.025.013.038.013s.026-.013.038-.026l.102-.157c.013-.013.013-.027.013-.04s0-.013-.013-.026c0-.013-.013-.013-.013-.026l-.012-.013a1.17 1.17 0 0 0-.662-.197.87.87 0 0 0-.51.144.49.49 0 0 0-.203.407c0 .144.05.275.152.353.102.092.255.131.433.158l.293.026c.102.013.178.04.216.065.039.027.051.079.051.145a.22.22 0 0 1-.101.196c-.077.052-.191.079-.357.079-.216 0-.37-.053-.484-.158l-.05-.026c-.013-.013-.026-.013-.039-.013s-.025.013-.038.026l-.127.158c-.013.013-.013.026-.013.039s.013.026.013.04l.063.052h.013c.178.13.407.196.675.196.229 0 .42-.052.56-.144a.49.49 0 0 0 .216-.42v-.012a.45.45 0 0 0-.165-.393M18.079 17.295l-.242-.34-.471-.721.37-.407.216-.236.012-.013c.026-.026.013-.052 0-.065s-.025-.013-.038-.013h-.242a.1.1 0 0 0-.05.026l-.828.917v-1.428c0-.013 0-.026-.013-.04-.013-.012-.025-.012-.038-.012h-.191c-.013 0-.026 0-.038.013s-.013.026-.013.039v2.319c0 .013 0 .026.013.04.012.013.025.013.038.013h.19c.014 0 .026 0 .04-.014.012-.013.012-.026.012-.039v-.472l.356-.406.242.38.344.524c.013.014.025.027.05.027h.243c.012 0 .025 0 .038-.014.013-.026.025-.052 0-.078M15.954 14.95h.038l.05.158.052-.157h.038v.183h-.026v-.144l-.05.157h-.026l-.05-.157v.157h-.026zM16.297 15.043c.012 0 .025 0 .025-.014 0 0 .013-.013.013-.026s0-.026-.013-.026h-.063v.066zm-.077-.092h.115c.012.013.025.026.025.04v.025c0 .013-.012.013-.012.013.012 0 .012 0 .012.014v.065s0 .013.013.013h-.026v-.039c0-.013 0-.026-.012-.026h-.076v.078h-.026v-.183zM16.17 15.133s-.012 0 0 0c-.012-.026-.012-.026 0-.026s.013 0 0 .026q.02 0 0 0M16.41 15.133q-.018 0 0 0c-.012-.026-.012-.026 0-.026 0 0 .013 0 0 .026 0 0 .013 0 0 0"/><path fill="#6b196b" d="M20.103 10.468v.026c0 .537-.051 1.049-.255 1.428-.19.354-.509.603-1.107.603h-.038c-.611 0-.917-.249-1.12-.603-.204-.366-.255-.89-.255-1.428v-.039c0-.537.05-.957.254-1.323.191-.367.51-.603 1.12-.603h.026c.611 0 .917.249 1.12.603.191.366.255.799.255 1.323zm.178-2.254c-.013 0-.013-.013 0 0-.344-.327-.866-.51-1.477-.51h-.038c-.496 0-.993.104-1.426.484V6.171c0-.04-.012-.092-.05-.119S17.212 6 17.161 6h-.573c-.05 0-.089.013-.127.052-.038.027-.051.079-.051.118v6.932c0 .04.013.091.05.118.04.026.077.052.128.052h.573c.051 0 .09-.013.127-.052.039-.027.051-.079.051-.118v-.34c.382.431.93.589 1.426.589h.038c.611 0 1.133-.197 1.464-.511.611-.603.752-1.507.752-2.359 0-.865-.14-1.677-.739-2.267M25.348 10.586c0 .537-.051.956-.255 1.323-.19.367-.51.603-1.12.603h-.026c-.61 0-.916-.25-1.12-.603-.204-.367-.255-.8-.255-1.323v-.027c0-.537.051-1.06.255-1.428.191-.367.51-.603 1.12-.603h.038c.599.014.917.25 1.108.603.191.367.255.891.255 1.428v.027m.165 2.227c.598-.59.738-1.402.738-2.254 0-.851-.14-1.768-.75-2.358-.332-.315-.854-.511-1.465-.511h-.038c-.496 0-1.044.144-1.426.59v-.341c0-.04-.012-.092-.05-.118s-.077-.052-.128-.052h-.573c-.05 0-.089.013-.127.052-.038.026-.05.079-.05.118v6.931c0 .04.012.092.05.118s.076.053.127.053h.573c.051 0 .09-.014.128-.053.038-.026.05-.078.05-.118v-2.018c.433.38.93.485 1.426.485h.038c.611-.013 1.146-.196 1.477-.524 0 0 0 .013 0 0M33.673 13.77c-.051.145-.14.368-.204.499 0 0-.114.249-.267.406-.14.144-.306.249-.484.301a2 2 0 0 1-.293.066c-.14.013-.356.013-.47.013-.115 0-.204-.118-.204-.275v-.393c0-.144.063-.276.127-.276.076 0 .242-.013.395-.026 0 0 .114-.013.203-.091.102-.079.153-.197.153-.197.064-.131.153-.367.19-.498l.103-.301a.87.87 0 0 0 0-.511L31.33 8.006c-.05-.145.026-.25.179-.25h.56c.14 0 .305.119.343.263l1.044 3.17c.051.145.128.145.166 0l1.018-3.17c.051-.144.204-.262.344-.262h.56c.14 0 .217.118.178.249zM27.615 11.648c0-.301.089-.471.242-.602.165-.132.445-.21.865-.21h1.4v.445c0 .446-.088.682-.216.8-.305.288-.674.327-1.133.327h-.012c-.446 0-.726-.078-.892-.196-.165-.105-.241-.275-.254-.564m3.463-2.057c0-.563-.179-1.048-.56-1.363-.383-.327-.93-.471-1.63-.471h-.038c-.739 0-1.324.17-1.783.655l-.025.026c-.038.04-.064.079-.102.118l-.05.052a.2.2 0 0 0-.04.118c0 .04.026.092.065.118l.025.026.038.04.102.078.267.236c.039.026.077.053.128.04.038 0 .089-.027.114-.053l.166-.21a.9.9 0 0 1 .344-.262c.19-.078.432-.118.776-.13h.013c.496 0 .802.104.98.261s.267.393.267.76v.354h-1.464c-.585 0-1.082.144-1.438.42-.357.275-.548.707-.548 1.205v.013c0 .42.153.825.433 1.114.37.38.879.524 1.63.524h.394c.688 0 1.184-.17 1.503-.524s.445-.865.445-1.507zM10.555 7.768a.37.37 0 0 0-.344.276l-.993 3.603c-.038.144-.114.157-.165 0L7.894 8.03a.4.4 0 0 0-.356-.262h-.204c-.153 0-.318.118-.357.262l-1.145 3.617c-.051.144-.115.144-.166 0L4.66 8.044a.4.4 0 0 0-.356-.276h-.42c-.153 0-.242.118-.191.276l1.54 4.979c.051.144.204.275.357.275h.293c.14 0 .28-.105.318-.236l1.146-3.525c.05-.144.127-.144.178 0l1.146 3.499c.05.144.216.262.356.262h.28c.14 0 .293-.118.331-.25l1.528-5.004c.05-.145-.038-.276-.191-.276zM15.774 10.363c0-1.638-.84-2.66-2.203-2.66-1.375 0-2.202 1.048-2.202 2.804 0 1.808.827 2.804 2.342 2.804.942 0 1.439-.328 1.948-.852l.064-.065-.65-.59-.063.066c-.408.419-.751.576-1.286.576-.891 0-1.4-.59-1.426-1.651h3.476zm-3.463-.328c.013-.34.038-.498.14-.76a1.19 1.19 0 0 1 1.12-.747c.51 0 .93.288 1.12.734.102.262.128.406.14.76h-2.52z"/><path fill="#d5006c" d="M2.547 8.92a.55.55 0 0 0 .548-.563.55.55 0 0 0-.548-.563.55.55 0 0 0-.547.563.56.56 0 0 0 .547.564M35.71 13.286a.55.55 0 0 0 .548-.563.55.55 0 0 0-.547-.564.55.55 0 0 0-.548.564.56.56 0 0 0 .548.563"/></svg>