<svg width="38" height="24" viewBox="0 0 38 24" role="img" aria-labelledby="pi-yourgift" xmlns="http://www.w3.org/2000/svg"><title id="pi-yourgift">YourGift</title><g><path opacity=".07" d="M35 0H3C1.3 0 0 1.3 0 3v18c0 1.7 1.4 3 3 3h32c1.7 0 3-1.3 3-3V3c0-1.7-1.4-3-3-3z" fill="#000"/><path d="M35 1c1.1 0 2 .9 2 2v18c0 1.1-.9 2-2 2H3c-1.1 0-2-.9-2-2V3c0-1.1.9-2 2-2h32z" fill="#205c92" fill-opacity="1"/></g><path d="M18.79 15.15h.9c.3 0 .6.2.7.5 0 .3.1.6.2 1 0 .5-.2 1.1-.7 1.3-.3.2-.7.3-1 .3-.5.1-1.1 0-1.6-.1-.8-.3-1.5-1-1.7-1.9-.2-.6-.1-1.3.1-1.9.3-.699.9-1.199 1.6-1.499.4-.2.9-.3 1.4-.3.3 0 .5 0 .7.2.3.2.5.5.5.8v.4c-.3-.2-.7-.3-1.1-.2-.3 0-.5 0-.8.1-.6.1-1 .6-1 1.2s0 1.2.5 1.6c.5.4.6.4 1 .4h.5c.2 0 .2-.1.2-.3 0-.4-.1-.8-.3-1.2zm-3.2-7.798c1.1 0 2 .8 2.2 1.8.1.5 0 .9 0 1.4-.2.6-.6 1-1.2 1.2-.4.2-.8.2-1.2.2-1 0-1.899-.7-2.099-1.7-.1-.5 0-1.1.2-1.6.3-.6.8-1 1.5-1.2.3 0 .5-.1.7-.1zm-.9 2.2c0 .3.1.6.3.8.1.3.5.5.8.4.3 0 .6-.3.6-.6v-.8c0-.2-.2-.4-.3-.5-.3-.3-.7-.3-1 0l-.1.1c-.1.2-.2.4-.2.6zm6.3-3.099c.3 0 .6 0 .8-.1.4 0 .7.2.799.6 0 .3.1.6.2.9.1.3.1.5.1.8.1.499 0 .999-.3 1.399-.2.3-.5.6-.9.7-.4.2-.8.3-1.2.3-.3 0-.6 0-.8-.1-.5-.2-.8-.5-1-1 0-.3-.2-.6-.2-.8-.099-.6-.199-1.2-.299-1.7v-.4h.3c.2 0 .3-.1.5-.1.3 0 .5 0 .7.2.1.1.2.3.2.5 0 .5.2 1.1.3 1.6 0 .1 0 .3.1.4.1.2.3.3.6.3h.2c.3 0 .4-.3.4-.5v-.7c0-.5-.2-1-.3-1.4v-.6h-.1zM10.892 9.152c0-.2.1-.3.2-.5.2-.5.4-1 .5-1.5q0-.1.2-.2c.2 0 .4 0 .6-.1.3 0 .5.1.6.4v.4c-.1.5-.3.9-.5 1.3s-.4.8-.6 1.3c.1.6.2 1.2.3 1.9v.3h-.3c-.1 0-.3.1-.5.1-.5 0-.8-.3-.9-.7 0-.5-.1-.9-.2-1.4v-.1c-.8-.8-1.6-1.7-2.1-2.7.1 0 .3-.1.4-.1h.7c.2 0 .6.1.7.4.3.5.6.9 1 1.2zm15.396 3.599v.6c0 .2 0 .4-.2.5-.1 0-.3.1-.4.1h-.3v.5c0 .5.2 1 .3 1.5 0 .3 0 .5.1.8h-.7c-.4 0-.8-.3-.8-.6s-.1-.6-.2-.9c0-.5-.2-1-.3-1.5 0-.3-.1-.7-.2-1 0-.5 0-1 .3-1.4.3-.3.6-.5 1-.6h.7c.3 0 .5.3.6.6v.3h-.7c-.2 0-.4.1-.5.4v.6c.3 0 .6-.1.9-.1zm1.7-1.799l.2 1 1.2-.2v.6c0 .3-.2.6-.5.7h-.6v.499c0 .3.1.7.2 1 0 .3.2.4.5.4h.1c.2 0 .4 0 .6-.2v.3c0 .1.1.3.1.4 0 .2 0 .5-.3.6-.3.1-.4.2-.7.3h-.9c-.4-.1-.7-.5-.8-.8 0-.2-.1-.5-.2-.7 0-.5-.2-1-.3-1.4 0-.3-.1-.6-.2-1 0-.3 0-.5.1-.7.2-.3.5-.6.9-.7h.3zm-1.9-4.199h-.7c-.3 0-.5.4-.4.6 0 .5.2 1 .3 1.499 0 .4.1.8.2 1.2-.2 0-.5.1-.6.1-.5 0-.8-.3-.9-.7 0-.2 0-.5-.1-.7 0-.4-.1-.8-.2-1.3-.2-.8.3-1.6 1.1-1.8h.9c.3 0 .5.3.5.6v.4zm-5.098 6.598h1c.3 0 .5.2.5.4s.099.4.199.6c0 .5.2 1 .3 1.5 0 .2.2.4.4.4h.4v.5c0 .2-.1.5-.3.6-.2 0-.3.1-.5.2h-.8c-.4-.1-.6-.4-.8-.8 0-.2-.1-.5-.1-.7 0-.5-.2-1-.3-1.5 0-.3-.1-.6-.2-.9zm.5-2c.4 0 .7.3.8.6 0 .3 0 .5-.2.7-.3.3-.8.3-1.1 0-.3-.3-.3-.7 0-1 0 0 .1-.1.3-.2h.4z" stroke-width="1" fill="#fff"/></svg>