<svg xmlns="http://www.w3.org/2000/svg" width="38" height="24" viewBox="0 0 38 24" role="img" aria-labelledby="pi-aplus"><title id="pi-aplus">Pay with A+, Card</title><rect x="0" y="0" width="38" height="24" fill="#ffffff"/><rect x="0.5" y="0.5" width="37" height="23" rx="2" ry="2" fill="none" stroke="#000000" stroke-opacity="0.07"/><path d="M36.5 5.2H16.2c-10.8 0-5.6 10.2-14.9 13.7 0 0 16.5.2 21.8 0 9.1-.3 5.1-10.1 13.4-13.7Z" fill="#ce2028"/><g id="pi-a"><path d="M18.8 8.9c.6 1.3.9 2.8 1.4 4.8h2.8c-.5-1.9-.9-4.1-1.3-4.7-.4-.6-1.1-1-1.6-1.1-.7.2-1 .6-1.3 1.1Z" fill="#aeb1b1"/><path d="M23.9 17.2c-.4-.6-.6-1.3-.8-2-.1 0-.2-.1-.3-.1h-2.6c.3 1 .5 1.9.8 2.5.3.6.7.8 1.1.9h2.8c-.5-.3-.7-.8-1-1.3Z" fill="#aeb1b1"/><path d="M23.1 15.2c.5.1.7.6.7.6v-2.4s-.4-.7-1-.7h-5.9c.5-2.1.8-3.6 1.4-4.9.2-.5.6-.9 1.3-1.1h-2.5c-.5.1-1.2.5-1.6 1.1-.4.7-.8 2.9-1.3 4.7-.4 1.6-.7 3.2-1.5 4.6-.3.6-.6 1.1-1 1.4h2.8c.4-.1.9-.3 1.1-.9.3-.6.5-1.5.8-2.5h6.6c.1 0 .2 0 .3.1Z" fill="#ffffff"/></g><path id="pi-plus" d="M26.3 9.1h-1.2V7.9h-.9v1.2H23v.9h1.2v1.2h.9v-1.2h1.2v-.9Z" fill="#ffffff" stroke="#ffffff" stroke-width="0.4" stroke-miterlimit="10"/></svg>
