<svg width="38" height="24" viewBox="0 0 38 24" fill="none" role="img" aria-labelledby="pi-avardakekale" xmlns="http://www.w3.org/2000/svg"><title id="pi-avardakekale">Kekäle</title><rect x="1" y="1" width="36" height="22" rx="2" fill="#fff"/><rect x=".5" y=".5" width="37" height="23" rx="2.5" stroke="#000" stroke-opacity=".07"/><path fill-rule="evenodd" clip-rule="evenodd" d="M33.835 13.655l1.062.512a2.89 2.89 0 01-2.6 1.632 2.89 2.89 0 01-2.847-2.424h1.21c.198.74.857 1.284 1.638 1.284.678 0 1.265-.411 1.537-1.004zm-1.537-2.489c.447 0 .854.18 1.158.47l-1.698 1.192.646.92L35 11.9a2.89 2.89 0 00-2.702-1.873 2.89 2.89 0 00-2.856 2.474h1.206c.18-.765.852-1.335 1.65-1.335zm-7.648-.483a2.75 2.75 0 00-1.268-.608v1.159c.737.188 1.285.87 1.285 1.679 0 .81-.548 1.49-1.285 1.679v1.159a2.75 2.75 0 001.268-.609v.54h1.199v-5.537H24.65v.538zm-4.567 2.23c0 1.437 1.024 2.633 2.358 2.85v-1.205a1.73 1.73 0 01-1.17-1.645 1.73 1.73 0 011.17-1.645v-1.205c-1.334.217-2.358 1.412-2.358 2.85zM22.042 8c-.423 0-.764.305-.764.717 0 .411.34.728.764.728.4 0 .74-.317.74-.728a.725.725 0 00-.74-.717zm2.152 1.445a.737.737 0 00.752-.728c0-.412-.34-.717-.752-.717-.423 0-.764.305-.764.717 0 .411.341.728.764.728zm2.927 6.236h1.21V8.098h-1.21v7.583zm-12.307 0h1.21V8.098h-1.21v7.583zm4.88-4.932l-.807-.754-2.55 2.762 2.577 3.079.885-.729-2.024-2.35 1.918-2.008zm-11.815 0l-.806-.754-2.55 2.762L7.1 15.836l.885-.729-2.025-2.35 1.919-2.008zm3.28 3.91c-.781 0-1.44-.545-1.638-1.284h-1.21a2.89 2.89 0 002.848 2.424 2.89 2.89 0 002.599-1.632l-1.062-.512a1.698 1.698 0 01-1.537 1.004zm0-4.632a2.89 2.89 0 00-2.856 2.474h1.206c.18-.765.852-1.335 1.65-1.335.447 0 .854.18 1.158.47l-1.697 1.192.645.92L13.86 11.9a2.89 2.89 0 00-2.702-1.873zM3 8.097v7.584h1.21V8.098H3z" fill="#38AD6C"/></svg>