<svg width="38" height="24" viewBox="0 0 38 24" fill="none" role="img" aria-labelledby="pi-avardabubbleroom" xmlns="http://www.w3.org/2000/svg"><title id="pi-avardabubbleroom">Bubbleroom</title><path fill="#000" opacity=".07" d="M35 0H3C1.3 0 0 1.3 0 3v18c0 1.7 1.4 3 3 3h32c1.7 0 3-1.3 3-3V3c0-1.7-1.4-3-3-3z"/><path fill="#fff" d="M35 1c1.1 0 2 .9 2 2v18c0 1.1-.9 2-2 2H3c-1.1 0-2-.9-2-2V3c0-1.1.9-2 2-2h32"/><path d="M4 13.69v-2.66h.97c.243 0 .422.064.56.18.136.126.2.306.2.538a.673.673 0 01-.064.295.494.494 0 01-.19.2c.264.116.401.327.401.654 0 .254-.073.454-.232.591-.158.137-.369.211-.643.211H4v-.01zm.496-1.625h.453c.106 0 .19-.021.232-.063.053-.042.074-.116.074-.222 0-.105-.021-.179-.074-.221-.052-.042-.137-.063-.242-.063h-.443v.57zm0 1.17h.453c.285 0 .433-.115.433-.358 0-.242-.148-.358-.433-.358h-.453v.717zm2.436-.558V11.03h.496v1.656c0 .39.169.58.496.58.327 0 .495-.19.495-.58v-1.655h.496v1.645c0 .337-.084.59-.264.77-.179.18-.422.264-.727.264-.306 0-.549-.085-.728-.264-.18-.169-.264-.433-.264-.77zm3.301 1.013v-2.66h.97c.243 0 .423.064.56.18.137.126.2.306.2.538a.673.673 0 01-.063.295.494.494 0 01-.19.2c.264.116.4.327.4.654 0 .254-.073.454-.231.591-.158.137-.37.211-.644.211h-1.002v-.01zm.496-1.625h.454c.105 0 .19-.021.232-.063.052-.042.074-.116.074-.222 0-.105-.022-.179-.074-.221-.053-.042-.137-.063-.243-.063h-.443v.57zm0 1.17h.454c.284 0 .432-.115.432-.358 0-.242-.148-.358-.432-.358h-.454v.717zm2.679.455v-2.66h.97c.243 0 .422.064.56.18.136.126.2.306.2.538a.673.673 0 01-.063.295.493.493 0 01-.19.2c.263.116.4.327.4.654 0 .254-.073.454-.232.591-.158.137-.369.211-.643.211h-1.002v-.01zm.496-1.625h.453c.106 0 .19-.021.232-.063.053-.042.074-.116.074-.222 0-.105-.02-.179-.074-.221-.052-.042-.137-.063-.242-.063h-.443v.57zm0 1.17h.453c.285 0 .433-.115.433-.358 0-.242-.148-.358-.433-.358h-.453v.717zm2.531.455v-2.66h.496v2.205h1.128v.453h-1.624zm2.742 0v-2.66h1.646v.454h-1.15v.559h.928v.454h-.928v.738h1.192v.453h-1.688zm2.923 0v-2.66h.97c.253 0 .453.064.6.2a.74.74 0 01.212.55.794.794 0 01-.127.453.686.686 0 01-.37.264l.74 1.191h-.55l-.716-1.15h-.264v1.15h-.496zm.495-1.604h.475c.21 0 .316-.095.316-.295 0-.2-.106-.295-.316-.295h-.475v.59zm2.542 1.277c-.232-.243-.359-.57-.359-1.002 0-.433.116-.77.359-1.002.232-.243.538-.359.896-.359.359 0 .665.116.897.359.232.242.358.57.358 1.002 0 .432-.116.77-.358 1.002-.232.242-.538.358-.897.358-.358 0-.654-.116-.896-.358zm1.445-.327c.137-.159.21-.38.21-.675 0-.296-.073-.517-.21-.675a.674.674 0 00-.538-.232.67.67 0 00-.538.232c-.137.158-.211.38-.211.675 0 .295.074.516.21.675a.674.674 0 00.539.232c.221 0 .4-.074.538-.232zm1.951.327c-.232-.243-.359-.57-.359-1.002 0-.433.116-.77.359-1.002.232-.243.538-.359.896-.359.36 0 .665.116.897.359.232.242.358.57.358 1.002 0 .432-.116.77-.358 1.002-.232.242-.538.358-.897.358-.358 0-.664-.116-.896-.358zm1.445-.327c.137-.159.21-.38.21-.675 0-.296-.073-.517-.21-.675a.674.674 0 00-.538-.232c-.222 0-.4.073-.538.232-.137.158-.21.38-.21.675 0 .295.073.516.21.675a.674.674 0 00.538.232c.21 0 .39-.074.538-.232zm1.645.654v-2.66h.56l.621 1.667.633-1.667h.56v2.658H33.5v-1.645l-.507 1.403h-.369l-.506-1.403v1.645h-.496z" fill="#000"/></svg>