<svg width="38" height="24" viewBox="0 0 38 24" fill="none" xmlns="http://www.w3.org/2000/svg" role="img" aria-labelledby="pi-bemovil"><title id="pi-bemovil">Bemovil</title><path fill="#000" opacity=".07" d="M35 0H3C1.3 0 0 1.3 0 3v18c0 1.7 1.4 3 3 3h32c1.7 0 3-1.3 3-3V3c0-1.7-1.4-3-3-3z"/><path fill="#fff" d="M35 1c1.1 0 2 .9 2 2v18c0 1.1-.9 2-2 2H3c-1.1 0-2-.9-2-2V3c0-1.1.9-2 2-2h32"/><rect x="1" y="1" width="36" height="22" rx="2" fill="#8162acff"/><path d="M22.387 4.369h.805l.426.069.474.137.308.115.426.229.38.252.236.206.119.115.118.16.071.16v.367l-.119.275-.189.23-.284.32-.213.206-.166.184-.474.458-.19.16-.212.184-.332.252-.213.183-.332.23-.237.16-.402.252-.237.137-.45.253-.734.366-.45.184.023.114.166.252.19.206.166.184.331.275.355.183.427.16.236.046h.782l.379-.091.45-.184.237-.137.379-.298.308-.367.26-.435.19-.481.094-.367.072-.413.142-.252.165-.137.237-.115.26-.046h.332l.119.07.095.183v.527l-.048.48-.07.368-.19.55-.214.48-.26.436-.166.206-.213.253-.403.39-.308.228-.236.16-.498.253-.379.114-.355.092-.474.069h-.592l-.45-.069-.592-.16-.402-.184-.332-.183-.426-.32-.38-.345-.212-.252-.285-.39-.284-.526-.047-.046-.26.023-.522.114-.047.046.213.344.237.527.095.481.047.298v.573l-.119.642-.142.366-.19.39-.283.367-.26.275-.167.16-.379.252-.355.183-.402.115-.285.046h-2.89l-.425-.069-.356-.137-.379-.207-.308-.229-.331-.32-.237-.321-.284-.528-.119-.366-.07-.298-.048-.39v-2.566l-.26-.07-.711-.251-.332-.16-.142-.115-.142-.23-.047-.183V9.25l.07-.23.19-.389.119-.137.142-.023.237.069.568.229.26.091.024-.16.024-.917.095-.595.142-.413.19-.367.165-.252.237-.298.284-.275.332-.229.355-.183.474-.16.52-.07h1.232l.498.047.355.091.379.138.331.183.308.252.19.16.237.253.26.39.142.274.142.367.095.367.024.183v.848l-.048.32-.19.55v.07l.522-.092.521-.115.071-.046.047-.687.095-.619.213-.665.166-.39.19-.366.165-.275.237-.32.427-.482.26-.206.237-.183.355-.207.332-.16.497-.16.474-.092z" fill="#00FDFD"/><path d="M12.226 10.9l.237.023.38.069 1.018.114.189.023 1.871.023.426.092.356.137.26.207.19.206.213.39.118.412v.32l-.047.276-.119.32-.189.321-.213.23-.237.183-.284.114-.237.07-.805.022h-.806l-.97-.023-.403-.091-.284-.16-.214-.184-.213-.275-.166-.344-.07-.275-.024-.183v-1.994l.023-.023zm1.398-4.446h1.42l.285.046.284.115.213.16.237.206.213.321.119.298.047.206v.527l-.118.367-.19.367-.26.275-.19.137-.284.138-.213.068H14.5l-.568-.045-.83-.115-.71-.137-.166-.07-.023-.022v-1.33l.047-.32.118-.298.143-.252.165-.206.213-.184.214-.137.165-.069.356-.046z" fill="#8162acff"/><path d="M26.295 13.833h.19l.165.115.142.206.047.138v.481l-.142.275-.142.16-.213.138-.403.114-.876.16-.876.116-.853.068h-1.208l-.663-.046-.663-.068-.592-.115-.213-.092-.213-.16-.143-.23-.118-.412.024-.206.094-.206.119-.138.118-.091.166-.023.734.137.877.092.473.023h1.208l.734-.046.735-.092.852-.16.64-.138z" fill="#FD7507"/><path d="M22.553 5.858h.544l.38.069.402.183.024.092-.213.23-.45.435-.237.183-.521.412-.308.207-.237.16-.474.275-.379.206-.379.184-.355.16h-.118l.023-.481.119-.481.142-.344.118-.206.19-.275.26-.298.119-.115.308-.23.402-.182.284-.115.356-.069z" fill="#8162acff"/><path d="M11.397 16.56h.308l.024.023.024 1.009.19-.16.283-.115.38-.023.283.046.285.137.237.206.142.23.047.137v.412l-.095.207-.142.206-.213.183-.284.138-.237.046h-.213l-.332-.07-.237-.114-.236-.206-.143-.23-.047-.137-.024-.16V16.56z" fill="#E7F9FA"/><path d="M15.021 17.294l.308.023.26.091.214.138.19.206.118.275.023.092v.183l-.023.023-.166.023H14.31l.047.206.142.184.19.137.284.092.237-.023.26-.092.26-.16.024-.023h.26l-.023.137-.166.16-.26.161-.166.069-.118.023h-.474l-.26-.092-.214-.137-.165-.184-.119-.229-.047-.183v-.321l.094-.252.143-.184.165-.16.237-.114.166-.046.213-.023z" fill="#E8F9FA"/><path d="M17.153 17.317h.52l.285.137.19.206.094-.114.19-.16.165-.07h.498l.237.07.165.114.143.23.07.274v1.169l-.07.069h-.166l-.024-.07-.024-1.1-.07-.228-.096-.138-.189-.114-.118-.023h-.19l-.19.069-.118.045-.047.092-.095.252-.023.23-.024.962-.166.023-.095-.023-.023-.115-.024-1.123-.118-.229-.166-.137-.119-.046h-.26l-.237.091-.142.184-.071.252-.024 1.123-.047.023h-.166l-.071-.07v-1.168l.07-.229.143-.23.19-.16.213-.068z" fill="#E6F9FA"/><path d="M12.44 17.546l.284.023.237.091.213.184.118.229v.366l-.095.207-.165.183-.285.115-.118.023h-.26l-.237-.07-.19-.114-.166-.183-.07-.183v-.321l.094-.23.118-.114.119-.092.237-.091.166-.023zm8.691 0h.19l.284.069.142.091.119.115.118.183.047.206v.16l-.094.23-.142.183-.237.138-.19.046h-.284l-.26-.092-.237-.206-.119-.23v-.343l.095-.206.166-.184.284-.137.118-.023z" fill="#8162acff"/><path d="M20.966 17.317h.544l.261.091.213.138.19.206.118.275.024.16v.184l-.071.252-.119.183-.19.206-.236.138-.213.069h-.474l-.308-.092-.213-.137-.213-.275-.095-.23-.024-.297.048-.253.142-.229.142-.16.237-.16.237-.07zm.166.229l-.237.069-.213.137-.142.16-.072.184v.344l.119.229.166.16.236.115.095.023h.284l.237-.07.213-.137.142-.183.072-.206-.024-.298-.118-.23-.119-.114-.118-.091-.19-.07-.142-.022h-.19zm1.468-.229h.308l.19.366.355.734.19.366v.046l.07-.069.142-.366.45-.917.071-.137.024-.023h.284l-.024.114-.355.756-.402.825-.095.184-.071.046h-.142l-.119-.092-.19-.367-.354-.733-.332-.71v-.023z" fill="#ECFAFA"/><path d="M25.94 16.538l.094.022v2.636l-.023.023h-.214l-.023-.046V16.56l.165-.022z" fill="#DFF7F9"/><path d="M14.926 17.546h.26l.261.091.237.207.142.206-.023.069H14.31l-.023-.092.19-.252.189-.138.142-.068.118-.023z" fill="#8162acff"/><path d="M25.04 17.317h.284l.023.091-.023 1.81-.237.024-.048-.023v-1.902z" fill="#F6FBFB"/><path d="M26.366 8.31h.331l.119.07.095.183v.527l-.048.48-.07.368-.19.55-.213.48-.261.436-.166.206-.213.253-.403.39-.308.228-.236.16-.498.253-.379.114-.355.092-.118.023h-.166V13.1l.52-.115.475-.137.52-.275.285-.206.166-.138.19-.16.378-.367.237-.32.166-.253.142-.252.142-.298.166-.458.094-.413.048-.343v-.802l-.048-.16-.094-.024h-.356l-.236.046-.119.046-.118.114-.119.138-.094.206-.072.321-.047.275-.142.413-.118.274-.166.253-.19.252-.165.183-.119.115-.07.022v.046l-.096.023.119-.114.19-.207.212-.275.214-.343.142-.344.094-.275.072-.275.07-.413.143-.252.165-.137.237-.115.26-.046zm-.806-2.795l.072.068.118.23v.366l-.118.275-.19.23-.284.32-.213.206-.166.184-.474.458-.19.16-.212.184-.332.252-.213.183-.332.23-.236.16-.403.252-.237.137-.45.252-.734.367-.213.092-.071-.023.758-.367.355-.183.308-.183.213-.115.213-.138.332-.229.355-.229.095-.046v-.046l.094-.068h.048v-.046l.26-.183.237-.207.142-.114.119-.115.094-.046v-.046l.19-.16.308-.298.165-.183.166-.16.166-.184.047-.069h.048l.047-.091.142-.184.095-.229v-.39l-.118-.229v-.045zM16.371 5.4l.095.046.237.183.236.206.214.23.26.39.142.274.142.367.095.367.024.183v.848l-.047.32-.19.55v.07l.308-.046h.118l-.094.045-.214.046h-.165v-.16l.118-.321.071-.275.024-.252v-.848l-.071-.344-.119.366-.118-.298-.142-.252-.024-.07h-.047l-.071-.114-.166-.206-.142-.138V5.79l-.095-.046-.213-.184-.166-.114V5.4zm3.482.413v.068l-.214.298-.26.436-.166.366-.095.23-.118.343-.142.573-.095 1.008-.07.115-.072.046-.284.046h-.142v-.023l.426-.092.071-.046.047-.687.095-.619.213-.665.166-.39.19-.366.165-.275.237-.32.048-.046zm-1.563 5.156l.094.091.19.367.165.39.119.71v.573l-.119.642-.094.252-.024-.092.071-.23.071-.595v-.481l-.07-.619-.12-.39-.189-.412-.095-.16v-.046zm2.273-.849h.119l-.072.047-.094.046.023.114.166.252.19.206.166.184.331.275.355.183.427.16.236.046h.782l.308-.068.071.023-.379.114-.332.023h-.307l-.332-.069-.426-.137-.403-.207-.237-.206-.237-.183-.19-.23-.141-.16-.119-.229v-.114l.095-.07zm-8.337-2.474h.024l-.024.32v1.33l.166.069.876.16.853.115.379.023h.758l-.047.045-.308.023-.735-.023-.781-.091-1.042-.207-.166-.068V7.875l.047-.23zm1.398-2.704h1.231l.498.045.355.092v.023l-.237-.023-.071-.023-.308-.023-1.516-.023h-.355v-.023l.403-.045zm-1.421 5.912l.26.046v.023h-.237v1.994l.071.39.119.274.166.275.19.207.307.206.095.069-.119-.023-.237-.16-.213-.184-.213-.321-.142-.298-.071-.32V10.9l.024-.046zm9.213-4.606l.047.023-.308.252h-.047l-.047.092-.214.252-.284.412-.118.298-.119.367-.047.229-.047.481h.118l-.047.046h-.095l.024-.642.142-.504.094-.183.072-.16.213-.321.213-.252.118-.138h.048v-.046l.284-.206zm-7.532.137h.806l.331.023.308.069-.095.023-.19-.023h-1.42l-.356.023.071-.046.261-.046.284-.023z" fill="#00D2E9"/><path d="M25.04 16.698h.284l.023.023v.206l-.07.069-.143.023-.118-.115-.024-.16.047-.046z" fill="#D6F6F9"/><path d="M24.66 4.85l.119.046.426.275.237.206.119.115h-.072l-.165-.138v-.046h-.048v-.046l-.118-.045-.26-.184-.238-.16V4.85zm-6.631 10.06v.07l-.332.32-.094.069-.048-.023.119-.115h.047v-.046h.047v-.045l.166-.138.095-.092z" fill="#00D2E9"/></svg>