<svg width="38" height="24" viewBox="0 0 38 24" fill="none" xmlns="http://www.w3.org/2000/svg" role="img" aria-labelledby="pi-cabal"><title id="pi-cabal">Cabal</title><path fill="#000" opacity=".07" d="M35 0H3C1.3 0 0 1.3 0 3v18c0 1.7 1.4 3 3 3h32c1.7 0 3-1.3 3-3V3c0-1.7-1.4-3-3-3z"/><path fill="#fff" d="M35 1c1.1 0 2 .9 2 2v18c0 1.1-.9 2-2 2H3c-1.1 0-2-.9-2-2V3c0-1.1.9-2 2-2h32z"/><path fill="#1f5e90" d="M35.927 6.181v9.817c0 .985-.805 1.79-1.79 1.79H2.073V6.181h33.854z"/><path fill="#fefefe" d="M15.214 9.397c-1.308.013-1.874.544-1.874 1.454v2.263c0 .907.566 1.44 1.874 1.454v.005h1.409v-.365a.499.499 0 00-.495-.499h-.914v-.004c-.64-.016-.852-.243-.852-.757v-1.931c0-.512.212-.742.852-.759h1.467v-.364a.497.497 0 00-.498-.497h-.969zm4.271.938l.751 2.376h-1.49l.739-2.376zm-.307-.783a.567.567 0 00-.537.386l-1.567 4.637h1.067l.348-1.043h2l.338 1.043h1.069l-1.7-5.023h-1.018zm4.165 2.866h1.137c.405 0 .566.164.566.505v.377c0 .37-.196.49-.656.49h-1.047v-1.372zm0-2.083h.981c.373 0 .537.132.537.408v.445c0 .296-.146.469-.543.469h-.975v-1.322zm-1.016-.783v5.023h2.267c.977 0 1.471-.446 1.471-1.155v-.534c0-.491-.29-.831-.786-.93.413-.165.601-.398.601-.813v-.518c0-.683-.415-1.072-1.433-1.072h-2.12v-.001zm6.377.783l.751 2.376h-1.488l.737-2.376zm-.158-.783a.778.778 0 00-.734.526l-1.521 4.497h1.069l.349-1.043h2l.339 1.043h1.068l-1.699-5.023h-.871zm3.497-.074a.564.564 0 00-.565.564v4.533h3.236v-.837h-2.217v-4.26h-.455.001zM3.447 11.602a.537.537 0 000 .769l3.849 3.779-.002-2.112-1.807-1.785a.378.378 0 010-.535l1.809-1.789V7.821l-3.849 3.781zm4.56-1.674l1.81 1.79c.15.147.15.388 0 .534l-1.808 1.786-.001 2.112 3.851-3.78a.54.54 0 00-.002-.768L8.007 7.82v2.108z"/></svg>