<svg aria-labelledby="pi-carecredit" role="img" data-name="Layer 1" xmlns="http://www.w3.org/2000/svg" width="38" height="24" viewBox="0 0 38 24"><title id="pi-carecredit">CareCredit</title><path opacity=".07" d="M35 0H3C1.3 0 0 1.3 0 3v18c0 1.7 1.4 3 3 3h32c1.7 0 3-1.3 3-3V3c0-1.7-1.4-3-3-3z" fill="#000"/><path d="M35 1c1.1 0 2 .9 2 2v18c0 1.1-.9 2-2 2H3c-1.1 0-2-.9-2-2V3c0-1.1.9-2 2-2h32z" fill="#fff"/><path fill="#00ae9d" d="M6.33 12.02c.44-.38.4-1.65-.08-1.31-.67.47-1.35.98-1.79 1.25-.68.4-1.47.75-2.05.95-.16.06-.2.06-.19.09 0 .03.05.03.19.02.97-.06 2.12-.23 3.1-.57.45-.16.6-.24.82-.43"/><path fill="#006f60" d="M6.56 13.65c.74-.32 1.05-1.55.43-1.32-.87.33-2.05.61-2.61.71-.94.17-1.93.19-2.59.17-.09 0-.17-.02-.18.02-.01.03.05.06.16.11.79.37 2.13.61 3.57.54.66-.03.97-.12 1.22-.23"/><path fill="#7ac143" d="M5.47 10.64c.3-.62-.24-1.56-.44-1.19-.3.57-.88 1.35-1.1 1.64-.35.47-.73.93-1.07 1.26-.09.09-.14.13-.13.15.02.02.06 0 .15-.04.71-.32 1.47-.75 2.06-1.23.35-.28.43-.39.53-.61"/><path fill="#006f60" d="M10.4 14.01c-1.23 0-2.15-.95-2.15-2.16 0-1.2.9-2.18 2.19-2.18.79 0 1.26.26 1.65.65l-.59.68c-.32-.29-.65-.47-1.07-.47-.71 0-1.22.59-1.22 1.31 0 .73.5 1.33 1.22 1.33.48 0 .77-.19 1.1-.49l.59.59c-.43.46-.91.75-1.72.75M13.78 10.69c-.55 0-.89.1-1.25.26l.23.7c.29-.11.54-.17.89-.17.46 0 .69.21.69.59v.05a2.23 2.23 0 00-.78-.13c-.76 0-1.29.32-1.29 1.02 0 .65.5 1 1.1 1 .44 0 .75-.16.97-.41v.35h.88v-1.86c0-.87-.44-1.38-1.43-1.38z"/><path fill="#fff" d="M14.36 12.81c0 .33-.29.56-.71.56-.29 0-.5-.14-.5-.39 0-.3.24-.45.63-.45.22 0 .43.05.58.12v.16z"/><path fill="#006f60" d="M17.47 11.62c-.61 0-.98.37-.98 1.13v1.19h-.91v-3.21h.91v.65c.19-.44.49-.73 1.03-.71v.95h-.05zM19.17 10.67c-.94 0-1.59.76-1.59 1.67 0 .99.71 1.67 1.68 1.67.58 0 1.01-.23 1.31-.6l-.52-.46c-.25.23-.47.33-.78.33-.41 0-.69-.22-.78-.63h2.24c0-.08.01-.14.01-.23 0-.92-.49-1.76-1.56-1.76z"/><path fill="#fff" d="M18.48 12.08c.07-.41.32-.68.7-.68s.62.28.68.68h-1.37z"/><path fill="#006f60" d="M24.53 12.98c-.19.19-.39.34-.59.44-.2.1-.43.15-.7.15-.22 0-.43-.04-.62-.13s-.36-.2-.5-.35c-.1-.1-.18-.23-.25-.36-.02-.05-.05-.1-.07-.15-.09-.21-.13-.44-.13-.69 0-.26.04-.48.13-.69.02-.05.04-.1.07-.15.07-.13.15-.25.25-.35.14-.15.3-.27.49-.35s.4-.13.62-.13c.14 0 .27.01.38.04.12.03.23.07.33.11.1.05.2.1.28.17.09.07.18.14.26.22l.06.05.31-.32-.06-.05c-.1-.09-.21-.18-.32-.26-.11-.08-.23-.15-.35-.2-.13-.06-.26-.1-.41-.13a2.46 2.46 0 00-.49-.05 1.992 1.992 0 00-1.87 1.29c-.1.25-.15.52-.15.81 0 .3.05.57.15.82.1.25.24.47.42.66.18.19.39.34.64.44s.52.16.8.16c.18 0 .34-.02.49-.05a1.884 1.884 0 00.78-.36c.11-.09.22-.18.33-.28l.06-.06-.31-.3-.05.05zM26.95 10.89h-.08c-.15 0-.29.01-.43.05-.13.04-.26.1-.37.18-.11.08-.22.18-.3.29-.03.03-.05.07-.07.1v-.58h-.43v2.99h.43v-1.24c0-.22.03-.41.1-.58.06-.17.15-.31.25-.42.1-.11.23-.2.37-.25.14-.06.29-.09.44-.09h.1v-.45zM29.64 11.81a1.395 1.395 0 00-.71-.82c-.17-.08-.36-.12-.57-.12a1.355 1.355 0 00-1.02.45c-.13.14-.23.31-.3.49-.07.19-.11.39-.11.6 0 .24.04.46.12.65.08.19.19.36.32.49.13.14.29.24.47.32.18.07.37.11.56.11.28 0 .53-.05.72-.16.19-.1.36-.24.51-.4l.05-.06-.3-.27-.05.05c-.11.12-.24.22-.39.3-.14.08-.32.12-.53.12-.13 0-.26-.02-.38-.07s-.22-.11-.32-.2c-.09-.09-.17-.2-.24-.33-.05-.1-.09-.23-.1-.36h2.33v-.06s.02-.05.02-.07v-.06c0-.22-.03-.42-.1-.61z"/><path fill="#fff" d="M27.39 12.21c.02-.12.05-.22.09-.33.06-.13.13-.24.21-.33.08-.09.18-.16.3-.21.11-.05.24-.08.36-.08.15 0 .28.03.39.08s.21.13.28.22c.08.09.14.2.18.33.03.1.06.2.07.31h-1.9z"/><path fill="#006f60" d="M32.57 9.71v1.68s-.05-.05-.07-.08c-.08-.09-.17-.16-.27-.23s-.21-.12-.34-.16c-.13-.04-.26-.06-.41-.06-.18 0-.36.04-.53.11-.17.07-.33.18-.47.31-.14.13-.25.3-.33.49-.08.19-.13.41-.13.65 0 .25.04.47.13.66a1.412 1.412 0 00.8.79c.17.07.35.11.53.11.15 0 .29-.02.41-.06.12-.04.24-.1.34-.16.1-.07.19-.15.27-.24a.55.55 0 00.07-.09v.48H33V9.7h-.43z"/><path fill="#fff" d="M32.58 12.43a1.135 1.135 0 01-.33.82c-.1.1-.22.18-.35.23-.26.11-.55.11-.8 0a.856.856 0 01-.33-.23c-.09-.1-.17-.22-.23-.36-.06-.14-.08-.3-.08-.48 0-.19.03-.35.08-.49s.13-.26.22-.35c.09-.1.2-.17.33-.22.13-.05.26-.08.41-.08.14 0 .27.03.4.08.13.06.25.13.35.23.1.1.18.22.24.36.06.14.09.3.09.47z"/><path fill="#006f60" d="M33.65 13.92h.42v-2.99h-.42v2.99zM33.61 10.34h.5v-.52h-.5v.52zM36.39 11.33v-.4h-.99v-.91h-.43v.91h-.41v.4h.41v1.78c0 .14.02.27.07.38.05.11.11.2.19.27s.17.13.28.16c.1.03.22.05.33.05.1 0 .18 0 .26-.03.08-.02.16-.04.23-.08l.05-.02v-.42l-.11.05c-.08.03-.14.06-.2.07-.06.01-.12.02-.18.02-.15 0-.27-.04-.36-.11-.09-.07-.13-.19-.13-.37v-1.75h.99z"/></svg>