<svg xmlns="http://www.w3.org/2000/svg" role="img" viewBox="0 0 38 24" width="38" height="24" aria-labelledby="pi-crediteapay"><title id="pi-crediteapay">Creditea Pay</title><path d="M35 0H3C1.3 0 0 1.3 0 3v18c0 1.7 1.4 3 3 3h32c1.7 0 3-1.3 3-3V3c0-1.7-1.4-3-3-3z" fill="#000" opacity=".07"/><path d="M35 1c1.1 0 2 .9 2 2v18c0 1.1-.9 2-2 2H3c-1.1 0-2-.9-2-2V3c0-1.1.9-2 2-2h32" fill="#fff"/><g transform="matrix(0.07520731490094405 0 0 0.07520731490094405 0 4.048706632097691)">    <path fill="#11465b" fill-rule="evenodd" d="M110.21,71.96c1.03,1.07,1.03,2.81,0,3.88l-43.5,44.95c-1.03,1.07-2.72,1.07-3.75,0l-21.78-22.5c-1.03-1.07-1.03-2.81,0-3.88l43.5-44.95c1.03-1.07,2.72-1.07,3.75,0l21.78,22.5Zm-51.99-5.01c1.03-1.07,1.03-2.81,0-3.88l-13.21-13.65c-1.03-1.07-2.72-1.07-3.75,0l-21.81,22.53c-1.03,1.07-1.03,2.81,0,3.88l13.22,13.65c1.03,1.07,2.72,1.07,3.75,0l21.81-22.53Z"/>    <path fill="#11465b" fill-rule="evenodd" d="M440.15,65.62c-1.47,2.28-2.31,5.15-2.51,8.6h14.25c.27-2.9,1.21-4.98,2.81-6.22,1.6-1.24,3.81-1.87,6.62-1.87,1.27,0,2.46,.09,3.56,.26,1.1,.17,2.07,.52,2.91,1.04,.84,.52,1.51,1.24,2.01,2.18,.5,.93,.75,2.2,.75,3.78,.06,1.52-.37,2.68-1.3,3.47-.94,.79-2.21,1.4-3.81,1.81-1.61,.41-3.45,.73-5.52,.93-2.07,.21-4.18,.48-6.32,.83-2.14,.35-4.26,.81-6.37,1.4-2.11,.59-3.98,1.47-5.62,2.64-1.64,1.18-2.98,2.75-4.01,4.72-1.04,1.97-1.56,4.48-1.56,7.51,0,2.76,.45,5.15,1.36,7.15,.9,2.01,2.16,3.66,3.76,4.97,1.61,1.32,3.48,2.28,5.62,2.9,2.14,.62,4.45,.93,6.92,.93,3.21,0,6.36-.48,9.43-1.45,3.07-.97,5.75-2.66,8.03-5.08,.07,.9,.18,1.78,.35,2.64,.17,.87,.39,1.71,.65,2.54h14.45c-.67-1.1-1.14-2.76-1.4-4.98-.27-2.21-.4-4.52-.4-6.94v-27.89c0-3.24-.7-5.86-2.11-7.83-1.4-1.97-3.21-3.51-5.42-4.61-2.21-1.1-4.65-1.85-7.32-2.23-2.68-.38-5.32-.57-7.93-.57-2.88,0-5.74,.29-8.58,.88-2.85,.59-5.4,1.57-7.68,2.95-2.28,1.38-4.15,3.21-5.62,5.49Zm28.14,20.78c.91-.31,1.66-.74,2.26-1.29v5.49c0,.83-.08,1.94-.25,3.32-.17,1.38-.62,2.75-1.36,4.09-.74,1.35-1.87,2.51-3.41,3.47-1.54,.97-3.71,1.45-6.52,1.45-1.14,0-2.24-.1-3.31-.31-1.07-.21-2.01-.57-2.81-1.09-.8-.52-1.44-1.23-1.91-2.13-.47-.9-.7-2-.7-3.32,0-1.38,.23-2.52,.7-3.42,.47-.9,1.09-1.64,1.86-2.23,.77-.58,1.67-1.05,2.71-1.4,1.04-.35,2.09-.62,3.16-.83,1.14-.21,2.27-.38,3.41-.52,1.14-.14,2.22-.31,3.26-.52,1.03-.21,2.01-.47,2.91-.78Zm-69.9,12.08c2.14,2.14,5.22,3.21,9.23,3.21,2.88,0,5.35-.74,7.43-2.23,2.07-1.48,3.34-3.06,3.81-4.72h12.54c-2.01,6.43-5.09,11.02-9.23,13.79-4.15,2.76-9.17,4.15-15.05,4.15-4.08,0-7.76-.67-11.04-2.02-3.28-1.35-6.06-3.27-8.33-5.75-2.27-2.49-4.03-5.46-5.27-8.91-1.24-3.45-1.86-7.26-1.86-11.4s.64-7.74,1.9-11.19c1.27-3.45,3.08-6.44,5.42-8.97,2.34-2.52,5.13-4.51,8.38-5.96,3.24-1.45,6.84-2.18,10.79-2.18,4.42,0,8.26,.88,11.54,2.64,3.27,1.76,5.97,4.13,8.08,7.1,2.11,2.97,3.63,6.36,4.57,10.16,.94,3.8,1.27,7.77,1,11.92h-37.43c.2,4.77,1.37,8.23,3.51,10.37Zm16.1-28.2c-1.71-1.93-4.3-2.9-7.78-2.9-2.27,0-4.16,.4-5.67,1.19-1.51,.8-2.71,1.78-3.61,2.95-.9,1.18-1.54,2.42-1.91,3.73-.37,1.31-.59,2.49-.65,3.52h23.18c-.67-3.73-1.85-6.57-3.56-8.5Zm-36.54-2.69v-9.85h-10.44v-16.07h-14.25v16.07h-8.63v9.85h8.63v31.62c0,2.7,.43,4.87,1.3,6.53,.87,1.66,2.06,2.94,3.56,3.83,1.51,.9,3.24,1.5,5.22,1.81,1.97,.31,4.07,.47,6.27,.47,1.41,0,2.84-.03,4.31-.1,1.47-.07,2.81-.21,4.01-.41v-11.4c-.67,.14-1.37,.24-2.11,.31-.73,.07-1.5,.11-2.31,.11-2.41,0-4.01-.41-4.82-1.24-.8-.83-1.2-2.49-1.2-4.98v-26.54h10.44Zm-150.16,30.89c2.14,2.14,5.22,3.21,9.23,3.21,2.87,0,5.35-.74,7.42-2.23,2.07-1.48,3.34-3.06,3.81-4.72h12.54c-2.01,6.43-5.08,11.02-9.23,13.79-4.15,2.76-9.17,4.15-15.05,4.15-4.08,0-7.76-.67-11.04-2.02-3.28-1.35-6.06-3.27-8.33-5.75-2.28-2.49-4.03-5.46-5.27-8.91-1.24-3.45-1.86-7.26-1.86-11.4s.64-7.74,1.91-11.19c1.27-3.45,3.08-6.44,5.42-8.97,2.34-2.52,5.13-4.51,8.38-5.96,3.24-1.45,6.84-2.18,10.79-2.18,4.42,0,8.26,.88,11.54,2.64,3.27,1.76,5.97,4.13,8.08,7.1,2.11,2.97,3.63,6.36,4.57,10.16,.94,3.8,1.27,7.77,1,11.92h-37.43c.2,4.77,1.37,8.23,3.51,10.37Zm16.11-28.2c-1.71-1.93-4.3-2.9-7.78-2.9-2.27,0-4.16,.4-5.67,1.19-1.5,.8-2.71,1.78-3.61,2.95-.9,1.18-1.54,2.42-1.91,3.73-.37,1.31-.59,2.49-.65,3.52h23.18c-.67-3.73-1.86-6.57-3.56-8.5Zm-53.31-2.59v-9.95h-13.55v53.59h14.25v-24.15c0-2.42,.23-4.67,.7-6.74,.46-2.07,1.25-3.89,2.36-5.44,1.1-1.56,2.56-2.78,4.36-3.68,1.81-.9,4.01-1.35,6.62-1.35,.87,0,1.77,.05,2.71,.16,.94,.1,1.74,.22,2.41,.36v-13.68c-1.14-.35-2.18-.52-3.11-.52-1.81,0-3.55,.28-5.22,.83-1.67,.56-3.25,1.33-4.72,2.33-1.47,1-2.78,2.21-3.91,3.63-1.14,1.42-2.04,2.95-2.71,4.61h-.2Zm-48.96,1.29c1.54-1.07,3.44-1.61,5.72-1.61,6.09,0,9.6,3.08,10.53,9.23h13.95c-.2-3.45-1-6.44-2.41-8.97-1.4-2.52-3.23-4.63-5.47-6.32-2.24-1.69-4.78-2.95-7.63-3.78-2.84-.83-5.8-1.24-8.88-1.24-4.21,0-7.96,.72-11.24,2.18-3.28,1.45-6.05,3.47-8.33,6.06-2.27,2.59-4,5.67-5.17,9.23-1.17,3.56-1.76,7.41-1.76,11.56s.64,7.69,1.91,11.04c1.27,3.35,3.04,6.24,5.32,8.66,2.27,2.42,5.03,4.3,8.28,5.65,3.25,1.35,6.81,2.02,10.69,2.02,6.89,0,12.54-1.87,16.96-5.6,4.41-3.73,7.09-9.16,8.03-16.27h-13.75c-.47,3.32-1.62,5.96-3.46,7.93-1.84,1.97-4.46,2.95-7.87,2.95-2.21,0-4.08-.52-5.62-1.56-1.54-1.04-2.76-2.37-3.66-3.99-.9-1.62-1.56-3.44-1.96-5.44-.4-2-.6-3.97-.6-5.91s.2-4.03,.6-6.06c.4-2.04,1.09-3.9,2.06-5.6,.97-1.69,2.22-3.08,3.76-4.15Zm155.28,41.78c2.71-1.28,4.9-3.37,6.57-6.27h.2v6.84h13.55V37.32h-14.25v26.95h-.2c-1.61-2.63-3.8-4.61-6.57-5.96-2.78-1.35-5.7-2.02-8.78-2.02-3.81,0-7.16,.78-10.03,2.33-2.88,1.55-5.27,3.61-7.17,6.17-1.91,2.56-3.35,5.51-4.31,8.86-.97,3.35-1.45,6.82-1.45,10.42s.48,7.32,1.45,10.78c.97,3.46,2.41,6.52,4.31,9.18,1.91,2.66,4.33,4.77,7.28,6.32,2.94,1.55,6.35,2.33,10.23,2.33,3.41,0,6.47-.64,9.18-1.92Zm3.91-38.15c.97,1.56,1.65,3.35,2.06,5.39,.4,2.04,.6,4.17,.6,6.38s-.2,4.36-.6,6.43c-.4,2.07-1.07,3.92-2.01,5.54-.94,1.63-2.19,2.92-3.76,3.89-1.57,.97-3.53,1.45-5.87,1.45-2.21,0-4.1-.5-5.67-1.5-1.57-1-2.88-2.32-3.91-3.94-1.04-1.62-1.79-3.47-2.26-5.55-.47-2.07-.7-4.15-.7-6.22,0-2.21,.22-4.34,.65-6.38,.44-2.04,1.14-3.85,2.11-5.44,.97-1.59,2.26-2.87,3.86-3.84,1.6-.97,3.58-1.45,5.92-1.45s4.28,.49,5.82,1.45c1.54,.97,2.79,2.23,3.76,3.78Zm25.16-23.17v-12.13h14.25v12.13h-14.25Zm0,61.89V57.74h14.25v53.59h-14.25Z"/>    <rect fill="#11465b" x="365.24" y="125.89" width="3.89" height="62.87"/>    <g>      <path fill="#11465b" d="M412.4,139.22c-2.39-.99-5.2-1.49-8.43-1.49h-16.32c-.43,0-.78,.14-1.05,.41s-.41,.62-.41,1.05v37.89c0,.39,.13,.73,.41,1.02,.27,.29,.62,.44,1.05,.44h7.87c.43,0,.79-.15,1.08-.44,.29-.29,.44-.63,.44-1.02v-12.77h6.94c3.22,0,6.03-.47,8.43-1.4,2.39-.93,4.25-2.37,5.6-4.31,1.34-1.94,2.01-4.41,2.01-7.41s-.67-5.54-2.01-7.52c-1.34-1.98-3.21-3.47-5.6-4.46Zm-4.72,15.77c-.99,.86-2.32,1.28-3.99,1.28h-6.82v-10.44h6.82c1.94,0,3.34,.51,4.2,1.52,.85,1.01,1.28,2.25,1.28,3.73,0,1.75-.5,3.05-1.49,3.91Z"/>      <path fill="#11465b" d="M447.69,150.97c-1.13-1.05-2.59-1.87-4.37-2.45-1.79-.58-3.93-.87-6.41-.87s-4.53,.29-6.24,.87c-1.71,.58-3.11,1.32-4.2,2.21-1.09,.89-1.89,1.8-2.42,2.71-.53,.91-.79,1.72-.79,2.42-.04,.35,.06,.65,.29,.9,.23,.25,.56,.38,.99,.38h6.53c.62,0,1.11-.25,1.46-.76,.39-.74,.93-1.32,1.6-1.75,.68-.43,1.56-.64,2.65-.64,1.55,0,2.62,.37,3.2,1.11,.58,.74,.88,1.81,.88,3.21v.81l-7.29,1.11c-3.73,.58-6.73,1.68-8.98,3.29-2.25,1.61-3.38,3.8-3.38,6.56,0,1.71,.48,3.25,1.46,4.61,.97,1.36,2.28,2.44,3.93,3.24,1.65,.8,3.53,1.19,5.62,1.19,1.52,0,2.85-.18,3.99-.55,1.15-.37,2.15-.86,3-1.49,.85-.62,1.54-1.3,2.04-2.04v2.04c0,.39,.14,.73,.41,1.02,.27,.29,.62,.44,1.05,.44h6.76c.39,0,.73-.15,1.02-.44s.44-.63,.44-1.02v-17.72c0-1.71-.26-3.27-.79-4.69-.52-1.42-1.35-2.65-2.47-3.7Zm-6.7,14.63c0,1.55-.26,2.85-.79,3.88-.52,1.03-1.24,1.79-2.16,2.27-.91,.49-1.93,.73-3.06,.73-.74,0-1.43-.13-2.07-.38-.64-.25-1.16-.61-1.55-1.08s-.58-1.03-.58-1.69c0-.85,.42-1.6,1.25-2.25,.84-.64,2.17-1.12,3.99-1.43l4.96-.88v.82Z"/>      <path fill="#11465b" d="M485.5,148.61c-.25-.25-.56-.38-.9-.38h-6.53c-.51,0-.89,.13-1.14,.38-.25,.25-.46,.53-.61,.84l-6.82,16.96-6.65-16.96c-.12-.31-.3-.59-.55-.84-.25-.25-.64-.38-1.14-.38h-6.65c-.35,0-.64,.13-.88,.38-.23,.25-.39,.55-.47,.9,0,.19,.06,.43,.18,.7l11.19,26.47-4.54,10.96c-.08,.15-.13,.3-.15,.44-.02,.14-.03,.24-.03,.32,0,.35,.11,.64,.35,.88,.23,.23,.53,.35,.88,.35h6.41c.51,0,.89-.13,1.17-.38,.27-.25,.47-.53,.58-.85l16.5-38.18c.12-.31,.18-.56,.18-.76,0-.31-.13-.59-.38-.84Z"/>    </g>  </g></svg>
