<svg xmlns="http://www.w3.org/2000/svg" role="img" viewBox="0 0 38 24" width="38" height="24" aria-labelledby="pi-easycreditratenkauf"><title id="pi-easycreditratenkauf">easyCredit Ratenkauf</title><path fill="#000" d="M35 0H3C1.3 0 0 1.3 0 3v18c0 1.7 1.4 3 3 3h32c1.7 0 3-1.3 3-3V3c0-1.7-1.4-3-3-3" opacity=".07"/><path fill="#fff" d="M35 1c1.1 0 2 .9 2 2v18c0 1.1-.9 2-2 2H3c-1.1 0-2-.9-2-2V3c0-1.1.9-2 2-2z"/><path fill="#0066b3" d="M7.112 8.895a2.9 2.9 0 0 1-1.167.258c-.787 0-.987-.315-1.002-.715h2.644q.077-.345.093-.698c0-1.13-.737-1.625-1.717-1.625-1.661-.001-2.234 1.331-2.234 2.197 0 .936.672 1.703 1.918 1.703a4.8 4.8 0 0 0 1.303-.208l.163-.912Zm-2.09-1.186a.95.95 0 0 1 .953-.738c.472 0 .63.337.63.738zm10 1.231c.33.143.686.216 1.045.215.207 0 .723-.02.723-.323 0-.53-1.54-.258-1.54-1.489 0-.873 1.017-1.224 1.882-1.224a4.3 4.3 0 0 1 1.239.219l-.273.845a2.6 2.6 0 0 0-1.03-.208c-.287 0-.601.065-.601.323 0 .416 1.61.387 1.61 1.324s-.78 1.379-1.742 1.392a5.9 5.9 0 0 1-1.567-.194zm3.91 3.216-.143.766h.015c.207-.436.623-.852 1.153-.852.184-.003.367.028.539.094l-.294 1.138c-.165-.128-.35-.157-.595-.157-.539 0-.862.472-.959 1.024l-.365 1.717H16.99l.795-3.729zm4.785 2.694a2.9 2.9 0 0 1-1.166.258c-.788 0-.988-.315-1.002-.715h2.641q.076-.347.093-.703c0-1.13-.737-1.625-1.717-1.625-1.66 0-2.234 1.332-2.234 2.198 0 .937.673 1.703 1.919 1.703a4.7 4.7 0 0 0 1.304-.202l.163-.915Zm-2.089-1.185a.95.95 0 0 1 .956-.734c.473 0 .63.336.63.737zm5.595 2.221h1.185c.015-.15.037-.336.079-.558l.993-4.81h-1.262l-.451 2.24h-.011c-.194-.401-.646-.687-1.293-.687-1.274 0-1.889 1.139-1.889 2.363 0 .837.586 1.539 1.388 1.539.717 0 1.024-.265 1.353-.68h.01l-.102.594Zm-.708-.902c-.408 0-.616-.307-.616-.766 0-.58.365-1.159.97-1.159.431 0 .615.387.615.754.004.498-.361 1.171-.969 1.171m3.532-4.381h1.303l-.2.945h-1.303zm-.329 1.553h1.303l-.773 3.729h-1.306zm1.647 0h.737l.18-.801 1.36-.365-.258 1.166h.887l-.157.903h-.937l-.222 1.037a3.5 3.5 0 0 0-.108.646.39.39 0 0 0 .422.416q.217-.018.416-.108l-.143.852a5 5 0 0 1-.802.071c-.658 0-1.185-.323-1.185-1.102q.015-.39.114-.766l.222-1.045h-.686l.161-.904Zm-8.489-5.957-2.446 4.223-.142.227c-.379.658-.803 1.096-1.626 1.096a3.2 3.2 0 0 1-.774-.09l.202-.957q.207.059.422.059c.367 0 .564-.264.754-.615l.138-.227-.823-3.715h1.31l.336 2.354h.014L21.507 6.2h1.368Zm-6.285 9.631a5.2 5.2 0 0 1-1.17.147c-1.611 0-2.534-.952-2.534-2.326 0-1.664 1.277-3.232 3.152-3.232.831 0 1.345.099 1.644.197l-.202.96a3.9 3.9 0 0 0-1.235-.169c-1.338 0-1.985 1.332-1.985 2.277 0 .888.565 1.303 1.366 1.303.41.006.817-.077 1.192-.244l-.228 1.088Zm-5.506-6.765c-.451 0-.721-.336-.721-.788 0-.576.444-1.23 1.077-1.23.433 0 .711.318.711.769 0 .604-.45 1.249-1.068 1.249Zm3.551-.195a3.37 3.37 0 0 1-3.467 2.584 3.365 3.365 0 0 1-2.633-5.199 3.36 3.36 0 0 1 4.134-1.266 3.37 3.37 0 0 1 1.686 1.565c.118.254.178.532.176.812 0 1.185-1.121 1.7-1.601 1.7a.14.14 0 0 1-.058-.005.13.13 0 0 1-.049-.03.14.14 0 0 1-.031-.049q-.009-.027-.006-.058.016-.165.067-.323l.528-2.334h-.807l-.119.454a1.3 1.3 0 0 0-1.114-.615c-1.095 0-1.978 1.047-1.978 2.314.003.934.695 1.581 1.492 1.581.393 0 .729-.231.97-.499h.019a.485.485 0 0 0 .519.498c.429 0 1.574-.316 2.272-1.131Zm3.17 8.889a.4.4 0 0 1-.178.156.65.65 0 0 1-.275.055h-.251l.152-.784h.193a.48.48 0 0 1 .312.087.297.297 0 0 1 .108.25.44.44 0 0 1-.061.236m.501.118a.76.76 0 0 0 .094-.385.7.7 0 0 0-.108-.385.65.65 0 0 0-.308-.241 1.3 1.3 0 0 0-.493-.083h-.683l-.473 2.44h.523l.167-.862h.367l.349.862h.584l-.46-.97a1 1 0 0 0 .195-.108.8.8 0 0 0 .247-.269Zm1.468.706a.47.47 0 0 1-.157.181.38.38 0 0 1-.398.025.3.3 0 0 1-.117-.125.55.55 0 0 1 .017-.444.5.5 0 0 1 .159-.181.38.38 0 0 1 .393-.024q.076.046.115.125a.535.535 0 0 1-.012.443m.154-.735a.5.5 0 0 0-.07-.13.5.5 0 0 0-.183-.141.6.6 0 0 0-.251-.049.7.7 0 0 0-.331.079.9.9 0 0 0-.276.215q-.121.145-.186.323a1.1 1.1 0 0 0-.067.387.9.9 0 0 0 .079.39.6.6 0 0 0 .221.262.6.6 0 0 0 .333.093.63.63 0 0 0 .427-.167.5.5 0 0 0 .087-.108l-.029.226h.459l.323-1.644H20l-.07.264Zm1.646-.268h.36l-.081.411h-.36l-.089.469q-.016.087-.029.147a.5.5 0 0 0-.013.108.183.183 0 0 0 .045.133.17.17 0 0 0 .128.046q.08 0 .154-.029l-.064.379a1.6 1.6 0 0 1-.306.034.54.54 0 0 1-.359-.108.39.39 0 0 1-.129-.308v-.045l.006-.054.014-.079.023-.114.108-.579h-.315l.084-.41h.312l.061-.323.532-.141-.084.462Zm1.601.616v.036h-.688a.55.55 0 0 1 .15-.252.36.36 0 0 1 .262-.098.256.256 0 0 1 .279.279l-.002.036Zm-.255-.668a.9.9 0 0 0-.374.074.9.9 0 0 0-.296.206 1 1 0 0 0-.196.311 1.1 1.1 0 0 0-.071.391.8.8 0 0 0 .061.323.65.65 0 0 0 .173.24q.122.104.275.151a1.2 1.2 0 0 0 .488.045l.138-.019a2 2 0 0 0 .271-.066l.067-.408a1.168 1.168 0 0 1-.488.116.66.66 0 0 1-.381-.085.36.36 0 0 1-.13-.281h1.134q.024-.08.034-.164.01-.081.011-.164a.65.65 0 0 0-.189-.489.73.73 0 0 0-.527-.182Zm2.379.031q.093.037.163.106a.54.54 0 0 1 .131.384c0 .038.003.073 0 .108l-.014.108-.186.96h-.498l.177-.909c.009-.023.009-.044.009-.062v-.053a.226.226 0 0 0-.055-.171.2.2 0 0 0-.077-.046.2.2 0 0 0-.09-.011.3.3 0 0 0-.157.044.36.36 0 0 0-.12.128.6.6 0 0 0-.072.204l-.17.877h-.498l.318-1.644h.478l-.037.233a.55.55 0 0 1 .274-.238.6.6 0 0 1 .232-.046.5.5 0 0 1 .192.031Zm1.627.795.638.871h-.595l-.507-.746-.144.746h-.498l.504-2.601h.498l-.305 1.572.652-.615h.613l-.856.774Zm2.037.229a.5.5 0 0 1-.157.181.4.4 0 0 1-.222.068.36.36 0 0 1-.177-.043.3.3 0 0 1-.113-.125.45.45 0 0 1-.04-.192c0-.087.019-.174.058-.252a.5.5 0 0 1 .158-.181.4.4 0 0 1 .221-.068.34.34 0 0 1 .176.044q.077.045.116.125.042.091.041.191a.55.55 0 0 1-.061.252m.154-.735a.461.461 0 0 0-.254-.271.6.6 0 0 0-.25-.049.7.7 0 0 0-.331.079.9.9 0 0 0-.276.215 1.088 1.088 0 0 0-.254.71.9.9 0 0 0 .079.39.59.59 0 0 0 .554.355.6.6 0 0 0 .232-.043.6.6 0 0 0 .196-.124.5.5 0 0 0 .087-.108l-.03.226h.46l.323-1.644h-.47zm1.999-.268h.507l-.318 1.641h-.469l.043-.277a.6.6 0 0 1-.203.229.56.56 0 0 1-.323.098.46.46 0 0 1-.361-.138.54.54 0 0 1-.13-.385q0-.109.023-.215l.186-.954h.508l-.177.902a1 1 0 0 0-.013.116c0 .152.069.227.215.227a.3.3 0 0 0 .118-.024.3.3 0 0 0 .097-.072.56.56 0 0 0 .123-.277l.172-.873Zm1.604-.144-.027.144h.409l-.078.41h-.411l-.235 1.234h-.506l.237-1.234h-.273l.077-.41h.275l.04-.209q.15-.764.796-.764a1 1 0 0 1 .215.023.6.6 0 0 1 .161.06l-.07.418a.49.49 0 0 0-.372-.04.3.3 0 0 0-.111.072.6.6 0 0 0-.127.295Z"/></svg>