<svg role="img" aria-labelledby="pi-elo" width="38" height="24" xmlns="http://www.w3.org/2000/svg" viewBox="0 0 38 24"><title id="pi-elo">Elo</title><g fill-rule="nonzero" fill="none"><path d="M35 0H3C1.3 0 0 1.3 0 3v18c0 1.7 1.4 3 3 3h32c1.7 0 3-1.3 3-3V3c0-1.7-1.4-3-3-3z" fill="#000" opacity=".07"/><path d="M35 1c1.1 0 2 .9 2 2v18c0 1.1-.9 2-2 2H3c-1.1 0-2-.9-2-2V3c0-1.1.9-2 2-2h32" fill="#FFF"/><g><g><path fill="#003933" d="M 2.6796 11.08653 h 2.40758 c 0.43036 -2.27695 2.42382 -4.10657 4.96538 -4.10657 s 4.91666 2.04321 4.91666 5.12616 q 0.01218 0.38688 -0.06496 0.82615 h -7.77490 c 0.36540 1.40244 1.52656 2.22456 2.92320 2.22456 s 2.09090 -0.46345 2.80546 -1.26945 l 1.42912 1.30169 c -0.94598 1.07198 -2.35886 1.81350 -4.23458 1.81350 s -4.53502 -1.79738 -4.96538 -4.07433 h -2.40758 v -1.84574 Z M 12.9108 11.08653 c -0.10150 -0.57629 -0.36540 -1.10422 -0.74704 -1.48304 c -0.49938 -0.49569 -1.23018 -0.81003 -2.11120 -0.81003 s -1.59558 0.29822 -2.12754 0.82615 c -0.36540 0.36270 -0.66584 0.85839 -0.81606 1.46692 h 5.80184 Z M 16.41864 7.05047 h 2.09090 v 7.91492 h 3.78398 v 1.97873 h -3.75152 c -1.38040 0 -2.12736 -0.74152 -2.12736 -2.11176 v -7.78189 h 0 Z M 22.6954 11.98828 c 0 -2.68801 2.20864 -5.01372 5.13184 -5.01372 s 4.61622 1.81350 5.05066 4.10657 h 2.40758 v 1.84574 h -2.40758 c -0.44660 2.27695 -2.47466 4.07433 -5.05066 4.07433 c -2.93944 0 -5.13184 -2.30919 -5.13184 -5.01292 Z M 27.82724 15.05551 c 1.74580 0 3.04094 -1.31781 3.04094 -3.05111 s -1.32756 -3.08335 -3.04094 -3.08335 s -3.04094 1.31781 -3.04094 3.06723 c 0 1.69683 1.32756 3.06723 3.04094 3.06723 Z"/></g></g></g></svg>
