<svg width="38" height="24" role="img" viewBox="0 0 38 24" fill="none" aria-labelledby="pi-etihadguestpay" xmlns="http://www.w3.org/2000/svg"><title id="pi-etihadguestpay">Etihad GuestPay</title><path fill="#000" opacity=".07" d="M35 0H3C1.3 0 0 1.3 0 3v18c0 1.7 1.4 3 3 3h32c1.7 0 3-1.3 3-3V3c0-1.7-1.4-3-3-3z"/><path fill="#fff" d="M35 1c1.1 0 2 .9 2 2v18c0 1.1-.9 2-2 2H3c-1.1 0-2-.9-2-2V3c0-1.1.9-2 2-2h32"/><path fill="#b08747" d="M9.327 16.484c-.379 0-.68-.116-.905-.352-.226-.23-.335-.57-.335-1.015 0-.433.12-.768.362-1.009s.549-.357.91-.357c.324 0 .599.072.818.209v.554a1.01 1.01 0 00-.762-.33c-.264 0-.461.078-.604.237-.143.153-.214.384-.214.675 0 .301.066.537.198.718a.646.646 0 00.543.27c.142 0 .252-.017.329-.045v-.735h.505v.971c-.214.137-.5.209-.845.209zM12.279 16.482c-.351 0-.62-.1-.801-.286-.181-.192-.275-.499-.275-.921V13.81h.505v1.47c0 .269.05.461.148.587.1.126.247.187.456.187.203 0 .356-.06.455-.187.099-.126.148-.318.148-.587v-1.47h.494v1.465c0 .406-.104.707-.307.91a1.181 1.181 0 01-.823.297zM14.49 16.416v-2.612h1.706l-.137.434h-1.064v.625h.773v.4h-.773v.72h1.064l.137.433H14.49zM17.667 16.482c-.275 0-.5-.055-.664-.176v-.532a.981.981 0 00.68.269c.313 0 .472-.121.472-.368a.274.274 0 00-.094-.22c-.06-.054-.17-.098-.329-.131l-.098-.022c-.44-.11-.659-.357-.659-.752 0-.258.082-.455.242-.598.159-.143.39-.214.69-.214.286 0 .506.055.67.17v.532a1.103 1.103 0 00-.29-.18.943.943 0 00-.396-.083c-.148 0-.257.028-.323.077-.066.05-.099.132-.099.236 0 .099.027.17.082.22.055.049.165.093.318.131l.1.022c.235.055.405.143.515.258.11.115.165.274.165.483 0 .268-.083.477-.247.63-.165.165-.406.247-.736.247zM20.18 16.416v-2.178h-.747v-.434h2.052l-.131.434h-.67v2.178h-.504zM22.736 16.417v-2.612h.814c.367 0 .629.074.788.223.159.148.238.362.238.641 0 .292-.08.529-.238.71-.159.18-.408.27-.75.27h-.345v.768h-.507zm.507-2.209v1.053h.307c.34 0 .511-.178.511-.534 0-.172-.038-.301-.115-.388-.077-.087-.21-.13-.4-.13h-.303zM25.072 16.417l1.037-2.612h.334l1.026 2.612h-.53l-.208-.542h-.68l-.145-.372h.687l-.273-.719-.072-.226-.073.227-.615 1.632h-.488zM28.65 16.417v-1.072l-.853-1.54h.561l.568 1.098.584-1.098h.503l-.856 1.54v1.072h-.507zM21.093 11.011L22.12 9.92V7.758c0-.017.022-.033.022-.033l.15-.071v-.127h-1.377v.121l.143.088c.04.022.045.044.045.055v1.245h-2.765l-.625.78v-2.02l.005-.038s.011-.011.034-.022l.132-.082.011-.006v-.126H16.52v.12l.139.088c.022.011.028.022.033.022v3.715l-.011.05c-.006.01-.017.016-.028.027l-.138.093v.12h1.382v-.12l-.143-.093c-.022-.011-.034-.022-.04-.022V9.815l.15.044.194-.11a.29.29 0 01.088-.038.185.185 0 01.078-.01h2.875v1.31h-.005zM35.741 9.173c-.16-.505-.53-.922-1.1-1.234-.514-.286-1.239-.423-2.218-.423h-3.749v.12s.155.105.16.105v.439h3.578c.725 0 1.256.093 1.576.285.509.297.758.68.763 1.174 0 .247-.066.478-.199.675a1.567 1.567 0 01-.597.505c-.348.176-.874.269-1.57.269H30.52v-2.6h-1.023v2.984l-.005.044-.028.027-.127.077-.011.006v.12h3.058c.586 0 1.05-.033 1.377-.099.442-.093.84-.252 1.172-.477.343-.225.586-.488.724-.779.105-.214.155-.45.155-.702a1.615 1.615 0 00-.072-.516zM22.287 11.588a.226.226 0 01-.055-.017l2.571-2.65-.591-.625-3.33 3.445h1.532v-.143h-.055c-.028-.005-.05-.005-.072-.01z"/><path fill="#b08747" d="M24.482 8.13l.659.692.68.68h-1.145l-.63.653.138.094.15-.077c.016-.006.027-.011.044-.011h2.068l1.355 1.432s-.022.027-.139.027h-.05v.148h1.532l-4.053-4.24-.608.603zM14.656 7.642l.138.088c.033.022.05.039.05.06v3.677l-.011.049a.17.17 0 01-.039.027l-.138.088v.12h1.366v-.12l-.127-.088c-.017-.01-.028-.021-.034-.021V7.79l.006-.039.033-.027.127-.083v-.12h-1.366v.12h-.005zM8.927 10.94l-.177.105c-.05.027-.077.038-.077.038l-3.058.005c-.697 0-1.228-.087-1.582-.268-.525-.27-.785-.659-.785-1.186 0-.235.066-.46.204-.663.266-.385.642-.648 1.19-.747.143-.027.281-.033.375-.033h1.576c.094-.005.078.017.083.028l-.016.11h.132l.675-.807h-1.88c-.437 0-.774.017-1.012.044-.127.017-.243.038-.36.06a3.33 3.33 0 00-.89.346c-.459.258-.79.587-.978.976a1.73 1.73 0 00-.16.741c0 .68.37 1.23 1.1 1.619.331.18.702.302 1.1.367.299.05.713.072 1.228.072h2.842l.68-.818h-.055l-.155.011z"/><path fill="#b08747" d="M7.567 9.92l.663-.823H3.773l-.448.664h4.02c.078.005.1.027.106.038l-.017.115h.133v.006z"/><path fill="#b08747" d="M7.29 8.295l.127.044.017.006.193-.099a.313.313 0 01.16-.055h2.462v3.276l-.012.043c-.01.012-.022.022-.027.022l-.139.094v.12h1.377v-.12l-.143-.088-.034-.033V8.191h2.185c.083.011.094.027.094.033v.115h.121l.68-.817H7.915l-.625.773z"/></svg>