<svg width="38" height="24" role="img" viewBox="0 0 38 24" fill="none" aria-labelledby="pi-eurobonuscheckout" xmlns="http://www.w3.org/2000/svg"><title id="pi-eurobonuscheckout">EuroBonus Checkout</title><path fill="#000" opacity=".07" d="M35 0H3C1.3 0 0 1.3 0 3v18c0 1.7 1.4 3 3 3h32c1.7 0 3-1.3 3-3V3c0-1.7-1.4-3-3-3z"/><path fill="#fff" d="M35 1c1.1 0 2 .9 2 2v18c0 1.1-.9 2-2 2H3c-1.1 0-2-.9-2-2V3c0-1.1.9-2 2-2h32"/><rect x="1" y="1" width="36" height="22" rx="1.8" ry="1.8" fill="#013ef1"/><path fill="#fff" d="M23.147 7.412h-2.695c-.136 0-.193.077-.193.077l-7.43 9.025c-.042.053-.033.107.041.107h1.101c.11 0 .12-.03.14-.057l1.582-1.986s.024-.036.057-.036l2.654-.002s.04-.001.033.038c-.009.039-.389 1.947-.389 1.947-.004.026.004.096.095.096l3.207-.001c.045 0 .062-.015.072-.06l1.806-9.054c.003 0 .034-.094-.082-.094zm-3.815 2.666l-.695 3.496s-.003.014-.01.02c-.006.007-.024.007-.024.007l-2.087.002s-.013.001-.023-.01c-.008-.013.009-.03.009-.03l2.774-3.488s.021-.028.043-.028.013.03.013.03zM9.149 16.792c-1.77 0-2.884-.658-3.26-.961-.2-.162-.259-.253-.233-.361 0 0 .25-.821.266-.88.033-.115.103-.144.155-.091.315.314 1.252 1.225 2.612 1.223 1.464 0 1.37-1.19 1.37-1.362 0-.45-.638-2.782-.798-3.405-.497-1.947.717-3.744 3.575-3.742 1.536 0 2.265.405 2.558.554.191.097.147.24.147.24s-.145.736-.158.79c-.021.094-.083.067-.166.014-.44-.271-.944-.57-1.751-.57-.943 0-1.424.698-1.173 1.666.087.334.684 2.698.791 3.156.404 1.712-.75 3.728-3.936 3.73zm23.196-8.789s-.145.736-.158.79c-.021.095-.083.068-.166.015-.44-.271-.944-.57-1.75-.57-.942 0-1.423.698-1.172 1.666.086.334.683 2.697.79 3.156.405 1.71-.75 3.727-3.935 3.727-1.769 0-2.796-.607-3.173-.91-.2-.161-.259-.252-.233-.361 0 0 .17-.87.18-.931.014-.1.119-.126.189-.058.32.312 1.216 1.19 2.576 1.19 1.464 0 1.37-1.19 1.37-1.362 0-.449-.638-2.782-.798-3.405-.497-1.947.719-3.744 3.575-3.742 1.536.001 2.265.405 2.558.554.191.099.147.241.147.241z"/></svg>