<svg xmlns="http://www.w3.org/2000/svg" role="img" viewBox="0 0 38 24" width="38" height="24" aria-labelledby="pi-gale"><title id="pi-gale">Gale</title><path fill="#000" opacity=".07" d="M35 0H3C1.3 0 0 1.3 0 3v18c0 1.7 1.4 3 3 3h32c1.7 0 3-1.3 3-3V3c0-1.7-1.4-3-3-3z"/><path fill="#2ADB90" d="M35 1c1.1 0 2 .9 2 2v18c0 1.1-.9 2-2 2H3c-1.1 0-2-.9-2-2V3c0-1.1.9-2 2-2h32"/><g fill="#0F1112"><path d="M28.203 8v8.465c0 .003 0 .005-.002.006a.008.008 0 01-.007.003h-1.05c-.002 0-.005 0-.006-.002a.009.009 0 01-.002-.006V8h1.067zM18.104 10.805a2.104 2.104 0 00-.153-.52 1.86 1.86 0 00-1.214-1.011 2.488 2.488 0 00-.582-.083 2.487 2.487 0 00-1.19.247 2.477 2.477 0 00-1.052 1.01c-.26.46-.398.973-.442 1.503-.1 1.192.188 2.49 1.173 3.24.175.133.36.236.553.309.436.164.93.186 1.383.094a2.076 2.076 0 001.285-.822 1.66 1.66 0 00.293-.726c.013-.086.018-.21.016-.375a18.328 18.328 0 010-.375.01.01 0 00-.003-.007.01.01 0 00-.007-.003h-2.266l-.004-.001v-.935l.004-.002h2.431c.066 0 .147.01.241.03a.788.788 0 01.629.595c.028.11.042.214.042.31v3.186l-.001.004-.004.002h-1.019l-.002-.002-.001-.002v-1.17a.023.023 0 00-.018-.022.02.02 0 00-.014.002.022.022 0 00-.01.011c-.241.587-.772.999-1.36 1.176a3.469 3.469 0 01-2.217-.118c-1.113-.461-1.848-1.52-2.112-2.696a5.773 5.773 0 01.03-2.643c.122-.472.32-.906.591-1.304a3.474 3.474 0 012.444-1.493c.746-.091 1.52-.002 2.189.37.563.314.98.767 1.252 1.36.12.265.206.57.251.864v.002l-.001.002-.002.002h-1.122a.01.01 0 01-.007-.002.011.011 0 01-.004-.007zM2 12.754v-.027c.003-.009.003-.014 0-.015v-.207a.044.044 0 000-.027v-.015l.014-.196a4.4 4.4 0 011.484-2.99 4.183 4.183 0 014.107-.836 4.336 4.336 0 012.637 2.533c.234.592.339 1.253.3 1.895a4.42 4.42 0 01-1.551 3.125 4.194 4.194 0 01-3.79.86 4.3 4.3 0 01-2.632-2.058A4.47 4.47 0 012 12.754zm.778-.146c0 1.843 1.364 3.395 3.16 3.571a3.395 3.395 0 001.527-.196l.002-.002.002-.002v-.004l-.002-.003a6.598 6.598 0 00-.517-.534c-.47-.439-.928-.87-1.302-1.362-.32-.421-.578-.927-.578-1.467s.259-1.046.578-1.467c.374-.492.833-.924 1.302-1.362.16-.149.356-.342.519-.534l.001-.003v-.004l-.002-.002-.002-.002a3.395 3.395 0 00-1.526-.197c-1.797.176-3.162 1.727-3.162 3.57zm3.07.001c0 .208.07.414.17.597.108.201.245.398.41.59.27.315.58.618.847.865.307.285.552.53.736.734h.004v-.002a3.185 3.185 0 00-.304-.693l-.474-.845a4.786 4.786 0 01-.286-.608 1.796 1.796 0 01-.132-.638c0-.217.054-.435.132-.637.079-.205.174-.408.286-.609l.474-.845c.132-.236.244-.472.304-.692v-.002l-.001-.001h-.003c-.184.205-.43.45-.737.734-.266.247-.575.55-.846.865a3.39 3.39 0 00-.41.59c-.1.184-.17.39-.17.597zm1.747 0c0 .13.052.284.1.401.075.18.17.37.284.57.173.304.304.537.394.698.139.25.255.502.35.756v.002h.003v-.002c.012-.115.015-.23.007-.346-.04-.573-.227-1.11-.326-1.698a2.28 2.28 0 01-.033-.382c0-.121.01-.249.033-.381.1-.588.287-1.125.326-1.698a1.988 1.988 0 00-.006-.346v-.001h-.004c-.094.254-.21.506-.35.757-.09.16-.221.393-.394.697-.114.2-.208.39-.283.57-.049.117-.1.271-.1.402zm1.554 0c0 .05.005.107.013.167.018.132.042.26.071.386.103.443.154.632.21.945v.002h.006a.256.256 0 00.023-.044 3.67 3.67 0 00-.023-2.957l-.002-.002h-.002l-.001.001-.001.002c-.056.313-.107.502-.21.945a4.23 4.23 0 00-.071.386c-.008.06-.013.117-.013.168zM20.61 12.187l-.002-.001-.002-.002-.001-.002v-.003c.103-.626.407-1.112.913-1.459.547-.374 1.226-.464 1.868-.402.327.032.66.122.948.287.465.267.775.676.927 1.228.033.117.06.273.08.466.01.094.014.251.013.473v3.698l-.002.003-.003.002h-.994c-.003 0-.005-.001-.006-.003a.009.009 0 01-.003-.006v-1.021a.024.024 0 00-.005-.015.023.023 0 00-.029-.006.024.024 0 00-.01.011c-.295.684-.944 1.09-1.66 1.144-.532.04-1.12-.085-1.545-.454a1.682 1.682 0 01-.58-1.113 2.286 2.286 0 01.02-.655 1.54 1.54 0 01.55-.963c.321-.265.727-.388 1.143-.433.12-.013.3-.019.54-.018h1.557a.01.01 0 00.006-.003.01.01 0 00.003-.007v-.335c-.004-.35-.093-.693-.324-.953a1.126 1.126 0 00-.576-.354c-.401-.102-.89-.066-1.243.158-.254.162-.422.405-.502.729a.011.011 0 01-.01.009h-1.07zm3.726 1.589l-.002-.004-.003-.001h-1.572c-.237-.001-.44.01-.634.077-.254.086-.468.245-.56.492-.086.233-.094.537.02.773.157.327.495.498.839.546.476.065.931-.038 1.312-.35.316-.26.508-.595.577-1.005.03-.17.025-.351.023-.528zM30.733 13.639h-.003l-.001.001-.001.002v.002c.04.725.329 1.47.987 1.825.363.195.819.222 1.213.121a1.325 1.325 0 00.96-.96.01.01 0 01.007-.003h1.072l.002.001.003.002.001.003v.003a2.326 2.326 0 01-.718 1.31 2.426 2.426 0 01-1.436.632c-.886.085-1.725-.163-2.34-.847a2.852 2.852 0 01-.624-1.133 4.45 4.45 0 01-.118-1.767c.099-.784.474-1.548 1.104-2.022.39-.295.84-.461 1.347-.5.675-.05 1.319.11 1.85.543.482.394.787.987.897 1.61.037.21.057.424.058.64a34.665 34.665 0 01-.001.534l-.006.003h-4.253zm.054-.828h3.166l.001-.002v-.001c-.038-.537-.26-1.048-.71-1.341a1.518 1.518 0 00-.9-.227c-.337.011-.633.12-.887.326-.379.307-.59.752-.678 1.236v.003l.001.003.003.003h.004z"/></g></svg>