<svg width="38" height="24" viewBox="0 0 38 24" fill="none" role="img" aria-labelledby="pi-giftforgood" xmlns="http://www.w3.org/2000/svg"><title id="pi-giftforgood">Gift for good</title><g><path opacity=".07" d="M35 0H3C1.3 0 0 1.3 0 3v18c0 1.7 1.4 3 3 3h32c1.7 0 3-1.3 3-3V3c0-1.7-1.4-3-3-3z" fill="#000"/><path d="M35 1c1.1 0 2 .9 2 2v18c0 1.1-.9 2-2 2H3c-1.1 0-2-.9-2-2V3c0-1.1.9-2 2-2h32z" fill="#004844" fill-opacity="1"/></g><path d="M15.795 8.316h6.44c2.08 0 3.78-1.66 3.78-3.7a.39.39 0 00-.39-.39h-5.95c-1.6 0-3.15.93-3.92 2.2l-.02.02c0 .02-.02.03-.02.04-.07.11-.13.23-.18.35-.1.19-.18.37-.35.82-1.88.61-3.13 2.39-3.22 4.68-.11 2.68 1.2 5.1 3.51 6.47 1.13.68 2.38 1.01 3.62 1.01 1.24 0 2.5-.34 3.63-1.02.25-.15.47-.3.66-.46.03-.02.05-.05.07-.08.95-.19 1.75-.55 2.4-1.06a.4.4 0 00.15-.3v-3.8c0-.67-.54-1.21-1.21-1.21h-3c-.21 0-.39.17-.39.38s.16.39.37.4c.55.02.98.47.98 1.02v3.91h-.04c-1.14.13-2.96-.18-3.96-.69-1.72-.86-2.9-2.24-3.31-3.89-.29-1.16-.24-2.51.14-4.1.08-.24.15-.44.21-.61zm.45-1.12s.03-.06.05-.09c.04-.07.08-.16.13-.26.63-1.05 1.94-1.84 3.26-1.84h5.53c-.2 1.42-1.45 2.53-2.97 2.53h-6.13c.03-.12.08-.23.13-.34zm8.56 5.47c.24 0 .44.19.44.44v3.61c-.47.34-1.04.59-1.69.75v-3.77c0-.38-.12-.73-.32-1.02h1.57zm-6.39 4.95c.88.44 2.26.74 3.43.79-1.91.93-4.1.85-5.96-.26-2.06-1.22-3.23-3.38-3.13-5.77.06-1.4.66-2.99 2.11-3.74 0 .02-.02.05-.02.07-.42 1.75-.47 3.22-.15 4.51.47 1.87 1.79 3.43 3.72 4.4z" fill="#fff" stroke-width="1"/></svg>