<svg xmlns="http://www.w3.org/2000/svg" width="38" height="24" viewBox="0 0 38 24" role="img" aria-labelledby="pi-idealwero"><title id="pi-idealwero">iDEAL - WERO</title><path fill="#000" opacity=".07" d="M35 0H3C1.3 0 0 1.3 0 3v18a3 3 0 003 3h32c1.7 0 3-1.3 3-3V3a3 3 0 00-3-3z"/><path fill="#fff48d" d="M35 1a2 2 0 012 2v18a2 2 0 01-2 2H3a2 2 0 01-2-2V3c0-1.1.9-2 2-2z"/><path fill="#1d1c1c" d="M31.3 12.02c0-.96.82-1.83 2.23-1.83 1.42 0 2.24.87 2.24 1.83s-.82 1.83-2.24 1.83c-1.41 0-2.23-.87-2.23-1.83m3.23 0c0-.46-.37-.9-1-.9-.62 0-1 .44-1 .9s.37.89 1 .89 1-.43 1-.9zm-4.1.68c.29-.15.51-.37.64-.63.13-.27.14-.56.05-.84a1.32 1.32 0 00-.55-.69 1.74 1.74 0 00-.94-.26h-1.98v3.48h1.23v-.9h.23l.7.9h1.44zm-1.05-.63h-.5v-.99h.5c.34 0 .55.23.55.5a.4.4 0 01-.03.18.5.5 0 01-.12.16.6.6 0 01-.18.11.6.6 0 01-.22.04m-7.33-1.8l-.73 2.08-.72-2.07h-.98l-.72 2.07-.73-2.08h-1.3l1.49 3.48h1.06l.7-1.9.67 1.9h1.08l1.48-3.48zm3.15 2.63c-.2 0-.4-.05-.56-.14a.84.84 0 01-.36-.4h3.12c.02-.11.03-.23.03-.35 0-.96-.81-1.83-2.23-1.83v.94c.2 0 .4.05.56.15a.83.83 0 01.36.4H23a1.7 1.7 0 00-.04.34c0 .96.82 1.83 2.23 1.83v-.94zM25.2 13.84a2.8 2.8 0 00.92-.14c.44-.15.8-.42 1.04-.77.1-.15.17-.32.22-.5h-1.3a.86.86 0 01-.26.3 1 1 0 01-.22.1 1.1 1.1 0 01-.4.07 1.1 1.1 0 01-.38-.06 1 1 0 01-.32-.18l-.84.71c.42.32.97.49 1.54.47zm0-3.66c-1.2 0-1.97.63-2.17 1.4h1.29a.9.9 0 01.32-.3 1.15 1.15 0 01.93-.1 1 1 0 01.4.25l.84-.72a2.46 2.46 0 00-1.61-.53z"/><path fill="#fff" fill-rule="evenodd" d="M3.08 8.03c-.34.04-.6.23-.67.5-.06.2-.03 2.88-.03 3.21v3.22c0 .37-.01.67.25.88.28.22.57.18 1.02.18h3.74c1.7 0 2.85-.12 4.03-.83a3.5 3.5 0 001.63-2.9 3.97 3.97 0 00-.7-2.6c-.9-1.24-2.67-1.65-4.3-1.67-.27 0-4.75-.02-4.97 0z"/><path fill="#ca1c67" fill-rule="evenodd" d="M5.55 14.72H7.1c1 0 1.8.07 2.73-.27.18-.06.35-.15.49-.23 1.35-.79 1.43-2.75.62-3.77-.2-.26-.24-.25-.34-.35s-.3-.21-.43-.28a4.2 4.2 0 00-1.78-.43c-.68-.03-1.58 0-2.3 0-.26 0-.41.05-.5.2-.08.14-.04 1.05-.04 1.27v2.58c0 .42-.02.87 0 1.28m1.81-3.32h1v.21h-.7v.25h.64v.19c-.16 0-.53-.02-.64.01v.27h.72v.21H7.36zm-1.4 0c.24 0 .65-.03.86.05.2.09.32.27.32.52 0 .67-.69.57-1.19.57V11.4zm2.6 1.14c0-.1.44-.94.5-1.14h.3c.05.07.5 1.1.5 1.14h-.3a1 1 0 01-.1-.25h-.5a1 1 0 00-.06.12l-.03.07-.03.06zm1.48-1.14h.3v.93H11l-.01.21h-.94z"/><path fill="#010101" fill-rule="evenodd" d="M3.6 8.63c-.3.03-.52.2-.59.43-.05.17-.02 2.47-.02 2.75v2.76c0 .32-.02.58.21.75.25.2.5.16.9.16h3.28c1.49 0 2.5-.1 3.55-.7a2.98 2.98 0 001.42-2.5 3.34 3.34 0 00-.6-2.22c-.8-1.07-2.35-1.42-3.78-1.43-.25 0-4.17-.02-4.37 0m8.48 3.77a2.75 2.75 0 01-1.44 2.26c-1 .55-2.02.6-3.4.6H4.19c-.36 0-.67.05-.85-.16-.12-.14-.08-.6-.08-.8V9.96c0-.17-.02-.73.02-.85a.39.39 0 01.24-.23c.13-.05.34-.03.48-.03h2.05c.68 0 1.38-.02 2.06 0 .97.03 1.97.23 2.73.72l.14.09.14.11c.7.56 1.08 1.5.97 2.64z"/><path fill="#010101" fill-rule="evenodd" d="M4.88 14.72c.02-.45 0-.92 0-1.37 0-.6-.59-.6-.83-.4-.19.16-.15.32-.15.57 0 .21-.02.44.05.64.11.3.47.56.93.56m-1.13-2.68c.1.7 1.38.6 1.29-.13-.04-.28-.34-.52-.72-.48-.34.03-.62.29-.57.6"/><path fill="#fff" fill-rule="evenodd" d="M5.95 12.54c.5 0 1.19.1 1.19-.57 0-.25-.12-.43-.32-.52-.2-.08-.62-.05-.87-.05zm.3-.21v-.72c.37 0 .58.02.59.36 0 .13-.04.25-.13.3-.12.08-.3.06-.46.06m1.11.21h1.01v-.21h-.7l-.01-.27c.11-.03.48 0 .64-.01v-.2h-.64v-.24h.7v-.21h-1zm1.2 0h.28l.03-.06.03-.07a1 1 0 01.06-.12h.5l.1.25h.3c0-.04-.45-1.07-.5-1.14h-.3c-.06.2-.5 1.04-.5 1.14m.65-.85l.16.4h-.34zm.83.85h.94v-.2l-.64-.01v-.93h-.3z"/><path fill="#ca1c67" fill-rule="evenodd" d="M6.25 12.33c.16 0 .34.02.46-.06.09-.05.13-.17.13-.3 0-.34-.21-.36-.59-.36z"/><path fill="#ca1c66" fill-rule="evenodd" d="M9.03 12.1h.35l-.16-.4z"/><path fill="#000" opacity=".5" d="M14.565 8h.93v8h-.93z"/></svg>