<svg width="38" height="24" viewBox="0 0 38 24" xmlns="http://www.w3.org/2000/svg" role="img" aria-labelledby="pi-indexo"><title id="pi-indexo">Indexo</title><path fill="#000" opacity=".07" d="M35 0H3C1.3 0 0 1.3 0 3v18c0 1.7 1.4 3 3 3h32c1.7 0 3-1.3 3-3V3c0-1.7-1.4-3-3-3z"/><path fill="#fff" d="M35 1c1.1 0 2 .9 2 2v18c0 1.1-.9 2-2 2H3c-1.1 0-2-.9-2-2V3c0-1.1.9-2 2-2h32"/><path fill="#F9EB00" d="M35 1c1.1 0 2 .9 2 2v18c0 1.1-.9 2-2 2H3c-1.1 0-2-.9-2-2V3c0-1.1.9-2 2-2h32"/><path d="M33.418 6h1.916v1.916h-.755V6.715h-1.161V6zM4.59 13.714h-.754V9.04h.755v4.675zm6.385 0h-.681l-2.608-3.383-.004 3.383h-.754V9.04h.681l2.611 3.383V9.039h.755v4.675zm21.223-2.338c0 1.395-1.012 2.424-2.448 2.424-1.435 0-2.447-1.029-2.447-2.425 0-1.395 1.012-2.424 2.447-2.424 1.436 0 2.448 1.029 2.448 2.425zm-4.104 0c0 1.008.701 1.7 1.656 1.7.956 0 1.657-.692 1.657-1.7 0-1.009-.701-1.7-1.657-1.7-.955 0-1.656.691-1.656 1.7zM23.255 9.04h-.911l1.593 2.29-1.66 2.384h.888l1.22-1.8 1.208 1.8h.912l-3.25-4.675zm1.905 1.837l1.282-1.838h-.891l-.83 1.228.438.61zM14.368 9.04h-1.55v.714h1.55c1.099 0 1.636.67 1.636 1.623 0 .951-.537 1.623-1.636 1.623h-1.55v.714h1.55c1.463 0 2.428-.928 2.428-2.337 0-1.41-.965-2.338-2.428-2.338zm6.852 0h-3.232v.707h3.232v-.708zm-.264 1.966H18.25v.708h2.706v-.708zm.306 2h-3.274v.708h3.274v-.708z" fill="#000"/></svg>