<svg xmlns="http://www.w3.org/2000/svg" aria-labelledby="pi-iris" viewBox="0 0 38 24" role="img" width="38" height="24"><title id="pi-iris">IRIS</title><path fill="#000" opacity=".07" d="M35 0H3C1.3 0 0 1.3 0 3v18c0 1.7 1.4 3 3 3h32c1.7 0 3-1.3 3-3V3c0-1.7-1.4-3-3-3z"/><path fill="#fff" d="M35 1c1.1 0 2 .9 2 2v18c0 1.1-.9 2-2 2H3c-1.1 0-2-.9-2-2V3c0-1.1.9-2 2-2h32"/><path fill="#404041" d="M16.02 16.345h-.247c-.083 0-.125-.041-.125-.083v.538s0 .042-.041.042h-.165v-1.449c0-.041.04-.082.082-.082h.497c.165 0 .29.082.29.29v.454c0 .166-.166.29-.29.29zm.084-.745c0-.083-.042-.124-.125-.124h-.33s-.042 0-.042.041v.538c0 .042.041.083.083.083h.29c.082 0 .124-.041.124-.124V15.6zm2.234 0v.662a.089.089 0 01-.083.083H17.8a.283.283 0 01-.29-.29v-.082c0-.166.125-.29.29-.29h.331s.042 0 .042-.041V15.6c0-.083-.042-.124-.125-.124h-.413s-.042 0-.042-.041v-.124h.414c.207 0 .331.124.331.29zm-.538.538h.331v-.372l-.041.041h-.331c-.083 0-.124.042-.124.124v.083c.041.083.082.124.165.124zm2.607-.827s.041 0 0 0l.041 1.2c0 .165-.124.29-.29.29h-.496v-.166s0-.042.042-.042h.455c.083 0 .124-.041.124-.124v-.29c-.041.042-.083.083-.124.083h-.248a.283.283 0 01-.29-.29v-.661h.207v.703c0 .083.041.124.124.124h.248a.089.089 0 00.083-.083v-.744h.124zm2.483.29v.703h-.166s-.041 0-.041-.042v-.703c0-.083-.041-.124-.124-.124h-.248l.041.041v.786h-.166s-.04 0-.04-.041v-.786s0-.042-.042-.042h-.207v.787s0 .041-.042.041h-.165v-.869c0-.083.041-.124.124-.124h.786c.166.083.29.207.29.372zm1.283.413V15.6c0-.207.124-.29.29-.29h.289c.166 0 .29.083.29.29v.249c0 .04 0 .082-.042.082h-.538c-.041 0-.041 0-.082-.041v.165c0 .083.041.125.124.125H25s.042 0 .042.041v.165h-.538c-.207-.04-.331-.206-.331-.372zm.29-.538c-.083 0-.125.041-.125.124v.166h.455s.042 0 .042-.042V15.6c0-.083-.042-.124-.124-.124h-.249zm2.69.124v.704h-.166s-.042 0-.042-.042v-.703c0-.083-.041-.124-.124-.124h-.372s-.042 0-.042.041v.786s0 .042-.041.042H26.2v-.87c0-.082.042-.123.124-.123h.414c.249 0 .414.124.414.29zm1.737.58v.165h-.207a.283.283 0 01-.29-.29v-1.2h.166s.041 0 .041.042v.496c0-.041.042-.041.042-.041h.207v.165h-.29v.538c0 .083.041.125.124.125h.207c0-.042 0 0 0 0zm1.159-.456V15.6c0-.165.124-.248.29-.248h.537v.124s0 .041-.041.041h-.538c-.083 0-.083.042-.083.083v.083l.62.166c.042 0 .042.04.042.082v.166c0 .165-.124.29-.29.29h-.579v-.125s0-.041.042-.041h.538c.082 0 .124-.041.124-.124v-.083l-.621-.165c0-.083-.041-.083-.041-.125z"/><path d="M10.724 7.159c-.041 0-.041 0 0 0l-.041 1.738h.041c1.035 0 1.862.827 1.862 1.862h1.738c0-1.986-1.614-3.6-3.6-3.6" fill="#2d70b3"/><path d="M12.586 10.759c0 1.034-.827 1.903-1.862 1.903h-.041V14.4h.041a3.647 3.647 0 003.642-3.641h-1.78z" fill="#019a94"/><path d="M10.683 8.897V7.159c-1.986 0-3.6 1.655-3.6 3.641H8.82c0-1.034.827-1.862 1.862-1.903" fill="#ee3e37"/><path d="M8.82 10.759H7.084c0 1.986 1.614 3.6 3.6 3.641v-1.738c-1.035-.041-1.862-.869-1.862-1.903" fill="#f68c22"/><path d="M10.724 8.4c-.041 0-.041 0 0 0l-.041 1.159h.041c.662 0 1.242.538 1.242 1.2h1.158c-.041-1.283-1.117-2.359-2.4-2.359" fill="#154a8b"/><path d="M11.924 10.759c0 .662-.538 1.241-1.241 1.241h-.042v1.159h.042A2.358 2.358 0 0013.04 10.8h-1.117z" fill="#00756f"/><path d="M10.683 9.559V8.4C9.4 8.4 8.324 9.476 8.324 10.76h1.159a1.2 1.2 0 011.2-1.2" fill="#c72127"/><path d="M9.483 10.759H8.324a2.358 2.358 0 002.359 2.358V12c-.662 0-1.2-.538-1.2-1.241" fill="#ce6a28"/><g><path fill="#404041" d="M15.4 8.07c0-.456.704-.456.704 0v5.585c0 .414-.704.456-.704 0V8.07zm2.814 3.144h1.903c1.242 0 1.738-.58 1.738-1.283 0-.786-.662-1.365-1.738-1.365h-1.903v2.648zm0 .62v1.821c0 .414-.662.414-.662 0V8.276c0-.207.124-.331.33-.331h2.235c1.614 0 2.442.91 2.442 2.028 0 .951-.497 1.613-1.655 1.82l1.53 1.656c.373.372-.165.786-.454.455l-1.904-2.028h-1.862zM23.8 8.07c0-.455.704-.455.704 0v5.586c0 .414-.704.456-.704 0V8.07zm2.318 4.345c.248.786 1.282.952 2.027.952.786 0 2.028-.249 2.028-1.2 0-.828-.993-.87-2.028-.952-1.283-.083-2.69-.207-2.69-1.614 0-1.241 1.407-1.78 2.566-1.78.993 0 2.193.25 2.607 1.284.124.372-.497.538-.62.206-.29-.703-1.283-.827-1.946-.827-.62 0-1.82.248-1.82 1.117 0 .828.951.91 2.027.993 1.283.124 2.649.166 2.649 1.573 0 1.448-1.614 1.862-2.731 1.862-.952 0-2.4-.331-2.732-1.448-.165-.414.58-.538.663-.166"/></g></svg>