<svg width="38" height="24" viewBox="0 0 38 24" fill="none" role="img" aria-labelledby="pi-keuzecadeau" xmlns="http://www.w3.org/2000/svg"><title id="pi-keuzecadeau">Keuze Cadeau</title><g><path opacity=".07" d="M35 0H3C1.3 0 0 1.3 0 3v18c0 1.7 1.4 3 3 3h32c1.7 0 3-1.3 3-3V3c0-1.7-1.4-3-3-3z" fill="#000"/><path d="M35 1c1.1 0 2 .9 2 2v18c0 1.1-.9 2-2 2H3c-1.1 0-2-.9-2-2V3c0-1.1.9-2 2-2z" fill="#c40f80" fill-opacity="1"/><path d="M9.711 22.996l22.083-.002-3.288-9.114s-.388-1.178-1.81-.73c-1.477.464-16.917 6.159-16.917 6.159s-1.212.431-.714 1.942c.498 1.51.646 1.745.646 1.745z" fill="#811f6a" fill-opacity="1"/><path d="M18.167.984l-.882 3.29s-.424 1.29 1.051 1.68c1.476.39 16.08 4.342 16.08 4.342s1.443.526 1.816-.967c.373-1.492.78-2.85.78-2.85s.002-2.605-.011-3.17c.081-1.215-.586-2.328-2.147-2.317-1.34.008-16.695.012-16.695.012z" fill="#4c3388" fill-opacity="1"/><path d="M.996 13.585l3.528 3.736s.444.511.97.499c.742-.017.982-.427.982-.427L13.5 10.75s.48-.37.478-1.016c-.002-.626-.599-1.102-.599-1.102L6.1.992 2.922.998s-.816-.009-1.44.688c-.543.606-.48 1.422-.48 1.422z" fill="#e94e1e" fill-opacity="1"/><path d="M19.505 8.549c.82-.02 1.62.27 2.24.81.55.48 1.36.54 1.98.14l1.96-1a5.215 5.215 0 00-2.42-2.57c-.85-.46-1.79-.76-2.76-.87-.34-.05-.68-.07-1.03-.08-1.95 0-3.78.79-5.12 2.14 0 0 0 .01-.02.02-.19.19-.37.39-.53.6-.03.04-.06.08-.09.13-.12.16-.24.33-.34.5-.03.04-.06.08-.08.12a6.852 6.852 0 000 6.97 7.115 7.115 0 002.6 2.54c1.09.63 2.33.95 3.59.94h.68v-.03c1.07-.08 2.12-.39 3.07-.9a5.195 5.195 0 002.41-2.57l-1.96-1c-.61-.38-1.41-.32-1.96.15-.16.14-.34.27-.53.37-.48.27-1.01.41-1.56.43l-.15-.01a3.347 3.347 0 01-3.4-3.28v-.13c-.02-.79.25-1.53.69-2.11.01-.01.02-.03.03-.04.04-.05.08-.1.13-.15.03-.04.06-.07.1-.11.02-.02.05-.05.08-.07.07-.07.14-.13.21-.19l.15-.12c.08-.06.16-.11.25-.16.05-.03.1-.05.14-.08.11-.06.22-.11.33-.15h.02c.14-.05.29-.1.44-.13.23-.06.46-.1.71-.1h.14z" fill="#fff" stroke-width="1"/></g></svg>