<svg width="38" height="24" viewBox="0 0 38 24" xmlns="http://www.w3.org/2000/svg" role="img" aria-labelledby="pi-monizzenew"><title id="pi-monizzenew">Monizzenew</title><path fill="#000" opacity=".07" d="M35 0H3C1.3 0 0 1.3 0 3v18c0 1.7 1.4 3 3 3h32c1.7 0 3-1.3 3-3V3c0-1.7-1.4-3-3-3z"/><path fill="#fff" d="M35 1c1.1 0 2 .9 2 2v18c0 1.1-.9 2-2 2H3c-1.1 0-2-.9-2-2V3c0-1.1.9-2 2-2h32z"/><path fill="#F99202" d="M3 1h32c1.1 0 2 .9 2 2v18c0 1.1-.9 2-2 2H3c-1.1 0-2-.9-2-2V3c0-1.1.9-2 2-2z"/><path d="M16.513 12.367h5.163l12.885.023.236.045.143.115.118.183.024.092.023 1.283v5.134l-.023.825-.071.206-.19.183-.26.046H3.392l-.213-.069-.142-.114-.095-.16-.024-.161-.023-.94v-5.225l.023-.962.048-.23.19-.183.141-.068 13.216-.023z" fill="#F99202"/><path d="M16.584 3.98l.071.068.332.664.308.596.26.527.285.573.331.665.403.802.331.665.071.16h.048l.26-.527 1.113-2.223.26-.527.57-1.146.142-.298h.047l.213 1.054.474 2.475.45 2.338.213 1.123.047.298-.047.023-.64.068-.663.069-.07-.206-.19-1.1-.166-1.054-.19-1.215H20.8l-.237.435-.355.71-.308.643-.474.94-.307.618-.095.183-.071-.023-.45-.87-.26-.528-.403-.802-.521-1.031-.166-.32h-.024l-.19 1.237-.307 2.016-.048.344-.023.023-.285-.023-.923-.114-.119-.023v-.16l.284-1.467.261-1.421.545-2.888.213-1.146.047-.206zM16.513 12.367h5.163l12.885.023.236.045.143.115.118.183.024.092.023 1.283v5.134l-.023.825-.071.206-.19.183-.26.046H3.392l-.213-.069-.142-.114-.095-.16-.024-.161-.023-.94v-5.225l.023-.962.048-.23.19-.183.141-.068 13.216-.023zm-11.77.32l-1.446.023-.023.023-.024.573v6.554l.024.275.094.046 29.795.023 1.516-.023.047-.023.024-.16v-7.265l-.024-.023-.426-.023H4.742z" fill="#FDFAF9"/><path d="M6.518 14.43h2.487l.569.022v4.194H5.239l-.023-.504v-3.667l.023-.023 1.28-.023zM16.869 15.438h.45l.355.091.284.115.26.16.285.252.166.252.142.321.047.206v.482l-.095.366-.166.298-.26.298-.284.206-.403.184-.284.069-.332.022-.331-.045-.356-.115-.331-.183-.237-.207-.166-.183-.142-.23-.142-.412-.024-.16v-.252l.071-.344.166-.367.237-.297.237-.207.331-.183.26-.092.262-.046zM14.263 14.383h.048l.142.642.52 2.681.143.78v.16l-.284.046-.26.023h-.238l-.07-.298-.167-.963-.118-.733v-.069h-.047l-.048.138-.237.435-.308.642-.355.687-.047.138h-.071l-.663-1.284-.26-.527-.143-.229-.047.23-.237 1.558-.047.275-.119.023-.663-.092v-.184l.52-2.727.214-1.122.024-.184h.095l.189.413.26.48.261.528.332.665.307.595.214-.366.308-.642.308-.596.26-.527.237-.481.047-.115zM31.055 15.438h.45l.355.091.332.16.237.184.19.183.189.275-.047.092-.403.252-.426.252-.45.275-.427.252-.402.252.023.092.237.16.166.046h.355l.308-.069.379-.183.118-.069.095.023.213.459.071.114-.023.092-.356.183-.497.16-.166.024h-.544l-.356-.092-.379-.184-.213-.16-.118-.092-.213-.275-.143-.275-.094-.343v-.436l.095-.366.189-.344.26-.275.19-.16.284-.161.38-.115.141-.023zM20.776 15.438h.498l.307.091.214.115.165.16.166.321.024.115.024.39v2.016l-.142.023h-.64l-.024-.023-.023-2.154-.095-.184-.166-.137-.118-.046h-.308l-.237.115-.166.16-.095.183-.023.07-.024 1.993-.047.023-.735.023-.023-.023v-3.117l.047-.046.38-.023h.33l.024.344.19-.16.213-.138.284-.091zM24.234 15.53h2.297v.068l-.236.39-.332.572-.308.505-.331.55-.19.32.119.023h1.279l.023.092-.118.573-.024.023H23.95l-.024-.069.356-.596.307-.504.474-.78.284-.48-1.231-.023.023-.206.072-.413.023-.046zM27.029 15.53h2.274v.068l-.38.642-.378.618-.38.642-.283.458h1.42l.024.092-.07.32-.048.253-.024.023h-2.463v-.092l.332-.573.379-.619.402-.664.284-.481-1.255-.023.047-.23.095-.412.024-.023z" fill="#FDFAF9"/><path d="M16.868 16.148h.427l.26.092.19.114.118.092.19.275.07.252v.275l-.094.252-.166.23-.166.137-.236.114-.214.046h-.331l-.308-.092-.237-.16-.142-.16-.142-.275-.024-.115v-.32l.119-.299.26-.275.332-.16.094-.023z" fill="#F99202"/><path d="M23.429 15.46h.142v3.186l-.213.023h-.592v-3.117l.142-.046.52-.046z" fill="#FDFAF9"/><path d="M7.679 15.758h.118l.071.138.119-.023.095-.046h.284l.19.069.236.206.119.23.023.09v.299l-.118.229-.142.16-.19.115-.07.023h-.332l-.237-.069v.436l-.26.068h-.096l-.023-.733v-.985l.047-.16.166-.047zM7.276 15.323l.048.023v1.444l-.095.206-.19.16-.118.069-.355.046-.237-.069-.213-.138-.095-.16-.024-.046-.023-.206v-1.26l.213-.046h.166l.023 1.375.071.114.119.046h.19l.141-.091.024-.07.024-1.305.07-.046.261-.046zM31.103 16.08h.236l.285.068.142.069v.091l-.403.253-.545.32-.473.275h-.048v-.32l.095-.253.142-.206.19-.16.26-.115.119-.023z" fill="#F99202"/><path d="M23.168 14.2l.095.046.45.435-.047.092-.19.16-.237.23-.094.022-.474-.458.024-.092.19-.183.165-.137.118-.115zM8.153 16.125l.236.046.119.114.07.115v.298l-.189.206-.047.023h-.26l-.19-.114-.095-.184v-.183l.119-.184.142-.114.095-.023z" fill="#FDFAF9"/></svg>