<svg xmlns="http://www.w3.org/2000/svg" role="img" viewBox="0 0 38 24" width="38" height="24" aria-labelledby="pi-neopay"><title id="pi-neopay">Neopay</title><path fill-opacity=".07" d="M35 0H3C1.3 0 0 1.3 0 3v18c0 1.7 1.4 3 3 3h32c1.7 0 3-1.3 3-3V3c0-1.7-1.4-3-3-3"/><path fill="#fff" d="M35 1c1.1 0 2 .9 2 2v18c0 1.1-.9 2-2 2H3c-1.1 0-2-.9-2-2V3c0-1.1.9-2 2-2z"/><path fill="#132C89" d="m34.38 13.536-.657.162a.84.84 0 0 0 .34-.162l.657-.153a.8.8 0 0 1-.34.161"/><path fill="#122B84" d="m34.723 13.372-.656.153a.77.77 0 0 0 .275-.562L35 12.81a.8.8 0 0 1-.277.562M34.622 14.416l-.656.152a2 2 0 0 1-.413.05 2.3 2.3 0 0 1-.944-.166 2.3 2.3 0 0 1-.8-.543l.659-.161c.227.236.499.42.798.543.3.122.621.18.943.167q.21-.003.413-.05"/><path fill="#122B84" d="m32.468 13.756-.658.161a.54.54 0 0 1-.12-.577.5.5 0 0 1 .13-.18l.657-.152a.49.49 0 0 0-.168.4.53.53 0 0 0 .157.356"/><path fill="#132C89" d="m32.47 13.005-.657.152a.4.4 0 0 1 .157-.077l.656-.154a.36.36 0 0 0-.157.08"/><path fill="#214EF2" d="M35.878 12.794c-.021.968-.676 1.655-1.669 1.672a2.3 2.3 0 0 1-.943-.167 2.3 2.3 0 0 1-.798-.543.53.53 0 0 1-.157-.357.46.46 0 0 1 .102-.328.44.44 0 0 1 .297-.156.42.42 0 0 1 .303.126c.146.17.327.304.53.394.202.09.42.135.641.13a.77.77 0 0 0 .562-.203.82.82 0 0 0 .26-.552z"/><path fill="#12297F" d="m35.858 12.414-.656.154-.9.016.659-.152z"/><path fill="#122B84" d="m34.96 12.432-.657.152c-.135-.412-.562-.635-1.162-.624l.658-.16c.598-.01 1.027.212 1.162.624"/><path fill="#12297F" d="m33.799 11.809-.658.151-.18.004.658-.152z"/><path fill="#132C87" d="m33.38 10.976-.657.153.352-.46.656-.152z"/><path fill="#122B84" d="m33.619 11.81-.658.154a.42.42 0 0 1-.282-.131.44.44 0 0 1-.12-.294.58.58 0 0 1 .156-.41l.656-.153a.58.58 0 0 0-.156.414.44.44 0 0 0 .12.294.42.42 0 0 0 .284.13"/><path fill="#214EF2" d="m34.738 10.498-.427.544c.719.085 1.41.465 1.547 1.374l-.897.016c-.135-.412-.564-.635-1.162-.625h-.18a.42.42 0 0 1-.281-.127.44.44 0 0 1-.123-.29.59.59 0 0 1 .164-.411l.352-.46z"/><path fill="#12297F" d="m35.075 10.113-.656.152-1.016.018.656-.152z"/><path fill="#132C87" d="m34.059 10.131-.656.152.458-.6.657-.154z"/><path fill="#12297F" d="m34.518 9.529-.657.153-1.826.032.657-.151z"/><path fill="#122B84" d="m32.692 9.561-.657.153a.42.42 0 0 1-.287-.127.45.45 0 0 1-.125-.295.45.45 0 0 1 .15-.365l.655-.162a.44.44 0 0 0-.148.367.44.44 0 0 0 .124.296c.076.078.18.124.288.127"/><path fill="#132C89" d="m32.428 8.772-.656.161a.35.35 0 0 1 .144-.073l.657-.151a.35.35 0 0 0-.145.07"/><path fill="#214EF2" d="M35.219 8.646a.42.42 0 0 1 .32.114.45.45 0 0 1 .142.318.73.73 0 0 1-.222.55l-.384.484-1.008.02.458-.603-1.826.032a.42.42 0 0 1-.287-.127.44.44 0 0 1-.124-.296.41.41 0 0 1 .09-.305.4.4 0 0 1 .276-.142z"/><path fill="#2352FD" d="M6.284 13.102h-.432a.73.73 0 0 0-.522.204.77.77 0 0 0-.235.523.85.85 0 0 1-.168.46.8.8 0 0 1-.39.282.6.6 0 0 1-.158.015H2.851a.7.7 0 0 1-.455-.152.74.74 0 0 1-.26-.415.9.9 0 0 1 .012-.39c.052-.375.107-.75.156-1.123.05-.373.107-.738.157-1.106s.105-.744.157-1.114c.069-.463.126-.928.216-1.388.06-.293.229-.55.47-.716A.94.94 0 0 1 3.877 8h3.148c.388-.004.764.138 1.057.4.294.261.485.624.538 1.02.031.248.026.5-.017.745-.04.294-.056.59-.1.885-.049.323-.06.655-.197.957a1.8 1.8 0 0 1-.526.703c-.23.185-.5.308-.788.356a4 4 0 0 1-.708.036s0 .003 0 0m-2.277-3.03.039.062 1.318 2.125q.059.092.156.137a.34.34 0 0 0 .203.025.35.35 0 0 0 .185-.107.37.37 0 0 0 .094-.195q.043-.27.081-.538l.176-1.158q.094-.637.19-1.273a.37.37 0 0 0-.148-.378.35.35 0 0 0-.27-.054.34.34 0 0 0-.223.167.4.4 0 0 0-.046.137l-.036.245-.19 1.258-.084.542-.055-.087q-.645-1.043-1.29-2.078a.35.35 0 0 0-.165-.16.33.33 0 0 0-.225-.019.35.35 0 0 0-.179.125.37.37 0 0 0-.076.208c-.061.437-.122.881-.187 1.314-.072.507-.147 1.02-.216 1.521s-.156 1.045-.227 1.566a.38.38 0 0 0 .035.271.36.36 0 0 0 .334.188.3.3 0 0 0 .22-.124.3.3 0 0 0 .057-.118c.039-.243.071-.485.108-.73l.156-1.074q.077-.538.157-1.075c.034-.238.07-.473.108-.724M6.058 14.589a.3.3 0 0 1-.221-.095.341.341 0 0 1 .001-.465c.06-.063.142-.099.228-.1a.33.33 0 0 1 .22.103.35.35 0 0 1 .093.23.33.33 0 0 1-.092.234.3.3 0 0 1-.229.093"/><path fill="#1F2130" d="m13.473 13.359.079-.47.313-2.086q.041-.283.085-.565a.37.37 0 0 1 .153-.238.35.35 0 0 1 .272-.051.26.26 0 0 1 .15.119.27.27 0 0 1 .03.192q-.152 1.083-.313 2.167-.13.915-.263 1.834a.38.38 0 0 1-.074.219.36.36 0 0 1-.186.129.37.37 0 0 1-.255-.032.4.4 0 0 1-.179-.191l-.4-.764q-.605-1.158-1.213-2.319l-.056-.1c-.025.162-.045.304-.066.446l-.282 1.937c-.034.241-.07.485-.101.72a.37.37 0 0 1-.153.248.34.34 0 0 1-.281.046.23.23 0 0 1-.14-.09.24.24 0 0 1-.043-.163c0-.145.03-.29.05-.434q.132-.998.29-1.998c.076-.54.156-1.083.23-1.624a.4.4 0 0 1 .074-.221.36.36 0 0 1 .187-.133.4.4 0 0 1 .247.036c.077.038.14.1.182.176l1.233 2.407.412.808zM22.226 14.332c-.035.24-.07.485-.105.713s-.06.434-.095.645a.38.38 0 0 1-.151.246.35.35 0 0 1-.277.056.24.24 0 0 1-.147-.098.25.25 0 0 1-.041-.176q.015-.2.049-.396l.313-2.173c.09-.628.178-1.258.275-1.886a.36.36 0 0 1 .155-.262.34.34 0 0 1 .295-.038.25.25 0 0 1 .158.12.27.27 0 0 1 .025.202c0 .023-.008.044-.014.08q.07-.059.128-.104c.149-.12.32-.208.504-.255s.375-.054.561-.02c.186.04.36.128.502.257s.249.295.31.48c.15.452.17.94.055 1.404s-.36.882-.704 1.204a1.413 1.413 0 0 1-1.273.323.9.9 0 0 1-.47-.278l-.042-.044zm.252-1.2c-.01.2.027.398.108.579.051.116.136.214.243.28.106.064.23.094.354.085a.83.83 0 0 0 .41-.134.86.86 0 0 0 .294-.325c.214-.359.315-.776.289-1.196a1.16 1.16 0 0 0-.135-.533.5.5 0 0 0-.2-.214.5.5 0 0 0-.28-.062.9.9 0 0 0-.39.106.9.9 0 0 0-.308.27c-.248.327-.383.73-.385 1.145M15.321 13.125a.9.9 0 0 0 .129.463c.101.18.263.314.454.38.19.065.399.057.584-.025q.213-.083.4-.22a.6.6 0 0 1 .372-.13.21.21 0 0 1 .146.05.23.23 0 0 1 .078.136.34.34 0 0 1-.077.322 1.72 1.72 0 0 1-1.215.567 1.43 1.43 0 0 1-.761-.137 1.26 1.26 0 0 1-.487-.425 1.3 1.3 0 0 1-.22-.616c-.062-.39-.026-.79.102-1.163a2.36 2.36 0 0 1 .632-.969c.171-.164.378-.285.603-.353a1.5 1.5 0 0 1 .693-.039c.269.04.514.18.693.391s.277.482.278.762a2 2 0 0 1-.061.636.45.45 0 0 1-.165.287.42.42 0 0 1-.313.086h-1.865zm1.751-.619a2 2 0 0 0 0-.307.66.66 0 0 0-.131-.357.63.63 0 0 0-.304-.219.68.68 0 0 0-.404 0c-.196.06-.372.173-.512.325s-.24.34-.29.544v.014zM27.37 12.592c.022-.162.047-.323.061-.467a.38.38 0 0 0-.145-.336.67.67 0 0 0-.383-.161 1.8 1.8 0 0 0-.646.07 3 3 0 0 1-.282.062.26.26 0 0 1-.172-.012.27.27 0 0 1-.129-.118.33.33 0 0 1 .068-.362.4.4 0 0 1 .11-.08A2.4 2.4 0 0 1 27.25 11c.626.117.91.593.815 1.216q-.155 1.03-.302 2.059a.4.4 0 0 1-.125.276.37.37 0 0 1-.28.098c-.138-.013-.202-.084-.243-.284l-.072.04a1.58 1.58 0 0 1-1.186.21.9.9 0 0 1-.511-.28.94.94 0 0 1-.24-.543c-.014-.19.016-.38.088-.556.071-.175.182-.33.324-.453a1.62 1.62 0 0 1 1.782-.232zm-.848.413a1 1 0 0 0-.46.105.56.56 0 0 0-.217.193.59.59 0 0 0-.086.429.38.38 0 0 0 .178.23q.065.038.14.044a1.08 1.08 0 0 0 1.013-.25.6.6 0 0 0 .144-.242.27.27 0 0 0-.088-.31.86.86 0 0 0-.624-.199M21.264 12.55c.002.324-.063.645-.19.942a2.3 2.3 0 0 1-.549.779 1.463 1.463 0 0 1-1.308.38 1.1 1.1 0 0 1-.628-.325 1.2 1.2 0 0 1-.322-.644 2.4 2.4 0 0 1 .029-1.253c.12-.408.345-.773.652-1.058.158-.154.347-.271.554-.342a1.45 1.45 0 0 1 .643-.068c.237.025.461.124.644.283.181.159.313.37.375.608q.1.341.1.698m-.665.116a1.5 1.5 0 0 0-.135-.704.64.64 0 0 0-.296-.309.6.6 0 0 0-.42-.044 1 1 0 0 0-.378.17 1 1 0 0 0-.278.314c-.164.274-.252.59-.255.912-.017.249.033.497.144.719a.6.6 0 0 0 .236.252.56.56 0 0 0 .333.07.9.9 0 0 0 .443-.133.96.96 0 0 0 .33-.335c.171-.272.266-.588.276-.912M29.635 13.49l.49-1.042c.174-.37.35-.74.52-1.112a.44.44 0 0 1 .175-.206.42.42 0 0 1 .259-.063.24.24 0 0 1 .19.098.25.25 0 0 1 .041.214 1 1 0 0 1-.08.24q-1.01 2.048-2.018 4.1a.42.42 0 0 1-.184.208.4.4 0 0 1-.353.02.22.22 0 0 1-.108-.136.2.2 0 0 1-.008-.09.7.7 0 0 1 .063-.252c.156-.323.332-.646.496-.969a.2.2 0 0 0 .016-.11l-.497-2.785a.8.8 0 0 1-.012-.268.3.3 0 0 1 .107-.191.28.28 0 0 1 .206-.064.3.3 0 0 1 .204.074c.058.05.096.118.11.194q.144.855.292 1.71l.073.421z"/></svg>
