<svg xmlns="http://www.w3.org/2000/svg" viewBox="0 0 38 24" width="38" height="24" role="img" aria-labelledby="pi-payap"><title id="pi-payap">Payap</title><path fill="#610AC7" d="M35 1c1.1 0 2 .9 2 2v18c0 1.1-.9 2-2 2H3c-1.1 0-2-.9-2-2V3c0-1.1.9-2 2-2h32"/><path opacity=".07" d="M35 0H3C1.3 0 0 1.3 0 3v18c0 1.7 1.4 3 3 3h32c1.7 0 3-1.3 3-3V3c0-1.7-1.4-3-3-3z"/><path fill="#8EFFE9" d="M24.778 8.413V6.368a.573.573 0 00-.57-.576h-4.295a.573.573 0 00-.569.576v2.236c0 .319.255.577.569.577h4.08c.42 0 .759.344.759.768v1.828c0 .424-.34.768-.758.768h-4.739a.763.763 0 01-.758-.768V9.752a.573.573 0 00-.568-.576h-5.117a.573.573 0 00-.569.576v2.032c0 .425-.34.768-.758.768h-2a.573.573 0 00-.569.577v2.224c0 .318.255.576.569.576h1.997c.418 0 .758.344.758.769v2.044c0 .318.254.577.568.577h4.296a.573.573 0 00.57-.577v-2.236a.573.573 0 00-.57-.577h-4.099a.763.763 0 01-.758-.768v-1.828c0-.424.34-.768.758-.768h4.734c.419 0 .758.344.758.768v2.025c0 .318.255.577.57.577h5.116a.573.573 0 00.569-.577v-2.032c0-.424.339-.768.758-.768h2.004a.573.573 0 00.569-.577V9.758a.573.573 0 00-.57-.577h-1.978a.763.763 0 01-.757-.768z"/></svg>