<svg xmlns="http://www.w3.org/2000/svg" viewBox="0 0 38 24" width="38" height="24" role="img" aria-labelledby="pi-paymentassist"><title id="pi-paymentassist">Payment Assist</title><path opacity=".07" d="M35 0H3C1.3 0 0 1.3 0 3v18c0 1.7 1.4 3 3 3h32c1.7 0 3-1.3 3-3V3c0-1.7-1.4-3-3-3z"/><path fill="#fff" d="M35 1c1.1 0 2 .9 2 2v18c0 1.1-.9 2-2 2H3c-1.1 0-2-.9-2-2V3c0-1.1.9-2 2-2h32"/><path fill="#e3312c" d="M17.38 8.14l.19-.25c.59-.68 2.1-.81 2.32.27.03 0 .03 0 .05-.02.05-.06.11-.17.17-.24.51-.57 1.67-.82 2.13-.08.47.77.13 2.47.24 3.37l-.04.08h-.95V8.86c0-.15-.13-.44-.26-.53-.35-.26-.82-.01-1.05.29-.04.05-.2.32-.2.37v2.29h-.99V8.84c0-.14-.14-.42-.26-.51-.35-.26-.82-.01-1.05.29-.04.05-.2.32-.2.37v2.29h-.95l-.04-.04v-3.8h.89v.69zM5.54 10.65v2.2h-.97V7.49s-.03-.02-.02-.04h.87v.64c.06-.04.09-.12.14-.17.81-.92 2.21-.62 2.75.42.7 1.35-.19 3.43-1.91 2.95-.37-.1-.62-.36-.85-.65zm.76-2.42c-.3.05-.73.38-.76.7-.02.19-.02.78.05.94.32.77 1.37.9 1.8.13.45-.82-.08-1.92-1.08-1.77zM26.81 9.68h-2.97c.05 1.04 1.43 1.32 1.95.45l.8.22c-.1.32-.43.61-.73.77-1.09.59-2.59.12-2.97-1.1-.41-1.29.44-2.57 1.8-2.64 1.35-.07 2.29.97 2.12 2.3zm-.99-.64c-.11-1.26-1.89-1.26-2.01 0h2.01z"/><path fill="#e3312c" d="M12.45 10.45v.84c-.38.08-.9.12-1.03-.35-.02-.08-.01-.17-.05-.25-.32.38-.78.64-1.29.67-1.5.08-2.01-1.8-.57-2.33.55-.2 1.17-.15 1.72.02v-.38c0-.12-.16-.38-.26-.46-.39-.29-1.03-.15-1.44.05-.06.03-.34.23-.38.2l-.28-.6c1.02-.73 3.1-.78 3.32.79.01.1.02.26.03.37.02.38-.06.91 0 1.26.02.11.11.17.22.16zm-2.21-.99c-.94.11-.84 1.28.16 1.18.3-.03.8-.27.84-.6 0-.06 0-.4-.01-.43-.3-.13-.66-.18-.99-.14zM30.69 11.29h-.97V8.93c0-.05-.06-.28-.08-.33-.21-.51-.83-.39-1.18-.08-.08.08-.35.39-.35.49v2.29h-.99V7.46h.89v.67c.39-.58 1.24-.88 1.92-.69.44.12.76.66.76 1.1v2.76zM13.36 7.45l1.03 2.97.94-2.97h.9l-1.53 4.39c-.14.48-.43.9-.93 1.05-.3.09-.67.11-.95-.04v-.8c.18.02.35.07.53.05.3-.04.44-.57.5-.82l-1.5-3.83h1.01zM32.43 6.19v1.22l.04.04h.78v.74h-.81v1.92s.06.2.09.24c.18.21.61.06.83-.02l.2.77c-.21.08-.42.17-.64.21-.47.09-1.11.07-1.35-.42-.02-.05-.09-.26-.09-.3V8.2h-.49v-.71s-.03-.02-.02-.04h.52V6.19h.97z"/><path fill="#1e305f" d="M8.23 16.9v.84c-.52.13-1.08.03-1.04-.62-.29.33-.66.58-1.11.66-.9.15-1.76-.43-1.61-1.41.08-.49.56-.82 1.01-.94.52-.14 1.04-.07 1.55.08.12-1.34-1.32-1.14-2.06-.6l-.28-.6c.92-.68 2.9-.77 3.25.58.15.59-.02 1.25.06 1.82.02.12.1.2.22.19zM6 15.91c-.9.12-.81 1.3.24 1.18.28-.03.77-.27.81-.58.01-.07.02-.43-.02-.47-.13-.13-.84-.15-1.02-.13zM19.42 14.91s-.22-.12-.28-.15c-.35-.19-.76-.34-1.16-.21-.35.11-.42.54-.08.71.54.29 1.9.3 2.02 1.1.26 1.77-2.35 1.71-3.25.85l.35-.59c.46.29 1.23.68 1.76.41.29-.15.31-.5.02-.66-.74-.41-2.26-.27-1.99-1.56.27-1.29 2.21-1.21 2.96-.47l-.35.58zM11.12 14.91s-.22-.12-.28-.15c-.11-.06-.24-.13-.35-.17-.36-.13-1.14-.18-1.1.38.02.23.21.3.4.37.58.2 1.68.29 1.82 1.03.09.49-.11.96-.54 1.21-.77.44-2.06.21-2.71-.36l.35-.59c.46.29 1.23.68 1.76.41.3-.15.3-.51 0-.67-.76-.39-2.23-.28-1.97-1.55.26-1.24 2.2-1.22 2.96-.48l-.35.58zM12.04 16.62s.37.21.44.24c.37.19.91.35 1.31.18.28-.11.38-.46.11-.64-.54-.37-1.96-.3-2.06-1.16-.19-1.59 2.1-1.78 2.98-.9l-.38.57c-.39-.25-.87-.49-1.35-.38-.36.08-.53.5-.19.71.59.37 1.99.25 2.07 1.24.14 1.65-2.41 1.56-3.26.74l.32-.6zM21.47 12.64v1.26h.81v.74h-.81v1.99s.06.14.08.16c.19.2.61.06.83-.02l.16.77c-.57.28-1.65.48-1.97-.24a1.68 1.68 0 01-.08-.24v-2.41h-.52v-.74h.52v-1.26s.03.02.04.02h.89s.02-.03.04-.02zM15.36 13.9h.97v3.84h-.97zM15.36 12.4h.97v.97h-.97z"/></svg>