<svg width="38" height="24" viewBox="0 0 38 24" xmlns="http://www.w3.org/2000/svg" role="img" aria-labelledby="pi-payphone"><title id="pi-payphone">PayPhone</title><path fill="#000" opacity=".07" d="M35 0H3C1.3 0 0 1.3 0 3v18c0 1.7 1.4 3 3 3h32c1.7 0 3-1.3 3-3V3c0-1.7-1.4-3-3-3z"/><path fill="#fff" d="M35 1c1.1 0 2 .9 2 2v18c0 1.1-.9 2-2 2H3c-1.1 0-2-.9-2-2V3c0-1.1.9-2 2-2h32"/><path fill="#E97426" d="M3 1h32c1.1 0 2 .9 2 2v18c0 1.1-.9 2-2 2H3c-1.1 0-2-.9-2-2V3c0-1.1.9-2 2-2z"/><path fill="#FDFCFB" d="M26.271 10.694h.237l.663.068 1.397.046.308.07.308.16.213.206v.046l.285-.275.331-.16.237-.047 1.374-.046.663-.068h.284l.142.068.119.092.07.115v.435l-.118.39-.166.298-.236.252-.119.114-.213.16-.237.138-.473.184-.38.091h-.378l-.024-.023.024-.16.118-.183.166-.138.26-.092.38-.137.26-.138.284-.252.166-.229.094-.206.048-.23-.332.047-.805.045-.995.023-.165.07-.119.09-.142.23-.047.137.023.184.19.55.166.641.118.596v.046l-.166.023h-.331l-.048-.023-.237-.985-.047-.07-.095.276-.166.756-.047.046-.45-.046-.047-.023v-.16l.213-.871.19-.596.07-.206v-.16l-.142-.275-.094-.115-.19-.092-.118-.023-.971-.023-.853-.045-.237-.023.119.343.118.207.213.229.26.183.356.16.426.138.19.138.095.137.023.069v.16h-.379l-.402-.091-.38-.138-.284-.16-.307-.23-.19-.183-.166-.229-.142-.298-.095-.367v-.298l.095-.183.19-.137.047-.023zM6.092 10.67h.45l.332.092.26.16.142.184.119.298.023.115v.504l-.118.367-.095.137-.19.183-.283.115-.332.046-.379-.023-.284-.115-.19-.137.024.114v.757l-.166.022h-.284l-.024-.022-.023-.642V10.74l.047-.046h.403l.047.023-.024.275.19-.16.19-.115.165-.046zm7.508 0h.426l.284.07.214.114.142.115.142.229.07.229.025.16v.321l-.072.367-.118.23-.142.16-.26.137-.19.046-.213.023h-.26l-.285-.069-.213-.137-.095-.07.024.849-.024.023h-.45l-.024-.023v-2.727l.024-.023h.403l.07.068v.184l.285-.207.237-.068zm-4.997 0h.426l.332.07.26.137.166.16.142.275.047.207v1.306h-.473v-.183l.023-.046-.284.206-.237.069H8.58l-.308-.069-.237-.115-.19-.183-.118-.23-.07-.251-.024-.367.07-.32.166-.322.166-.16.237-.114.332-.07zm10.16 0h.45l.237.047.237.091.19.138.141.206.095.23.024.114v.527l-.071.275-.119.206-.19.183-.236.115-.379.069h-.331l-.285-.046-.331-.16-.142-.115-.119-.206-.095-.298-.023-.138v-.275l.07-.343.12-.23.165-.183.332-.16.26-.046zm5.258 0h.545l.284.07.213.114.119.092.165.252.072.229.023.16v.344l-1.823.023.047.23.142.183.142.091.142.023h.403l.26-.069.071-.068.071-.138.095-.023h.355l.024.046-.166.32-.213.184-.26.092-.119.023h-.64l-.307-.092-.237-.137-.142-.184-.095-.206-.07-.367.023-.366.095-.298.142-.23.165-.137.19-.091.284-.07zm-8.787-.618h.45l.024.023.024.848.26-.16.142-.046.166-.023h.26l.332.068.237.092.19.138.142.206.07.206.024.184v1.214l-.023.023h-.45l-.024-1.237-.047-.275-.119-.138-.237-.092h-.52l-.214.092-.142.16-.047.115-.024 1.375h-.474l-.023-2.727.023-.046zm5.234.642h.474l.024.114-.024.138.119-.069.165-.115.26-.068h.332l.403.091.284.16.142.161.119.275.023.275v1.169l-.142.023-.331-.023-.024-1.031-.024-.344-.118-.23-.19-.114-.26-.046-.308.023-.213.092-.142.183-.048.138-.023.16v1.169h-.474l-.024-.092v-2.04zm-10.468 0h.497l.166.343.26.573.214.482v.045l.07-.068.143-.298.166-.367.166-.344.118-.252.071-.114h.474l-.048.137-.308.642-.355.756-.379.78-.19.274-.189.16-.165.07-.261.045h-.379v-.343l.379-.023.166-.07.142-.16.118-.229-.023-.137-.332-.71-.308-.688-.19-.413-.023-.091z"/><path fill="#E97426" d="M18.787 11.014h.379l.237.07.142.114.094.183.048.275v.206l-.048.298-.142.23-.236.114h-.545l-.213-.092-.143-.183-.047-.114-.024-.16v-.39l.048-.207.142-.206.213-.115.095-.023zm-10.184.023h.45l.236.092.143.16.07.184.024.206v.23l-.047.251-.119.184-.165.114-.166.046H8.65l-.213-.046-.142-.091-.142-.23-.048-.297.024-.367.095-.206.118-.115.095-.069.166-.046zm-2.511 0h.355l.214.07.165.137.095.206.024.138v.39l-.095.297-.095.115-.166.091-.094.023H6.02l-.213-.091-.142-.16-.095-.23-.024-.344.048-.252.142-.23.118-.09.237-.07zm7.508 0h.332l.213.07.142.09.095.161.047.184V12l-.071.23-.095.137-.19.114-.07.023h-.474l-.213-.091-.119-.115-.118-.23-.024-.137v-.343l.071-.23.095-.137.142-.115.237-.069zm10.445 0h.497l.237.115.142.183.047.16v.115h-1.326l-.047-.022.023-.184.095-.183.19-.138.142-.046z"/></svg>