<svg xmlns="http://www.w3.org/2000/svg" width="38" height="24" viewBox="0 0 38 24" role="img" aria-labelledby="pi-payrexxcrypto"><title id="pi-payrexxcrypto">Payrexx Crypto</title><path d="M35 0H3C1.3 0 0 1.3 0 3v18c0 1.7 1.4 3 3 3h32c1.7 0 3-1.3 3-3V3c0-1.7-1.4-3-3-3z" opacity=".07"/><path d="M35 1c1.1 0 2 .9 2 2v18c0 1.1-.9 2-2 2H3c-1.1 0-2-.9-2-2V3c0-1.1.9-2 2-2h32" fill="#231f20"/><path d="M5.17 8.66l.99-.25v.76c.11 0 .23-.01.34-.01h.15v-.5l.99-.25v.94c.63.23 1.08.65 1.33 1.16l-1.08.32c-.3-.5-.79-.75-1.38-.75-.97 0-1.67.64-1.67 1.88s.71 1.88 1.68 1.88c.73 0 1.25-.37 1.53-1.07l1.05.31c-.23.72-.73 1.26-1.45 1.52v.75l-.99.25v-.81h-.15c-.12 0-.23 0-.34-.01v.58l-.99.25v-1.08c-1-.46-1.48-1.44-1.48-2.55s.48-2.09 1.48-2.55v-.76h-.01z" fill="#c2d82e" fill-rule="evenodd"/><path d="M30.14 14.55c-1.61 0-2.56-1.14-2.56-2.7s.95-2.69 2.56-2.69 2.56 1.14 2.56 2.69-.96 2.7-2.56 2.7zm0-.92c1.04 0 1.41-.82 1.41-1.78s-.37-1.77-1.41-1.77-1.41.81-1.41 1.77.35 1.78 1.41 1.78zm-4.19.81h-1.11v-4.25h-1.57v-.93h4.25v.93h-1.56v4.25h-.01zm-5.82 0h-1.11V9.26h2.38c1.04 0 1.73.52 1.73 1.61s-.69 1.62-1.73 1.62h-1.27v1.95zm0-2.88h1.06c.5 0 .79-.19.79-.69s-.29-.68-.79-.68h-1.06v1.37zm-3.4 2.88h-1.11v-1.97l-1.8-3.21h1.2l1.14 2.3h.01l1.16-2.3h1.18l-1.79 3.21v1.97zm-6.04 0H9.58V9.26h2.34c1.14 0 1.81.54 1.81 1.48 0 .7-.4 1.14-1.02 1.28 1.26.24.8 2.26 1.09 2.35v.07h-1.17c-.25-.22.23-1.88-.94-1.88h-1.01v1.88h.01zm0-2.81h1c.59 0 .92-.24.92-.73s-.29-.71-.91-.71h-1.01v1.44z" fill="#fff"/></svg>