<svg xmlns="http://www.w3.org/2000/svg" role="img" viewBox="0 0 38 24" width="38" height="24" aria-labelledby="pi-pxpay"><title id="pi-pxpay">Pxpay</title><path fill="#000" opacity=".07" d="M35 0H3C1.3 0 0 1.3 0 3v18c0 1.7 1.4 3 3 3h32c1.7 0 3-1.3 3-3V3c0-1.7-1.4-3-3-3z"/><path fill="#fff" d="M35 1c1.1 0 2 .9 2 2v18c0 1.1-.9 2-2 2H3c-1.1 0-2-.9-2-2V3c0-1.1.9-2 2-2h32"/><rect x="1" y="1" width="36" height="22" fill="#ffd100" rx="2" ry="2"/><path d="M24.65 13.77h1.15V8.19h-1.15v5.58zm6.68-8.69h-1.15v1.47h-3.51V7.7h3.51v4.64c0 .14-.11.25-.25.25h-.87v1.19h.87c.77 0 1.4-.63 1.4-1.4V7.7h.75V6.55h-.75V5.08zm-5.55-.17c0 1.16-.93 2.09-2.07 2.09v1.15c1.77 0 3.21-1.44 3.21-3.23h-1.15zm-5.27 7.27c1.21-.82 1.92-2.56 1.92-3.52 0-.36-.22-.59-.57-.59h-2.07v-.98h2.98V6h-2.98V4.91h-1.13V6h-2.98v1.09h2.98v.98h-2.07c-.36 0-.57.24-.57.59 0 .97.7 2.7 1.92 3.52-.36.2-1.35.48-2.51.44v1.15c1.48.06 3.08-.46 3.79-.98.75.52 2.31 1.04 3.79.98v-1.15c-1.16.04-2.15-.26-2.51-.44zm-1.29-.38c-1.31-.77-1.9-1.9-1.97-2.58h3.93c-.06.65-.65 1.81-1.97 2.58zm8.76-3.17a1.52 1.52 0 10-.001 3.039 1.52 1.52 0 00.001-3.039zm0 2.04c-.29 0-.52-.23-.52-.52s.23-.52.52-.52.52.23.52.52-.23.52-.52.52zm-17.8-5.99L5.91 8.35l.75.85 1.28-1.12v1.13h2.05v1.13H8.36v1.15h1.63v1.13H7.31v1.15h6.5v-1.15h-2.68v-1.13h1.63v-1.15h-1.63V9.21h2.05V8.08l1.28 1.12.75-.85-4.27-3.67a.57.57 0 00-.77 0zM7.97 8.06l2.6-2.23 2.6 2.23h-5.2zM9.25 16.9c-.1-.52-.52-.94-1.04-1.04-.85-.17-1.6.48-1.6 1.3v2.3h.67V18.3c.2.12.41.19.66.19.82 0 1.47-.75 1.3-1.6zm-1.3.96a.68.68 0 11.001-1.361.68.68 0 01-.001 1.361zM17.81 15.91v.25c-.22-.2-.51-.32-.82-.32-.7 0-1.27.59-1.27 1.32s.57 1.32 1.27 1.32c.31 0 .6-.12.82-.32v.24h.68v-2.5h-.68zm-.76 1.93a.67.67 0 110-1.34.67.67 0 010 1.34zM15.32 16.9c-.1-.52-.52-.94-1.04-1.04-.85-.17-1.6.48-1.6 1.3v2.3h.67V18.3c.2.12.41.19.66.19.82 0 1.47-.75 1.3-1.6zm-1.3.96a.68.68 0 11.001-1.361.68.68 0 01-.001 1.361zM20.78 15.91l-.59 1.58-.6-1.58h-.73l.95 2.34-.5 1.22h.74l1.45-3.56h-.72zM12.35 18.41l-1.06-1.26 1.06-1.24h-.85l-.6.77-.62-.77h-.84l1.06 1.25-1.07 1.25h.86l.6-.76.6.76h.86z"/><g><path d="M30.81 16.87c-.24-.08-.44-.13-.44-.29 0-.13.11-.2.27-.2.34 0 .6.2.6.2l.29-.45s-.39-.26-.89-.26c-.55 0-.94.28-.94.77 0 .52.45.67.82.79.23.08.4.13.4.29 0 .15-.12.22-.32.22-.21 0-.45-.09-.64-.22l-.28.5c.26.15.59.25.94.25.6 0 .97-.3.97-.81s-.44-.69-.79-.8zM28.52 17.45c0 .31-.2.45-.48.45s-.48-.14-.48-.45v-1.53h-.67v1.58c0 .6.43.97 1.15.97s1.15-.37 1.15-.97v-1.58h-.67v1.53zM25.08 16.9c-.1-.52-.52-.94-1.04-1.04-.85-.17-1.6.48-1.6 1.3v2.3h.67V18.3c.2.12.41.19.66.19.82 0 1.47-.75 1.3-1.6zm-1.3.96a.68.68 0 11.001-1.361.68.68 0 01-.001 1.361zM25.59 14.79h.67v3.64h-.67z"/></g></svg>