<svg width="38" height="24" viewBox="0 0 38 24" xmlns="http://www.w3.org/2000/svg" role="img" aria-labelledby="pi-redactiva"><title id="pi-redactiva">Redactiva</title><path fill="#000" opacity=".07" d="M35 0H3C1.3 0 0 1.3 0 3v18c0 1.7 1.4 3 3 3h32c1.7 0 3-1.3 3-3V3c0-1.7-1.4-3-3-3z"/><path fill="#fff" d="M35 1c1.1 0 2 .9 2 2v18c0 1.1-.9 2-2 2H3c-1.1 0-2-.9-2-2V3c0-1.1.9-2 2-2h32z"/><path fill="#FEFFFE" d="M3 1h32c1.1 0 2 .9 2 2v18c0 1.1-.9 2-2 2H3c-1.1 0-2-.9-2-2V3c0-1.1.9-2 2-2z"/><path d="M7.703 7.738h.615l.593.091.45.138.497.206.426.23.308.228.26.207.119.114h.9l-.024.092-.19.252-.165.183.024.115.213.366.213.459.166.596.07.527V12l-.07.573-.166.55-.142.344-.19.366-.236.367-.285.32-.118.138-.19.16-.284.23-.379.23-.284.16-.592.252-.284.48-.213.345-.095-.023-.071-.252-.095-.115-.047-.252-.095-.023h-.829l-.71-.137-.592-.207-.403-.206-.403-.275-.26-.23-.166-.137-.332-.366-.284-.39-.237-.435-.19-.482-.141-.595-.048-.436v-.367l.048-.55.094-.114-.307-.458-.166-.252.023-.046.356.046h.308l.19-.367.165-.275.213-.275.284-.32.237-.23.332-.252.355-.23.379-.183.355-.137.521-.138.569-.068z" fill="#FED110"/><path d="M7.703 7.738h.615l.593.091.45.138.497.206.426.23.308.228.26.207.095.114-.165.023h-1.54l.142.894.048.275-.048.069-.284-.207-.403-.183-.331-.092-.19-.023h-.402l-.308.046-.403.138-.355.206-.332.275-.07.069v.069l.426.045.047.023-.024.092-.237.206-.118.115h-.047v.045l-.19.161-.379.344-.308.275-.165.16-.19.16-.213.184-.095-.046-.166-.206-.52-.78-.285-.435-.26-.39-.166-.252.023-.045.356.046h.308l.19-.367.165-.275.213-.275.284-.32.237-.23.332-.252.355-.23.379-.183.355-.137.521-.138.569-.068z" fill="#3D77BB"/><path d="M9.29 8.952h2.581l-.024.092-.19.252-.165.183.024.115.213.366.213.459.166.595.071.528V12l-.071.573-.166.55-.142.344-.19.366-.236.367-.285.32-.118.138-.19.16-.284.23-.379.229-.284.16-.497.207h-.048l.048-.138.19-.367.307-.48.213-.322-.047-.045-.308-.092-.64-.252-.284-.115-.07-.069.426-.206.308-.229.213-.23.213-.297.142-.298.118-.435v-.55l-.047-.138-.024-.229-.118.069-.213.252h-.071l-.071-.206-.048-.39-.094-.596-.166-.962-.024-.16v-.184l.047-.023z" fill="#E61F30"/><path d="M7.774 9.685h.402l.38.07.307.114.308.16.237.184.047.068.119.734.047.343.024.115.118-.069.213-.252h.071l.095.367v.55l-.118.435-.19.367-.19.252-.212.23-.308.228-.427.207-.236-.07-.569-.206-.26-.091h-.048l.024.137.095.252-.024.046-.095.023-.52-.183-.309-.16-.355-.298-.237-.275-.19-.367-.141-.367-.024-.206v-.458l-.047-.023.236-.23.19-.16.118-.114h.048v-.046l.19-.16.212-.184.024-.069-.474-.046-.023-.091.189-.184.308-.229.332-.183.355-.115.308-.046z" fill="#FEFFFE"/><path d="M14.618 10.923h.308l.521.046.38.137.26.184.166.183.118.23.095.343.023.115.024.435v.894l.024.252.095.275.142.183.047.092-.166.137-.26.092h-.26l-.285-.138-.142-.16-.024-.092-.237.16-.284.138-.402.092h-.38l-.473-.092-.237-.091-.19-.138-.165-.16-.119-.23-.047-.206v-.32l.071-.276.142-.252.142-.16.332-.206.308-.115.284-.069.403-.045h.592l.142.022-.095-.252-.166-.183-.213-.092-.213-.023h-.426l-.427.046-.165.046h-.095l-.19-.55.095-.092.332-.114.615-.046z" fill="#282727"/><path d="M30.629 10.923l.592.023.403.092.355.183.213.206.166.321.07.252.025.16.023 1.307.048.366.094.207.166.206-.047.092-.142.114-.213.069-.214.023-.26-.092-.166-.16-.07-.138-.096.023-.236.16-.285.115-.308.069h-.426l-.379-.069-.284-.114-.142-.092-.166-.138-.118-.16-.095-.298v-.412l.07-.252.096-.184.213-.229.331-.206.356-.115.355-.069.213-.022h.64l.142.022-.19-.366-.166-.115-.331-.069h-.474l-.379.046-.213.069h-.071l-.142-.435-.024-.184.19-.091.236-.07.19-.022.45-.023z" fill="#272726"/><path d="M21.937 10.006h.047v.963h1.019l.094.023v.458l-.023.206h-1.066v1.673l.047.23.142.16.142.069h.45l.261-.07.166-.045v.71l-.119.07-.473.068h-.498l-.355-.069-.213-.092-.213-.137-.166-.206-.118-.252-.024-.07-.024-2.016-.426-.023-.024-.023v-.641l.45-.046.024-.665.213-.069.592-.183.095-.023z" fill="#272727"/><path d="M18.976 10.923l.545.023.332.092.379.183.047.092-.26.39-.119.16-.118-.046-.285-.138-.284-.046h-.379l-.284.046-.19.092-.236.206-.142.206-.095.367v.367l.095.366.142.23.142.114.237.115.379.068h.26l.332-.045.284-.115.213-.114.071.068.213.436.048.068-.024.092-.403.183-.379.092-.331.046h-.45l-.45-.069-.284-.069-.38-.183-.26-.206-.19-.23-.189-.366-.07-.298-.025-.206v-.275l.072-.436.142-.32.189-.252.166-.184.331-.229.38-.16.402-.092.426-.023z" fill="#272726"/><path d="M25.963 10.969h.427l.047.023.308.71.308.665.308.641.023.046.403-.825.45-.916.166-.321.07-.023h.688l.236.023-.047.114-.19.367-.189.344-.213.435-.237.435-.474.894-.426.802-.118.138h-.285l-.07-.069-1.753-3.392-.024-.068.592-.023z" fill="#272727"/><path d="M23.642 10.969h1.421l.024.023v3.437h-.947l-.024-2.75-.498-.023v-.664l.024-.023z" fill="#282726"/><path d="M33.66 13.1h.356l.237.092.213.183.142.275v.412l-.142.276-.166.16-.26.115-.261.022-.308-.091-.237-.207-.118-.183-.048-.16v-.252l.095-.275.213-.23.285-.137z" fill="#FEFFFE"/><path d="M15.708 7.783h.616l.19.046.189.138.118.206v.275l-.118.183-.19.16.047.115.237.367.213.32-.07.047h-.261l-.118-.115-.261-.39-.166-.229-.213-.046v.757h-.355v-1.81l.142-.024z" fill="#28292B"/><path d="M19.853 7.715l.047.023v1.741l-.024.138-.047.023h-.166l-.07-.046h-.12l-.094.046h-.284l-.19-.07-.118-.09-.118-.184-.048-.206v-.23l.095-.297.19-.207.189-.091.166-.023.236.023.048.023.047-.505.26-.068z" fill="#272728"/><path d="M30.842 12.78h.592l.095.045.024.092v.252l-.048.252-.142.229-.118.092-.213.091-.095.023h-.474l-.19-.069-.141-.16-.048-.115v-.252l.095-.183.19-.16.355-.115.118-.023zM14.903 12.78h.544l.095.045.024.138v.206l-.048.298-.094.137-.19.16-.142.07-.118.022H14.5l-.19-.069-.118-.114-.07-.115-.025-.091v-.16l.095-.23.166-.137.284-.115.26-.046z" fill="#FEFFFE"/><path d="M17.721 8.242l.26.023.143.068.19.16.094.161.023.16-.023.207-.095.023h-.9l.095.229.142.092h.308l.118-.046.119.023.047.068v.115l-.095.069-.19.046h-.378l-.19-.07-.142-.114-.142-.229-.024-.092v-.297l.072-.23.142-.183.213-.137.213-.046z" fill="#282A2D"/><path d="M24.518 9.64h.166l.213.068.19.16.07.138v.275l-.141.183-.142.092-.285.046-.236-.046-.19-.137-.095-.16v-.276l.095-.137.166-.138.19-.068z" fill="#262625"/><path d="M33.66 13.1h.356l.237.092.213.183.142.275v.412l-.142.276-.166.16-.26.115-.261.022-.308-.091-.237-.207-.118-.183-.048-.16v-.252l.095-.275.213-.23.285-.137zm.024.16l-.213.115-.142.16-.071.184v.275l.095.229.118.137.166.092.094.023h.214l.19-.069.189-.137.118-.252v-.321l-.071-.184-.142-.16-.19-.092h-.355z" fill="#131216"/><path d="M19.26 8.517l.237.023.071.023.024.091v.481l-.024.184-.142.069h-.19l-.141-.07L19 9.205l-.047-.114v-.252l.094-.184.142-.114.072-.023z" fill="#FEFFFE"/><path d="M33.708 13.42h.237l.142.07.07.068.025.16-.072.138.024.138.024.068v.207l-.024.023h-.118l-.095-.275-.047-.046h-.119l-.023.023-.024.343-.118-.045-.048-.092v-.688l.071-.068.095-.023z" fill="#131215"/><path d="M17.721 8.242l.26.023.143.068.19.16.094.161.024.16-.024.207h-.663l-.024-.046-.07-.023v-.046l-.096-.046.024-.022.308-.023h.237l-.024-.16v-.07l-.047-.137-.119-.023v.046l-.047.023h-.308l-.142.046-.071-.046.118-.115-.023-.069.118-.045.142-.023z" fill="#111014"/><path d="M15.945 8.058l.426.046.071.069.024.069v.206l-.142.115-.071.022h-.332v-.504l.024-.023z" fill="#FEFFFE"/><path d="M18.076 9.319l.119.023.047.068v.115l-.095.069-.19.046h-.378l-.19-.07.048-.137.047-.068.119-.023.047.023h.308l.118-.046z" fill="#121014"/><path d="M17.674 8.517h.213l.142.091.095.16v.047l-.048.023h-.568l-.095-.023.048-.138.118-.114.095-.046z" fill="#FEFFFE"/><path d="M19.095 9.342l.142.023h.19l.141-.023v.183h-.047v.046l-.142.069h-.284l-.19-.07-.07-.045v-.046l.094.046.26.069v-.046l-.07-.023-.072-.115.048-.068z" fill="#121013"/><path d="M24.163 12.183h.024l.024.344v1.26l.023.482.024.114.047.023h-.142v-2.223z" fill="#0E0B0D"/><path d="M33.85 13.581l.142.046v.115l-.095.068h-.165l-.024-.023v-.137l.024-.046.118-.023z" fill="#FEFFFE"/><path d="M15.708 7.783h.616l.165.046-.023.046-.332-.023h-.355l-.142.046-.071-.023v-.069l.142-.023z" fill="#18191E"/><path d="M27.218 14.36l.166.023h.166v.092l-.047.046h-.285l-.07-.069v-.069h.07v-.022z" fill="#14151A"/><path d="M17.934 8.425l.119.023.047.069v.068l.047.023-.047.115-.095-.115-.118-.068-.213-.023v-.023l.26-.023v-.046z" fill="#292D32"/><path d="M34.134 14.063h.024v.206l-.024.023h-.118l-.024-.092.024-.069h.095l.023-.069z" fill="#232324"/><path d="M21.937 10.006h.047v.115l-.047.046-.095-.023-.071-.046v-.046l.166-.046z" fill="#141316"/><path d="M16.655 7.99l.095.045.071.138v.183h-.024v-.114l-.07-.023-.072-.16v-.07z" fill="#141213"/><path d="M23.192 13.673l.024.046-.024.114-.213-.045.071-.07.142-.045z" fill="#15161B"/><path d="M19.782 11.725l.118.023.047-.023-.023.115h-.095l-.071-.046.024-.069z" fill="#17181E"/><path d="M33.613 14.154h.071l.024.184-.118-.046-.024-.092.047-.046z" fill="#27282A"/><path d="M19.853 7.715l.047.023-.024.137-.118-.046-.024-.069.119-.045z" fill="#161A22"/><path d="M16.537 9.41l.118.092.024.069.071.046-.071.023-.118-.115-.024-.115z" fill="#191D26"/><path d="M17.532 9.548l.142.023.023.023.26.023v.023h-.378l-.047-.092z" fill="#292C30"/></svg>