<svg xmlns="http://www.w3.org/2000/svg" role="img" viewBox="0 0 38 24" width="38" height="24" aria-labelledby="pi-seb"><title id="pi-seb">SEB</title><path fill-opacity=".07" d="M35 0H3C1.3 0 0 1.3 0 3v18c0 1.7 1.4 3 3 3h32c1.7 0 3-1.3 3-3V3c0-1.7-1.4-3-3-3"/><path fill="#fff" d="M35 1c1.1 0 2 .9 2 2v18c0 1.1-.9 2-2 2H3c-1.1 0-2-.9-2-2V3c0-1.1.9-2 2-2z"/><path fill="#231E1D" d="M29.086 14.207H26.97v-1.45h2.176c.402 0 .722.335.71.729a.696.696 0 0 1-.77.721m-2.183-4.526h1.783a.734.734 0 0 1 .748.694.734.734 0 0 1-.748.7H26.97V9.682zm-2.244 6.295h5.128a2.25 2.25 0 0 0 2.48-2.143 2.086 2.086 0 0 0-1.618-2.01 1.82 1.82 0 0 0 1.128-1.757 2.177 2.177 0 0 0-2.422-2.029h-4.696v7.967zm-1.648 1.844h.5V6.18h-.5zm-8.976 0h.488V6.18h-.488zm8.013-9.803h-6.41v7.96h6.483V14.14h-4.127v-1.282h2.926v-1.716h-2.926V9.86h4.127V8.037zm-9.101 1.122-1.444 1.082a3.1 3.1 0 0 0-2.01-.708c-.487 0-1.001.14-1.075.487-.078.347.24.601.781.753l2.039.556c1.282.373 2.156.922 2.156 2.218 0 1.769-1.575 2.69-3.68 2.69a5.43 5.43 0 0 1-3.98-1.616l1.503-1.13a3.43 3.43 0 0 0 2.424 1.056c.708 0 1.362-.152 1.45-.555.085-.392-.196-.574-.795-.713-.602-.14-1.282-.281-1.898-.447-1.743-.468-2.23-1.477-2.23-2.377 0-1.282 1.15-2.566 3.293-2.566a5.3 5.3 0 0 1 3.466 1.284z"/></svg>
