<svg width="38" height="24" viewBox="0 0 38 24" role="img" version="1.1" xmlns="http://www.w3.org/2000/svg" aria-labelledby="pi-sentoo"><title id="pi-sentoo">Sentoo</title><path opacity=".07" d="M35 0H3C1.3 0 0 1.3 0 3v18c0 1.7 1.4 3 3 3h32c1.7 0 3-1.3 3-3V3c0-1.7-1.4-3-3-3z"/><path fill="#fff" d="M35 1c1.1 0 2 .9 2 2v18c0 1.1-.9 2-2 2H3c-1.1 0-2-.9-2-2V3c0-1.1.9-2 2-2h32"/><path d="M24.2949477,14.0889969 C25.2350174,14.97978 25.2350174,16.4239428 24.2949477,17.3147258 L21.1099381,20.3319127 C20.2146335,21.1802775 18.7891471,21.2206759 17.8433491,20.4531077 L17.7052033,20.3319127 C16.7649322,19.4413203 16.7649322,17.9969669 17.7052033,17.1065651 L20.8900116,14.0889969 C21.8302826,13.1984045 23.3546766,13.1984045 24.2949477,14.0889969 Z M23.5368049,7.69167846 L23.5478265,7.70211999 C24.4840578,8.58927018 24.4840578,10.0273534 23.5478265,10.9145036 L18.1043786,16.0714794 C17.1679468,16.9586297 15.6497771,16.9586297 14.7133454,16.0714794 L14.7023238,16.0610379 C13.7658921,15.1740776 13.7658921,13.7358045 14.7023238,12.8486543 L20.1457717,7.69167846 C21.0822035,6.80452823 22.6003732,6.80452823 23.5368049,7.69167846 Z M20.2695111,3.63537084 L20.3109745,3.67463185 C21.2279549,4.54027996 21.2429056,5.87019904 20.2762888,6.79435748 L17.0056591,9.92971129 C16.1323445,10.7541381 14.7424544,10.7933965 13.8199421,10.0474865 L13.6851936,9.92971129 C12.7716021,9.06730316 12.7716021,7.65733737 13.6851936,6.79492925 L17.0319725,3.63537084 C17.9292178,2.78820972 19.3722658,2.78820972 20.2695111,3.63537084 Z" fill="#00698F" /></svg>
