<svg xmlns="http://www.w3.org/2000/svg" role="img" viewBox="0 0 38 24" width="38" height="24" aria-labelledby="pi-superpayments"><title id="pi-superpayments">Super Payments</title><path fill="#000" d="M35 0H3C1.3 0 0 1.3 0 3v18c0 1.7 1.4 3 3 3h32c1.7 0 3-1.3 3-3V3c0-1.7-1.4-3-3-3z" opacity=".07"/><path d="M35.001 1C36.101 1 37 1.9 37 3v17.999C37 22.1 36.1 23 35.001 23h-32C1.9 23 1 22.1 1 20.999V3.001c0-1.1.9-2 2-2L35.001 1z" fill="#1E0032"/><circle cx="32.75" cy="13.445" fill="#FFB000" r="1.142"/><path d="M28.8 14.459V8.736h1.46l.112.45h.056a1.01 1.01 0 01.392-.315c.18-.09.386-.135.617-.135h1.089v1.605h-1.01c-.68 0-1.021.348-1.021 1.043v3.075h-1.694zm-3.317.113c-.569 0-1.08-.128-1.537-.382a2.888 2.888 0 01-1.077-1.066 3.01 3.01 0 01-.393-1.526c0-.56.131-1.066.393-1.514.262-.457.62-.812 1.077-1.066a3.033 3.033 0 011.537-.393 2.89 2.89 0 011.47.381c.449.255.8.606 1.055 1.055.254.441.38.931.38 1.47 0 .202-.018.389-.055.56h-4.174c.045.315.19.58.438.798.246.209.542.314.886.314.254 0 .471-.049.65-.146.18-.097.315-.198.405-.303h1.705c-.075.254-.224.52-.449.796-.224.277-.535.517-.931.719-.389.202-.849.303-1.38.303zm1.234-3.501a1.292 1.292 0 00-.404-.785 1.171 1.171 0 00-.83-.315c-.352 0-.643.105-.875.315-.232.209-.382.47-.449.785h2.558zm-10.508 4.942V8.737h1.459l.112.561h.056c.142-.194.355-.355.64-.482.291-.127.624-.191.998-.191.486 0 .931.127 1.335.381.404.247.726.599.965 1.055.24.449.36.961.36 1.537s-.12 1.092-.36 1.549c-.24.448-.561.8-.965 1.054a2.51 2.51 0 01-1.335.37c-.352 0-.666-.06-.942-.179-.27-.12-.46-.25-.573-.393h-.056v2.014H16.21zm2.962-3.001c.367 0 .67-.127.909-.382.24-.261.359-.605.359-1.032 0-.426-.12-.766-.36-1.02a1.194 1.194 0 00-.908-.382c-.366 0-.67.127-.909.381-.24.255-.359.595-.359 1.021 0 .427.12.77.36 1.032.239.255.541.382.908.382zm-6.764 1.558a2.33 2.33 0 01-1.167-.291 2.078 2.078 0 01-.797-.83c-.187-.367-.28-.79-.28-1.268V8.736h1.694V11.9c0 .314.093.572.28.774.195.195.45.292.763.292.314 0 .565-.097.752-.291.195-.203.292-.46.292-.775V8.736h1.694v5.723h-1.459l-.112-.505h-.056c-.15.172-.366.317-.65.437-.285.12-.603.18-.954.18zm-5.476.226c-.673 0-1.22-.113-1.643-.338-.422-.233-.726-.507-.912-.82-.179-.314-.268-.608-.268-.881h1.789c0 .168.085.321.255.458.179.129.438.193.78.193.332 0 .575-.048.73-.145.162-.104.243-.229.243-.374a.448.448 0 00-.159-.362c-.105-.088-.292-.153-.56-.193l-.924-.145c-1.42-.217-2.13-.828-2.13-1.834 0-.354.106-.68.317-.977.21-.298.523-.535.937-.712.413-.177.908-.266 1.484-.266.584 0 1.083.105 1.497.314.414.201.726.459.937.772.211.306.316.608.316.905H7.844c0-.16-.09-.301-.268-.422-.17-.12-.406-.18-.706-.18-.292 0-.519.055-.681.168-.154.105-.231.23-.231.374 0 .233.235.386.705.459l.974.144c1.387.202 2.08.845 2.08 1.931 0 .354-.105.68-.316.977-.202.29-.515.523-.937.7-.413.17-.924.254-1.533.254z" fill="#fff"/></svg>