<svg xmlns="http://www.w3.org/2000/svg" role="img" viewBox="0 0 38 24" width="38" height="24" aria-labelledby="pi-swedbank"><title id="pi-swedbank">Swedbank</title><path fill-opacity=".07" d="M35 0H3C1.3 0 0 1.3 0 3v18c0 1.7 1.4 3 3 3h32c1.7 0 3-1.3 3-3V3c0-1.7-1.4-3-3-3"/><path fill="#fff" d="M35 1c1.1 0 2 .9 2 2v18c0 1.1-.9 2-2 2H3c-1.1 0-2-.9-2-2V3c0-1.1.9-2 2-2z"/><path fill="#F15C22" d="M4.233 10.066c0 1.635 1.15 2.3 2.767 2.636 1.625.335 1.9.85 1.9 1.473 0 .625-.624 1.15-1.498 1.15a3.8 3.8 0 0 1-2.63-1.15l-.84 1.037a4.94 4.94 0 0 0 3.451 1.33c1.558.204 2.942-1 2.954-2.576 0-1.342-.826-2.164-2.665-2.607C6 10.953 5.67 10.516 5.67 9.875c0-.648.48-1.15 1.39-1.15a3.67 3.67 0 0 1 2.3.874l.763-1.15a4.6 4.6 0 0 0-2.998-1.05 2.61 2.61 0 0 0-2.862 2.523zm10.579-.251-1.426 4.463-1.311-4.428h-1.378l2.025 6.399h1.24l1.425-4.421s1.414 4.396 1.414 4.421h1.264l2.061-6.399h-1.39l-1.3 4.45-1.449-4.45zM20.874 13.2a3.17 3.17 0 0 0 3.2 3.366 3.92 3.92 0 0 0 2.3-.665l-.371-1.151c-.562.396-1.24.6-1.929.575a1.753 1.753 0 0 1-1.833-1.622h4.602v-.39c0-1.75-.93-3.45-2.978-3.45a3.15 3.15 0 0 0-3.072 3.378zm1.367-.474A1.77 1.77 0 0 1 23.9 11c.921.048 1.64.821 1.617 1.75h-3.277zM32.779 7.55v3.103a2.72 2.72 0 0 0-1.851-.642 2.966 2.966 0 0 0-2.9 3.29 3.04 3.04 0 0 0 2.954 3.312 23 23 0 0 0 3.085-.299V7.55zM29.454 13.3a1.88 1.88 0 0 1 1.773-2.084 1.61 1.61 0 0 1 1.552.934v3.102a7.6 7.6 0 0 1-1.565.109 1.864 1.864 0 0 1-1.813-2.06z"/></svg>
