<svg xmlns="http://www.w3.org/2000/svg" role="img" viewBox="0 0 38 24" width="38" height="24" aria-labelledby="pi-tpgpay"><title id="pi-tpgpay">TPG Pay</title><path fill="#000" opacity=".07" d="M35 0H3C1.3 0 0 1.3 0 3v18c0 1.7 1.4 3 3 3h32c1.7 0 3-1.3 3-3V3c0-1.7-1.4-3-3-3z"/><path fill="#fff" d="M35 1c1.1 0 2 .9 2 2v18c0 1.1-.9 2-2 2H3c-1.1 0-2-.9-2-2V3c0-1.1.9-2 2-2h32"/><path fill="#52F7C8" d="M3 2h32c.55 0 1 .45 1 1v18c0 .55-.45 1-1 1H3c-.55 0-1-.45-1-1V3c0-.55.45-1 1-1z"/><path d="M8.39 4.724v6.468H6.236V4.724H4.464V2.898h5.698v1.826H8.39zM13.365 6.704h.715c.792 0 1.188-.345 1.188-1.034 0-.69-.396-1.034-1.188-1.034h-.715v2.068zm0 4.488h-2.156V2.898h3.432c.931 0 1.643.242 2.134.726.498.484.748 1.166.748 2.046 0 .88-.25 1.562-.748 2.046-.491.484-1.203.726-2.134.726h-1.276v2.75zM22.789 6.55h4.279c0 .44-.018.84-.055 1.199-.037.36-.11.693-.22 1a4.075 4.075 0 01-.627 1.156 3.77 3.77 0 01-.935.836c-.352.22-.74.389-1.166.506a5.025 5.025 0 01-1.342.176 4.758 4.758 0 01-1.771-.32 4.038 4.038 0 01-1.364-.89 4.133 4.133 0 01-.891-1.386 4.875 4.875 0 01-.32-1.793c0-.645.104-1.236.309-1.771.213-.543.51-1.005.89-1.386a4.11 4.11 0 011.398-.891 4.937 4.937 0 011.815-.32c.865 0 1.624.188 2.277.562.653.374 1.17.953 1.55 1.738l-2.045.847c-.19-.455-.44-.781-.748-.98a1.837 1.837 0 00-1.034-.296c-.323 0-.616.062-.88.187-.264.117-.491.29-.682.517-.183.22-.33.488-.44.803a3.402 3.402 0 00-.154 1.056c0 .352.044.678.132.979.095.3.235.56.418.78.183.22.41.393.682.518.271.117.587.176.946.176.213 0 .418-.022.616-.066.198-.051.374-.128.528-.231.161-.11.293-.25.396-.418.103-.169.172-.374.209-.616h-1.771V6.55zM13.293 16.704h.715c.792 0 1.188-.345 1.188-1.034 0-.69-.396-1.034-1.188-1.034h-.715v2.068zm0 4.488h-2.156v-8.294h3.432c.932 0 1.643.242 2.134.726.5.484.748 1.166.748 2.046 0 .88-.249 1.562-.748 2.046-.49.484-1.202.726-2.134.726h-1.276v2.75zM22.729 18.112l-.968-2.761-.968 2.76h1.936zm.572 1.639h-3.08l-.495 1.44h-2.3l3.158-8.293h2.354l3.157 8.294h-2.3l-.494-1.441zM28.344 17.21l-3.025-4.312h2.574l1.54 2.266 1.529-2.266h2.574L30.5 17.21v3.982h-2.156V17.21z" fill="#006B73"/></svg>