<svg width="38" height="24" viewBox="0 0 38 24" fill="none" xmlns="http://www.w3.org/2000/svg" role="img" aria-labelledby="pi-unzerbanktransfer"><title id="pi-unzerbanktransfer">Unzer Direct Bank Transfer</title><path fill="#000" opacity=".07" d="M35 0H3C1.3 0 0 1.3 0 3v18c0 1.7 1.4 3 3 3h32c1.7 0 3-1.3 3-3V3c0-1.7-1.4-3-3-3z"/><path fill="#fff" d="M35 1c1.1 0 2 .9 2 2v18c0 1.1-.9 2-2 2H3c-1.1 0-2-.9-2-2V3c0-1.1.9-2 2-2h32"/><path d="M7.71 6.524c-.162 0-.32.035-.464.098-.144.063-.26.138-.368.246a1.298 1.298 0 00-.256.394c-.06.147-.096.292-.096.459 0 .166.035.328.096.475.062.145.15.27.256.377.108.11.224.2.368.263.143.062.302.098.464.098.164 0 .32-.036.464-.098.142-.064.262-.153.368-.263.106-.108.194-.232.256-.377.06-.147.096-.309.096-.475 0-.167-.035-.312-.096-.46a1.298 1.298 0 00-.256-.393 1.128 1.128 0 00-.368-.246 1.14 1.14 0 00-.464-.098zM5.342 9.672c-.162 0-.304.018-.448.082a1.243 1.243 0 00-.384.263 1.22 1.22 0 00-.24.393 1.14 1.14 0 00-.096.46v2.656h5.424v.738H4.174v.475c0 .167.035.329.096.475.061.147.135.268.24.378.107.108.241.199.384.262.144.064.286.098.448.098h4.736c.163 0 .305-.034.448-.098a1.233 1.233 0 00.64-.64c.062-.146.08-.308.08-.475V12.083H5.822v-.722h5.424v-.492c0-.166-.017-.313-.08-.459a1.259 1.259 0 00-.256-.393 1.22 1.22 0 00-.384-.263 1.06 1.06 0 00-.448-.082H5.342z" fill="red"/><path d="M18.589 8.962h-2.988l-2.152 3.721 1.525 2.65c-.148-1.213.104-1.713.24-1.947l.932-1.615 1.325-2.185c.144-.155.3-.306.477-.42.19-.126.413-.196.641-.204z" fill="#FFC72C"/><path d="M21.184 13.226c-.072.12-.127.21-.158.25a1.228 1.228 0 01-.417.344c-.451.232-1.018.248-1.288.248h-3.712c-.27 0-.821-.016-1.272-.248a1.244 1.244 0 01-.418-.343l1.423 2.485h4.26l1.59-2.746c-.004.001-.008.01-.008.01z" fill="#FFC72C"/><path d="M19.35 8.962h-.766c-.29.03-.478.098-.64.203a2.145 2.145 0 00-.465.421l1.327 2.185.93 1.615c.136.234.389.734.414 1.24.009.175-.02.353-.072.492l-.046.117 1.47-2.545-2.146-3.724-.003-.003h-.003z" fill="#FFC72C"/><path fill-rule="evenodd" clip-rule="evenodd" d="M23.751 9.016h6.891v6.891h-6.89V9.016zm.978.978v4.982h4.982V9.994h-4.982zm3.166.698h1.257l-2.607 3.585h-1.257l2.607-3.585z" fill="#0018A8"/><path d="M34.416 14.381v-3.929h.666v3.929h-.666zm-1.631-1.631v-.667h3.928v.667h-3.928z" fill="#6D7184"/></svg>