<svg width="38" height="24" viewBox="0 0 38 24" fill="none" xmlns="http://www.w3.org/2000/svg" role="img" aria-labelledby="pi-unzerinvoice"><title id="pi-unzerinvoice">Unzer Invoice</title><path fill="#000" opacity=".07" d="M35 0H3C1.3 0 0 1.3 0 3v18c0 1.7 1.4 3 3 3h32c1.7 0 3-1.3 3-3V3c0-1.7-1.4-3-3-3z"/><path fill="#fff" d="M35 1c1.1 0 2 .9 2 2v18c0 1.1-.9 2-2 2H3c-1.1 0-2-.9-2-2V3c0-1.1.9-2 2-2h32"/><path d="M6.466 15.294h5.261c1.445 0 2.631 1.152 2.631 2.591 0 1.423-1.169 2.592-2.63 2.592H6.465c-1.445 0-2.631-1.152-2.631-2.592 0-1.422 1.169-2.591 2.63-2.591zM26.602 2.524h5.846c1.875 0 3.388 1.49 3.388 3.337 0 1.846-1.513 3.336-3.388 3.336h-5.846c-1.875 0-3.388-1.49-3.388-3.336 0-1.847 1.514-3.337 3.388-3.337z" fill="#E9F2FB"/><path d="M23.158 3.79l-9.366.322c-1.139.039-2.03.98-1.99 2.102l.46 13c.04 1.122.996 2 2.135 1.96l9.366-.322c1.139-.04 2.03-.98 1.99-2.102l-.46-13c-.04-1.122-.996-2-2.135-1.96z" fill="#415085"/><path d="M22.034 6.545l-6.908.238a.933.933 0 00-.913.955c.018.51.456.908.978.89l6.908-.237a.933.933 0 00.913-.955.936.936 0 00-.978-.89zM22.13 9.724l-6.909.238a.933.933 0 00-.912.955c.018.51.456.908.978.89l6.908-.238a.933.933 0 00.913-.955.936.936 0 00-.978-.89zM16.609 13.096l-1.272.044a.934.934 0 00-.913.955c.019.51.456.908.978.89l1.272-.044a.933.933 0 00.913-.955.936.936 0 00-.978-.89z" fill="#F5FBFF"/><path d="M26.894 18.395a.527.527 0 01.035.745l-1.187 1.253a.547.547 0 01-.757.034l-5.691-5.233a1.251 1.251 0 01-.413-.847l-.103-1a.52.52 0 01.55-.575l1.015.033c.326 0 .636.136.877.356l5.691 5.234h-.017zM28.373 19.767c.567.525.602 1.405.069 1.964a1.428 1.428 0 01-1.995.068l-.533-.491a.527.527 0 01-.034-.745l1.186-1.254c.207-.22.55-.22.757-.034l.533.492h.017z" fill="#C73A6B"/></svg>