<svg xmlns="http://www.w3.org/2000/svg" role="img" viewBox="0 0 38 24" width="38" height="24" aria-labelledby="pi-v12finance"><title id="pi-v12finance">V12 Retail Finance</title><path fill="#000" opacity=".07" d="M35 0H3C1.3 0 0 1.3 0 3v18c0 1.7 1.4 3 3 3h32c1.7 0 3-1.3 3-3V3c0-1.7-1.4-3-3-3z"/><rect x="1" y="1" width="36" height="22" rx="2" fill="#fff"/><path fill="#0D4269" d="M18.13 18.59c-.28-.48-.56-.96-.85-1.43-.11-.17-.12-.32 0-.5 1.2-2.08 2.4-4.17 3.59-6.26 1.39-2.43 2.77-4.87 4.14-7.31.17-.3.34-.41.69-.4 1.52.03 3.05 0 4.58 0 .09 0 .19-.02.27.03-.03.18-10.69 18.72-10.86 18.75-.55-.93-1.08-1.87-1.55-2.8v-.08Zm2.46-9.49c-1.64 2.87-2.28 4-3.73 6.54-.11 0-.13-.06-.16-.13-.9-1.58-1.88-3.12-2.91-4.64-.08-.11-.07-.2 0-.32 1.13-2 2.26-4.01 3.38-6.01l.78-1.41c.07-.12.15-.18.3-.18h5.38c.06 0 .13-.01.22.07-.75 1.32-1.51 2.64-2.26 4.09l-1 2ZM9.88 2.85h6.25c-1.1 1.99-2.2 3.92-3.32 5.91-1.16-1.99-2.27-3.92-3.45-5.91.19-.09.36 0 .53 0Z"/></svg>