<svg width="38" height="24" viewBox="0 0 38 24" fill="none" xmlns="http://www.w3.org/2000/svg" role="img" aria-labelledby="pi-wallid"><title id="pi-wallid">Wallid Pay by Bank</title><path fill="#000" opacity=".07" d="M35 0H3C1.3 0 0 1.3 0 3v18c0 1.7 1.4 3 3 3h32c1.7 0 3-1.3 3-3V3c0-1.7-1.4-3-3-3z"/><path fill="#590D82" d="M35 1c1.1 0 2 .9 2 2v18c0 1.1-.9 2-2 2H3c-1.1 0-2-.9-2-2V3c0-1.1.9-2 2-2h32"/><path fill="#fff" d="M12 5h2.27l1.237 5.382L17.335 19h-2.476L12 5zm10.169 5.853L23.819 5H26l-2.711 10.117-1.12-4.264zm-2.093-2.294l.177.735.294 1.089L22.728 19h-2.505l-1.444-6.059-.56 1.941-.884-3.94.471-1.648.06-.118L19.132 5l.943 3.559z"/></svg>