<svg width="38" height="24" viewBox="0 0 38 24" fill="none" xmlns="http://www.w3.org/2000/svg" role="img" aria-labelledby="pi-webpaynew"><title id="pi-webpaynew">Webpaynew</title><path fill="#000" opacity=".07" d="M35 0H3C1.3 0 0 1.3 0 3v18c0 1.7 1.4 3 3 3h32c1.7 0 3-1.3 3-3V3c0-1.7-1.4-3-3-3z"/><path fill="#fff" d="M35 1c1.1 0 2 .9 2 2v18c0 1.1-.9 2-2 2H3c-1.1 0-2-.9-2-2V3c0-1.1.9-2 2-2h32"/><rect x="1" y="1" width="36" height="22" rx="2" fill="#FDFDFD"/><path d="M11.99 9.09h1.018l.024 1.902.236-.23.308-.183.284-.114.308-.07h.521l.403.093.284.114.26.138.261.206.166.16.213.321.166.344.095.39v.847l-.119.413-.19.39-.212.274-.213.207-.308.206-.308.137-.308.092-.118.023-.403.023-.427-.046-.284-.092-.331-.183-.19-.16-.142-.184v.527h-.995v-1.1l-.023-.023-.166.298-.19.23-.26.252-.308.206-.355.16-.355.092-.427.023-.45-.046-.379-.114-.355-.184-.237-.183-.284-.275-.237-.344-.142-.32-.095-.345-.023-.39.023-.16H7.68l-.047.23-.19.664-.332 1.077-.094.23-.024.022H6.14l-.165-.55-.308-1.123-.237-.87-.024-.16-.047.022-.095.39-.403 1.512-.213.734-.023.045h-.877l-.237-.756-.615-2.016-.285-.94-.118-.39.024-.023h.947l.071.16.237.918.308 1.122.142.527v.07h.047l.095-.39.237-.894.379-1.352.024-.023h.781l.071.206.213.78.332 1.191.118.435v.046h.048l.094-.412.38-1.444.165-.619.071-.298.024-.023h.971l-.024.16-.26.826v.046l.166-.275.19-.23.236-.206.331-.206.261-.115.332-.091.142-.023h.568l.426.091.356.138.284.183.237.207.165.16.214.32.094.184V9.09z" fill="#010101"/><path d="M18.692 10.396h.64l.355.091.379.161.26.183.237.23.166.229.19.32.047.16.047-.022.119-.275.213-.32.213-.23.284-.206.38-.184.378-.114.118-.023h.616l.355.091.285.138.26.183.19.207.023-.07v-.412l.545-.022h1.184l.119.229.331.893.332.871.19.482.047.16.047.023.071-.23.332-.847.237-.665.331-.87.024-.024 1.066-.022.023.091-.45 1.123-.26.642-.427 1.054-.26.665-.355.87-.427 1.055-.07.091h-.64l-.427-.023.143-.39.308-.687.189-.435v-.184l-.19-.458-.378-.94-.308-.756-.19-.458-.07-.206-.024 3.07-.048.023h-.616l-.379-.022v-.482l-.094.092-.119.137-.26.184-.26.114-.238.069-.19.023h-.568l-.355-.069-.308-.114-.308-.184-.236-.206-.237-.275-.142-.23-.119-.274-.047.069-.19.366-.26.321-.26.23-.309.183-.331.114-.355.069h-.521l-.356-.069-.284-.114-.26-.16-.237-.23-.024.023v1.856l-.047.023-.971-.023-.024-.069v-5.477h.995v.527l.165-.183.213-.183.356-.184.308-.091.118-.023z" fill="#FFAC22"/><path d="M32.31 7.898h.119l.142.115.166.183.26.252.142.115.142.16.143.115.142.16.142.115.142.16.142.115.142.16.142.115.142.16 1.185 1.146-.048.114-.118.115-.213.23-.71.687h-.048l-.048.091h-.047l-.047.092-.285.275h-.047l-.047.092h-.048l-.047.091-.876.848-.142.092-.119.023-2.89.023-.236-.023-.024-.069v-3.117l.119-.091.473-.459.119-.137.165-.138.142-.16 1.635-1.581.094-.069z" fill="#FE1413"/><path d="M14.097 11.313h.308l.308.068.237.115.237.206.142.16.142.298.071.321v.207l-.095.39-.165.274-.213.23-.261.16-.284.091-.355.023-.308-.046-.38-.183-.236-.23-.142-.228-.095-.252-.024-.138v-.412l.071-.252.142-.275.166-.207.308-.206.26-.092.166-.023zM18.574 11.335h.473l.356.115.237.16.189.184.142.252.095.275.024.114v.298l-.072.275-.118.275-.213.252-.237.16-.26.115-.19.046h-.379l-.308-.091-.26-.138-.237-.206-.166-.252-.095-.23-.023-.091v-.481l.094-.298.119-.207.26-.274.213-.138.237-.092.119-.023zM22.932 11.335h.45l.331.092.237.115.26.252.143.229.094.298.024.114v.252l-.095.367-.19.344-.165.183-.308.184-.308.091h-.402l-.308-.091-.284-.138-.237-.23-.142-.228-.119-.367v-.412l.119-.367.165-.252.237-.23.308-.16.19-.046zM8.721 12.917h3.268l.024.114-.024.344-1.018.023-.095.137-.19.184-.212.114-.213.069-.19.023h-.213l-.308-.046-.26-.114-.19-.138-.166-.16-.142-.275-.07-.275zM30.582 10.762h.355l.19.07.141.114.143.229.047.183v.23l-.095.229-.166.183-.165.092-.095.022h-.332l-.213-.091-.095-.092-.07-.023.023.184v.48h-.237l-.024-.343v-.55l.024-.87.024-.024h.142l.071.115v.069l.26-.184.072-.023zM9.858 11.22l.379.024.26.091.237.138.213.206.19.321.024.137-.024.023H8.768l-.023-.045.094-.252.143-.23.236-.206.285-.137.165-.046.19-.023zM31.979 10.785h.213l.024.023v.71l.047.23.095.115.118.045h.19l.142-.068.071-.023.047-.115.024-.069.024-.848h.213l.024.848v.436l-.142.046-.072-.046v-.115l-.142.069-.07.069-.095.023h-.38L32.122 12l-.142-.206-.024-.092v-.894l.024-.023z" fill="#FDFDFD"/><path d="M30.771 10.946l.166.046.19.16.094.206v.184l-.118.229-.143.114-.142.046h-.19l-.165-.068-.19-.207-.047-.16.024-.206.047-.115h.048l.047-.092.119-.091.26-.046z" fill="#FE1613"/><path d="M33.732 10.74l.19.022.165.07.118.16v.114l-.118.023-.119-.114-.118-.07h-.142l-.118.115v.115l.118.092.379.137.118.115.048.091v.253l-.166.206-.119.046h-.331l-.19-.092-.118-.137v-.161h.166l.166.183.047.023h.142l.142-.091.024-.16-.095-.115-.45-.16-.118-.138-.024-.046v-.16l.071-.138.166-.137.166-.046zM31.576 10.304h.166l.071.046v1.719l-.023.023h-.214l-.023-.023v-1.742l.023-.023z" fill="#FDFDFD"/></svg>